<svg fill="none" height="144" viewBox="0 0 168 144" width="168" xmlns="http://www.w3.org/2000/svg"><g fill="#000" stroke-linecap="round" stroke-linejoin="round"><g stroke="#454545"><path d="m136.965 78.2667-.051 16.7516-53.3486-30.7976.0507-16.7516z"/><path d="m83.6161 47.4691-.0507 16.7516-53 30.8032.045-16.7516z"/><path d="m83.515 30.3462 83.016 47.9261-82.4704 47.9257-83.01568-47.9257zm.4444 78.7298 53.0056-30.8037-53.3488-30.7976-53.0056 30.8033z"/><path d="m166.53 78.2725-.05 16.7516-82.4702 47.9259.0506-16.751z"/><path d="m84.0607 126.199-.0506 16.751-83.0101-47.9315.045-16.746z"/></g><path d="m110.027 48.1334-.045 16.7516-26.3316-15.1991.0506-16.7516z" stroke="#494949"/><path d="m83.7007 32.9343-.0507 16.7516-26.1568 15.1991.045-16.7516z" stroke="#494949"/><path d="m83.5939 13.4262 60.1161 34.7071-59.728 34.7127-60.1158-34.7127zm.2756 49.9118 26.1565-15.2047-26.3309-15.1991-26.1568 15.2047z" stroke="#494949"/><path d="m143.71 48.1334-.045 16.746-59.7334 34.7127.0507-16.746z" stroke="#494949"/><path d="m83.9818 82.8461-.0506 16.746-60.1158-34.707.0507-16.7517z" stroke="#494949"/><path d="m106.066 13.8988-22.1966 12.8984-22.343-12.8984 22.1967-12.89843z" stroke="#fff"/><path d="m106.067 13.8989-.067 23.6087-22.1973 12.8984.0675-23.6087z" stroke="#fff"/><path d="m83.8695 26.7973-.0675 23.6087-22.343-12.8984.0675-23.6087z" stroke="#fff"/></g></svg>