<svg fill="none" height="164" viewBox="0 0 136 164" width="136" xmlns="http://www.w3.org/2000/svg" xmlns:xlink="http://www.w3.org/1999/xlink"><mask id="a" height="164" maskUnits="userSpaceOnUse" width="70" x="66" y="0"><path d="m136 0h-69.3213v163.149h69.3213z" fill="#fff"/></mask><g stroke-miterlimit="10"><path d="m74.067 143.784c-.1149-.006-.2356-.012-.3504-.018-.4366-.028-.8675-.063-1.3041-.109-.1206-.011-.2355-.028-.3562-.04-.2814-.034-.5629-.069-.8387-.103-.1493-.023-.2987-.046-.4538-.069-.247-.04-.4941-.081-.7353-.121-.1724-.029-.339-.063-.5056-.098-.2125-.04-.4193-.08-.6319-.126-.1723-.034-.3447-.075-.517-.115-.2068-.046-.4136-.097-.6204-.149-.1781-.046-.3562-.092-.5285-.138-.1896-.052-.3734-.103-.563-.155-.1781-.052-.3562-.104-.5343-.161-.1838-.057-.3734-.115-.5572-.172-.1838-.058-.3619-.121-.5458-.184-.1665-.058-.3331-.115-.4997-.173-.1839-.068-.3677-.132-.5515-.201-.1666-.063-.3275-.126-.4941-.189-.1206-.046-.2355-.098-.3561-.144-.5917-.241-1.1777-.494-1.7579-.77-.0804-.04-.1609-.074-.2413-.114-.5802-.276-1.1547-.569-1.7234-.879-.0574-.035-.1149-.064-.1781-.098-.5859-.322-1.1719-.661-1.7464-1.017-.0229-.017-.0459-.029-.0746-.046-.586-.362-1.1605-.747-1.7349-1.143-.023-.017-.046-.034-.0747-.052-.5802-.408-1.1547-.833-1.7234-1.275-.0402-.035-.0862-.063-.1264-.098-.563-.442-1.1202-.902-1.666-1.373-.0517-.04-.0976-.086-.1493-.126-.5745-.5-1.1317-1.017-1.689-1.545-.0402-.041-.0804-.075-.1206-.11-.6089-.585-1.2064-1.194-1.7923-1.826 0 0-.0058-.006-.0115-.012-.2987-.322-.5917-.649-.8847-.976-.0919-.104-.1838-.213-.2758-.316-.201-.23-.3963-.46-.5917-.69-.0976-.115-.1953-.235-.2929-.356-.2068-.247-.4079-.5-.609-.752-.1091-.138-.2125-.27-.3217-.408-.1895-.247-.3849-.494-.5687-.747-.0977-.132-.1953-.264-.2987-.397-.3102-.419-.6204-.844-.9192-1.275 0-.006-.0115-.017-.0172-.023-.293-.425-.586-.856-.8732-1.292-.0747-.115-.1494-.236-.2298-.351-.3159-.488-.6262-.982-.9364-1.488-.0172-.034-.0402-.063-.0574-.097-.316-.529-.6262-1.063-.9306-1.603-.0632-.109-.1264-.224-.1896-.333-.3792-.684-.7526-1.379-1.1087-2.086-.0517-.097-.1034-.201-.1494-.298-.3562-.707-.7009-1.431-1.0398-2.16-.0459-.104-.0919-.207-.1436-.311-.3332-.735-.6549-1.487-.9709-2.246-.0459-.103-.0861-.212-.1263-.316-.3103-.764-.6032-1.534-.8905-2.315-.0402-.109-.0804-.212-.1149-.321-.2815-.788-.5515-1.58-.81-2.385-.0344-.109-.0689-.218-.1034-.327-.2527-.804-.494-1.62-.7238-2.447-.0287-.109-.0632-.224-.0919-.333-.2241-.828-.4424-1.661-.6377-2.505-.0287-.115-.0517-.23-.0804-.339-.1953-.844-.3791-1.7004-.5515-2.5621-.023-.1149-.0459-.2298-.0689-.339-.1666-.8674-.3217-1.7406-.4596-2.6196-.0172-.1148-.0345-.2297-.0574-.3446-.1379-.8847-.2586-1.7751-.3677-2.6771-.0172-.1206-.0287-.2355-.046-.3561-.0919-.8043-.1723-1.6143-.247-2.4243-.0115-.1379-.023-.2757-.0344-.4136-.069-.8158-.1207-1.6372-.1666-2.4645-.0058-.1666-.0173-.3332-.023-.494-.023-.4653-.0402-.9364-.0517-1.4075 0-.1838-.0115-.3676-.0173-.5515-.0114-.6319-.0229-1.2638-.0229-1.9014 0-.2413 0-.4826.0057-.7239 0-.4193.0115-.833.0172-1.2466 0-.2125.0115-.4193.0173-.6319.0115-.3964.0287-.787.0459-1.1776.0115-.2068.0173-.4194.0288-.6262.0172-.3389.0402-.6779.0631-1.0168.0115-.2126.0288-.4194.0403-.6319.0287-.3734.0574-.7526.0919-1.126.0115-.1608.023-.3217.0402-.4825.0976-1.0628.2125-2.1198.3504-3.1654 0-.0115 0-.0229 0-.0344.1321-.9939.2815-1.9819.4424-2.9585 0-.0173.0057-.0403.0114-.0575.1551-.9306.3332-1.8498.5171-2.7632 0-.0172.0057-.0344.0115-.0517.1838-.8789.3791-1.7464.5917-2.6081.0114-.0574.0287-.1206.0402-.1781.201-.81.4136-1.6085.6376-2.407.0288-.0976.0517-.1895.0805-.2872.2183-.7698.4538-1.5338.6951-2.2864.0344-.1149.0689-.224.1091-.3389.2413-.7411.4941-1.4764.7583-2.206.0402-.1149.0862-.2298.1264-.3504.27-.7353.5515-1.4649.8445-2.183.0459-.1091.0919-.2183.1378-.3332.2988-.7238.609-1.4419.9249-2.1485.046-.0977.0919-.2011.1379-.2987.3389-.7468.6951-1.4821 1.057-2.206.046-.0976.0977-.1895.1436-.2872.3792-.7468.7698-1.4764 1.1719-2.2002.0517-.0919.1035-.1839.1494-.27.4309-.7583.8675-1.5051 1.3213-2.2347.0574-.0919.1149-.1838.1666-.2757.201-.3217.4079-.6435.6147-.9594.0574-.0919.1149-.1838.178-.27.27-.4021.54-.8043.8158-1.1949.0574-.0862.1206-.1666.1781-.247.2413-.339.4825-.6779.7296-1.0111.0976-.1264.1895-.2585.2872-.3849.2298-.3044.4596-.6032.6951-.9019.0804-.1034.1608-.2068.247-.3102.3504-.4423.7066-.8732 1.0685-1.2983.0805-.0919.1609-.1838.2413-.2757.3217-.3735.6434-.7354.9766-1.0973.0632-.0689.1206-.1379.1838-.201.4883-.5286.9881-1.0398 1.4936-1.5396l.1781-.1781c.4998-.4883 1.0053-.9651 1.5166-1.4247.0747-.0689.1551-.1379.2298-.2068.3849-.3447.7755-.6779 1.1719-1.0053.0632-.0517.1322-.1092.2011-.1609.3389-.2815.6836-.5515 1.034-.8157.1034-.0804.2126-.1609.316-.2413.4079-.3045.8157-.6089 1.2294-.8962.0344-.0229.0689-.0459.1034-.0689.3848-.27.7755-.5285 1.1661-.7755.1149-.0747.2241-.1436.339-.2126.4021-.2527.81-.5055 1.2178-.741.023-.0115.046-.0288.0747-.046.4309-.247.8675-.4883 1.3041-.7181.1149-.0632.2297-.1206.3446-.1781.3849-.1953.7641-.3906 1.1547-.5687.069-.0345.1321-.0632.2011-.0977.4423-.2068.8904-.4021 1.3442-.5917.1149-.0459.2241-.0919.339-.1378.3791-.1551.7583-.2988 1.1374-.4366.0919-.0345.1896-.069.2815-.1034.4538-.1609.9192-.316 1.3787-.4596.1034-.0345.2126-.0632.316-.0977.3849-.1149.7698-.224 1.1604-.3274.1149-.0287.2241-.0575.339-.0862.471-.1149.9421-.224 1.4131-.3217.092-.0172.1839-.0344.27-.0517.4022-.0804.8043-.1493 1.2122-.2125.1264-.0173.247-.0402.3734-.0575.4825-.0689.9651-.1321 1.4534-.1838.0574-.0058.1206-.0115.1781-.0172.4366-.0403.8789-.0747 1.3155-.0977.1321-.0058.2585-.0172.3906-.023.4941-.023.9939-.0402 1.4936-.0402h-19.5893c-.4998 0-.9996.0172-1.4936.0402-.1322.0058-.2585.0115-.3907.023-.4423.023-.8789.0574-1.3155.0977-.0574 0-.1206.0114-.1781.0172-.4883.0517-.9708.1149-1.4534.1838-.1264.0173-.247.0402-.3734.0575-.4079.0632-.81.1378-1.2121.2125-.0919.0173-.1838.0345-.27.0517-.4768.0977-.9479.2068-1.4132.3217-.1149.0287-.224.0575-.3389.0862-.3907.1034-.7756.2125-1.1605.3274-.1034.0345-.2125.0632-.3159.0977-.4596.1436-.9192.2987-1.3788.4596-.0976.0344-.1895.0689-.2814.1034-.3792.1378-.7583.2872-1.1375.4366-.1149.0459-.2298.0919-.3389.1378-.4481.1896-.8962.3849-1.3443.5917-.0689.0288-.1321.0632-.201.0977-.3849.1838-.7698.3734-1.1547.5687-.1149.0575-.2298.1207-.3447.1781-.4366.2298-.8732.4711-1.304.7181-.023.0115-.046.0287-.0747.046-.4079.2412-.8158.4883-1.2179.741-.1149.069-.224.1436-.3389.2126-.3907.2527-.7813.5113-1.1662.7755-.0345.023-.0689.046-.1034.0689-.4136.2873-.8215.5917-1.2294.8962-.1091.0804-.2125.1609-.3159.2413-.3447.2642-.6894.54-1.0341.8157-.0689.0517-.1321.1092-.201.1609-.3964.3274-.7871.6606-1.1719 1.0053-.0345.0345-.0747.0632-.1092.0919-.0402.0345-.0804.0804-.1206.1149-.5113.4596-1.0226.9364-1.5166 1.4247-.0632.0574-.1207.1206-.1781.1781-.5056.4998-.9996 1.011-1.4936 1.5396-.0173.0172-.0345.0344-.046.0517-.0459.0517-.0919.1034-.1379.1551-.3274.3619-.6549.7238-.9766 1.0972-.0804.0919-.1608.1838-.2412.2757-.362.4251-.7181.856-1.0685 1.2983-.023.0288-.046.0575-.069.0862-.0574.0747-.1149.1551-.1781.2298-.2355.2987-.4653.5974-.6951.9019-.0976.1264-.1953.2585-.2872.3849-.247.3332-.4883.6664-.7296 1.0053-.0459.0632-.0919.1264-.1436.1953-.0115.0173-.0287.0403-.0402.0575-.2758.3906-.5458.7928-.8158 1.1949-.0574.0919-.1149.1838-.178.27-.2069.3159-.4137.6376-.6147.9593-.0287.046-.0632.092-.0919.1437-.0288.0459-.0517.0919-.0805.1321-.4538.7296-.8961 1.4764-1.3212 2.2347-.023.0459-.0517.0861-.0747.1264-.0287.0459-.0517.0976-.0747.1436-.4021.7181-.7928 1.4534-1.1719 2.2002-.023.0517-.0517.0976-.0804.1493-.023.046-.0403.092-.0632.1379-.3619.7238-.7124 1.4592-1.0571 2.206-.0229.0517-.0517.1091-.0746.1608-.023.046-.0402.0919-.0575.1379-.3217.7066-.6262 1.4247-.9249 2.1485-.023.0575-.0517.1149-.0747.1723-.0229.0518-.0402.1092-.0631.1609-.293.7181-.5745 1.4477-.8445 2.183-.023.0574-.046.1091-.0632.1666-.023.0574-.0402.1206-.0632.1838-.2643.7296-.517 1.4649-.7583 2.206-.0172.0459-.0345.0919-.046.1378-.0229.0632-.0402.1322-.0574.1954-.2413.7583-.4768 1.5165-.6951 2.2863-.0115.0345-.023.069-.0287.1034-.0173.0632-.0345.1264-.0517.1839-.2241.7927-.4366 1.597-.6377 2.407 0 .0172-.0115.0345-.0115.0517-.0115.0402-.0172.0862-.0287.1264-.2126.8617-.4079 1.7291-.5917 2.6081v.0115c0 .0114 0 .0229-.0058.0402-.1895.9134-.3619 1.8325-.517 2.7632 0 .0172-.0057.0287-.0057.0459v.0172c-.1666.9766-.316 1.9647-.4424 2.9586v.0229.0058c-.1378 1.0455-.2527 2.1025-.3504 3.1653v.0517c-.0115.1436-.023.2872-.0345.4366-.0344.3734-.0631.7468-.0919 1.126-.0172.2068-.0287.4193-.0402.6319-.023.3389-.0402.6778-.0632 1.0168 0 .0804-.0115.1608-.0172.2413-.0058.1263-.0115.2527-.0172.3791-.0173.3906-.0345.787-.046 1.1777-.0057.2125-.0115.4193-.0172.6319-.0115.4136-.0173.833-.0173 1.2466 0 .1321 0 .2642-.0057.4021v.3217c0 .6377.0115 1.2696.023 1.9015 0 .1838.0115.3677.0172.5515.0115.471.0287.9421.0517 1.4074 0 .1149.0057.2298.0115.3447 0 .0517.0057.1034.0115.1551.0402.8273.0976 1.6487.1666 2.4645.0115.1379.023.2757.0344.4136.069.8158.1494 1.62.2471 2.4243.0057.0517.0115.1034.0172.1608.0057.0689.0172.1321.0287.2011.1092.8962.2298 1.7923.3677 2.677.0172.1149.0345.2298.0574.3447.1379.8789.293 1.7579.4596 2.6196.023.1148.046.2297.0689.3389.1724.8617.3562 1.7179.5515 2.5619.0288.115.0517.23.0805.339.201.845.4136 1.678.6376 2.505.0287.115.0632.224.0919.333.2298.822.4711 1.637.7239 2.447.0344.109.0689.219.1034.328.2585.804.5285 1.597.81 2.384.0402.109.0804.212.1149.321.2872.782.5802 1.552.8904 2.316.0402.103.0862.212.1264.316.3102.758.6319 1.505.9708 2.246.023.051.0402.103.0632.149.023.052.0517.103.0747.161.3332.729.6779 1.448 1.0398 2.16.0517.098.1034.201.1493.299.362.706.7296 1.401 1.1088 2.085.0287.046.0517.098.0746.144.0345.063.0747.126.1092.189.3045.54.6147 1.074.9306 1.603.0173.034.0402.063.0575.098.3044.499.6147.993.9306 1.482.0402.063.0804.132.1264.195.0345.052.0689.103.1034.155.2872.437.5745.868.8732 1.293 0 .005.0115.017.0172.023.2988.43.609.856.9192 1.275.0344.046.0689.098.1034.144.0632.086.1264.166.1896.252.1895.253.3791.5.5687.747.1091.138.2125.276.3217.408.201.253.4079.506.6089.753.069.086.1379.172.2068.258.0288.035.0575.063.0805.098.1953.235.3963.465.5917.689.0919.104.1838.213.2757.316.293.333.586.655.8847.977 0 0 0 0 .0057.005.586.627 1.1834 1.236 1.7924 1.827.0115.012.0229.023.0344.035.0288.023.0575.046.0805.074.5514.535 1.1144 1.046 1.6889 1.546.0172.011.0287.028.046.046.0344.028.0689.051.1034.08.5457.471 1.1029.931 1.6659 1.373.0115.012.023.023.0402.035.0288.022.0632.045.0919.068.5688.443 1.1432.868 1.7234 1.276.0058 0 .0115.011.0173.011.0172.012.0344.023.0517.035.5687.396 1.1489.775 1.7349 1.143.0172.011.0344.023.0517.034.0057 0 .0115.006.0172.012.5745.356 1.1604.695 1.7464 1.017l.1206.069c.0173.011.0402.017.0575.028.5687.311 1.1432.598 1.7234.879.0517.023.0976.052.1436.075.0287.017.0632.029.0919.04.5802.276 1.1662.529 1.7579.77.0517.023.0976.046.1494.063.0689.029.1378.052.2068.081.1666.063.3274.126.494.189.1838.069.3677.138.5515.201.1666.058.3332.115.4998.173.1034.034.201.074.3044.109.0805.028.1609.051.2413.074.1839.058.3734.115.5573.173.178.051.3561.109.5342.161.1896.051.3734.103.563.155.1034.028.2068.057.3102.086.0747.017.1494.034.224.052.2069.051.4137.103.6205.149.1723.04.3446.08.517.115.2125.046.4194.086.6319.126.1149.023.2298.052.3504.069.0517.012.1034.017.1609.029.247.046.4883.08.7353.12.1494.023.2987.052.4538.069.2815.041.5573.075.8388.104.1034.011.2068.029.3102.04h.0459c.4309.046.8675.08 1.3041.109.1149.006.2355.012.3504.017.3217.018.6491.035.9708.041.0632 0 .1322.005.1954.005.224 0 .448.006.6721.006h19.5893c-.2929 0-.5802-.006-.8674-.017-.3274-.006-.6491-.023-.9708-.04z" fill="#000" stroke="#494949"/><path d="m1 7.1235h110.631v151.2685h-110.631zm55.3155 136.7175c24.6734 0 44.6705-27.345 44.6705-61.083 0-33.7385-19.9971-61.089-44.6705-61.089s-44.6764 27.3505-44.6764 61.089c0 33.738 20.003 61.083 44.6764 61.083z" fill="#000" stroke="#494949"/><path d="m131.22 7.1236h-19.589v151.2694h19.589z" fill="#494949" stroke="#1d1d1b"/><path d="m101.118 37.7715c15.896 3.8432 8.68 23.3349-16.1194 43.5332-24.7998 20.1983-57.7915 33.4513-73.687 29.6023-15.89552-3.843-8.6802-23.3349 16.1196-43.5274 24.7998-20.1983 57.7915-33.4513 73.6928-29.6081z" fill="#000" stroke="#fff"/><path d="m120.759 65.6273c0-.0517-.005-.0976-.005-.1436 0-.3159-.012-.6204-.041-.9249 0-.0459 0-.0919 0-.1321-.005-.0747-.023-.1379-.034-.2125-.029-.2471-.063-.4883-.109-.7239-.012-.0689-.018-.1378-.029-.201-.017-.0805-.04-.1609-.057-.2413-.012-.0575-.029-.1149-.041-.1724-.057-.2297-.126-.4538-.201-.6778-.005-.0173-.011-.0345-.023-.0517-.011-.0402-.028-.0747-.046-.1149-.074-.2068-.16-.4136-.258-.6147-.023-.0517-.046-.1034-.069-.1494-.017-.0344-.029-.0689-.046-.0976-.103-.2068-.213-.4021-.333-.5975l-11.197-18.2163c.138.224.265.4595.38.7008.023.0517.045.0977.068.1494.092.201.179.4078.259.6146.017.0403.029.0747.046.1149.086.2356.155.4826.224.7296.017.0575.029.1149.04.1724.035.1436.063.2929.086.4423.046.2355.081.4768.109.7238.012.1149.029.2298.041.3447.023.3045.034.6089.04.9249v.1723c0 .3734-.029.7583-.069 1.1547-.029.2815-.063.563-.103.8502-.012.0575-.018.1149-.029.1724-.046.2642-.098.5342-.155.8042-.017.069-.029.1436-.046.2126-.069.3159-.15.6319-.241.9536-.018.0689-.041.1379-.064.2068-.08.27-.166.5457-.258.8215-.029.0862-.058.1781-.086.2642-.121.3447-.247.6894-.385 1.0456 0 0 0 .0115-.006.0172-.138.3447-.281.6894-.437 1.0398-.051.1206-.109.2413-.16.3619-.115.2528-.236.5055-.362.7641-.064.1263-.121.2527-.184.3791-.127.2528-.259.5055-.397.7641-.074.1378-.143.2757-.218.4193-.166.3102-.345.6204-.528.9306-.052.0862-.092.1666-.144.2528-.126.2183-.264.4366-.402.6607-.127.2068-.253.4136-.385.6261-.144.2241-.293.4481-.442.6779-.138.2068-.27.4194-.414.6262-.046.0632-.092.1321-.138.1953-.293.4366-.603.8732-.919 1.3098-.121.1666-.247.3332-.373.5055-.253.3447-.517.6951-.787 1.0455-.178.2356-.362.4711-.552.7066-.109.1436-.224.2815-.333.4251-.264.3275-.534.6549-.81.9881-.075.0919-.1495.1839-.2299.2815-.3562.4194-.7181.8445-1.0915 1.2753-.0919.1092-.1953.2183-.2872.3275-.2643.2987-.5343.6032-.81.9019-.3217.3562-.6549.7066-.9881 1.0628-.1551.1666-.3045.3274-.4596.494-.494.5228-.9995 1.0455-1.5223 1.5683-.0345.0345-.0689.0689-.1034.0977-.4883.494-.9938.988-1.5051 1.4821-.1781.1723-.3677.3504-.5515.5228-.3734.3561-.7526.7123-1.1375 1.0742-.2068.1896-.4136.3849-.6261.5745-.4251.3849-.8502.7755-1.2868 1.1604-.2126.1896-.4309.3849-.6492.5745-.4883.4308-.9823.8559-1.4879 1.2868-.1665.1436-.3274.2815-.494.4251-.6262.5285-1.2638 1.057-1.913 1.5913-1.0053.8157-2.0221 1.62-3.0504 2.4127-.316.2471-.6377.4883-.9536.7296-.5113.3849-1.0226.7698-1.5396 1.1489-.3734.2758-.7468.5515-1.1259.8273-.3964.2872-.7928.5687-1.1892.8559-.4366.3102-.8732.6205-1.3155.9249-.3102.2183-.6205.4309-.9364.6492-.4883.3389-.9824.6721-1.4764.9995-.2815.1896-.5687.3792-.8502.5688-.5745.3791-1.1489.7525-1.7234 1.1259-.2011.1322-.4021.2643-.6032.3907-.7813.4998-1.5683.9938-2.3611 1.4763-.1666.1035-.3332.2011-.4998.3045-.6261.3792-1.2523.7583-1.8785 1.1317-.3102.1838-.6261.3677-.9363.5458-.4998.2929-.9996.5802-1.4994.8674-.3447.1953-.6836.3849-1.0283.5802-.4711.2643-.9421.5228-1.4132.7813-.3849.2126-.7698.4194-1.1604.6262-.4481.2413-.8962.4768-1.35.7123-.3964.2068-.7928.4136-1.1892.6147-.4423.224-.8789.4476-1.3212.6666-.4194.207-.833.413-1.2524.62-.4251.207-.8502.414-1.2753.615-.4423.212-.8789.419-1.3213.626-.4136.195-.8272.385-1.2408.575-.4596.206-.9134.413-1.3673.614-.3964.178-.7985.351-1.1949.523-.5055.218-1.0053.431-1.5108.638-.3734.155-.7468.31-1.1145.459-.5859.236-1.1662.466-1.7406.69-.316.12-.6319.252-.9479.367-.9306.351-1.8498.695-2.7632 1.017-.7181.253-1.4304.494-2.1428.73-.178.057-.3561.115-.5342.172-.5745.19-1.1489.368-1.7177.54-.1666.052-.3389.103-.5055.155-.7008.213-1.396.408-2.0853.598-.3734.103-.7411.195-1.1087.287-.3907.103-.7871.207-1.172.298-.3676.092-.7238.167-1.0857.253-.3964.092-.7985.19-1.1891.27-.092.017-.1839.04-.2758.058-.6606.138-1.3155.264-1.9589.379-.0173 0-.0288.006-.046.011-.6491.115-1.2868.219-1.913.305-.0976.011-.1953.029-.2872.04-.6032.086-1.1892.155-1.7751.218-.1092.012-.2183.023-.3275.035-.5802.057-1.1546.103-1.7176.143-.0862 0-.1666.012-.247.012-.586.034-1.1605.057-1.7234.063-.0058 0-.0115 0-.0173 0-.563.006-1.1144 0-1.6544-.017-.0805 0-.1609 0-.2413-.006-.5113-.023-1.0111-.057-1.4994-.103-.0919-.006-.1838-.018-.2757-.029-.4883-.052-.9594-.109-1.4247-.184-.0689-.011-.1379-.023-.2068-.034-.4826-.081-.9536-.173-1.4075-.282-3.45826-.833-5.81932-2.413-7.14634-4.573l11.19634 18.217c1.3271 2.16 3.6939 3.734 7.1464 4.573.4539.109.9249.201 1.4075.287.0689.011.1378.023.2068.034.4653.075.9364.138 1.4247.184.0919.012.1838.017.2757.029.4883.046.9881.08 1.4994.103.0804 0 .1608 0 .2412.006.54.017 1.0858.029 1.6545.017h.023c.563-.006 1.1374-.034 1.7176-.063.0805 0 .1609-.006.2471-.011.5629-.035 1.1374-.087 1.7176-.144.1092-.012.2183-.023.3275-.035.5859-.063 1.1776-.132 1.7751-.218.0919-.011.1896-.029.2872-.04.6319-.092 1.2696-.19 1.9187-.31.0115 0 .0288 0 .0403-.006.6434-.115 1.2983-.247 1.9646-.385.092-.017.1839-.034.2758-.057.0632-.012.1264-.023.1896-.041.3331-.069.6721-.155 1.0053-.235.3619-.081.7181-.161 1.08-.247.3906-.098.787-.201 1.1834-.305.3676-.097.7296-.183 1.0972-.287.046-.011.0862-.023.1321-.034.6434-.178 1.2983-.368 1.9532-.563.1666-.052.3332-.104.4998-.155.3849-.121.7755-.236 1.1662-.357.1838-.057.3734-.12.5572-.183.1781-.058.3505-.115.5285-.173.7066-.235 1.4132-.471 2.1313-.724h.0115c.9134-.321 1.8383-.66 2.7632-1.016.0747-.029.1493-.052.2298-.087.2413-.091.4883-.195.7296-.287.5744-.224 1.1546-.454 1.7348-.689.1322-.058.27-.104.4022-.161.2412-.098.4825-.207.7181-.304.4997-.207.9995-.42 1.5051-.638.1781-.075.3504-.144.5227-.224.2241-.098.4481-.201.6722-.299.4538-.201.9076-.402 1.3672-.615.2011-.092.3964-.178.5974-.27.2126-.097.4309-.206.6492-.304.4366-.207.8789-.414 1.3155-.62.2126-.104.4251-.196.6377-.299.2183-.104.4308-.213.6491-.322.4136-.201.833-.408 1.2466-.615.2126-.109.4251-.206.6377-.316.2298-.114.4538-.235.6836-.35.3964-.201.7928-.408 1.1892-.615.201-.103.4021-.206.6031-.31.2471-.132.4998-.27.7469-.402.3848-.207.7697-.414 1.1546-.626.1781-.098.3619-.195.54-.293.293-.161.5802-.328.8732-.488.3447-.19.6836-.385 1.0283-.581.1436-.08.2815-.155.4251-.241.3619-.207.7181-.419 1.0743-.626.3102-.184.6261-.362.9364-.546.0919-.052.1838-.103.2757-.161.54-.321 1.08-.649 1.6143-.976.1608-.098.3274-.196.4883-.293.0229-.018.0517-.029.0746-.046.7181-.443 1.4305-.885 2.1428-1.339.046-.028.0977-.063.1436-.092.2011-.126.3964-.258.5975-.385.4481-.287.8961-.574 1.3385-.867.1321-.086.2585-.172.3906-.258.2873-.19.5687-.38.8502-.569.2873-.196.5802-.385.8675-.58.201-.138.4021-.282.6089-.42.3102-.212.6262-.431.9364-.649.2011-.144.4079-.281.6089-.419.2356-.167.4654-.339.7009-.506.3964-.281.7928-.569 1.1891-.856.1724-.126.3505-.247.5228-.373.2011-.15.4021-.305.6032-.454.5113-.379 1.0226-.764 1.5338-1.149.1953-.149.3907-.287.5802-.437.1264-.097.2471-.201.3734-.298 1.0283-.793 2.0509-1.597 3.0505-2.4131.6491-.5285 1.2868-1.057 1.9129-1.5912.0345-.0288.0747-.0632.1149-.0919.1322-.1092.2528-.2183.3849-.3332.5056-.4309.9996-.856 1.4877-1.2868.218-.1896.431-.3849.649-.5745.437-.3906.868-.7755 1.287-1.1604.127-.1149.259-.2298.385-.3447.08-.0747.161-.1494.241-.2241.385-.3561.764-.718 1.138-1.0742.184-.1724.367-.3504.551-.5228.512-.494 1.017-.9881 1.505-1.4821.035-.0345.069-.0689.104-.0977.523-.5227 1.028-1.0455 1.522-1.5683.155-.1666.305-.3274.46-.494.333-.3562.666-.7124.988-1.0628.063-.0689.126-.1378.189-.2068.213-.2355.414-.4653.621-.7008.097-.1092.195-.2183.287-.3275.373-.4251.735-.8502 1.092-1.2753.08-.0919.155-.1838.229-.2757.276-.3332.546-.6607.81-.9881.115-.1379.224-.2815.333-.4194.115-.1436.23-.2872.339-.4308.075-.092.138-.1839.213-.2815.27-.3505.528-.6951.781-1.0398.127-.1666.253-.339.374-.5055.316-.4366.62-.8732.919-1.3041.04-.0574.08-.1149.12-.1723.006-.0115.012-.0173.018-.0288.138-.2068.27-.4078.402-.6146.149-.2298.304-.4596.448-.6894.132-.2068.253-.4079.373-.6147.132-.2125.265-.4251.391-.6376.006-.0115.011-.023.017-.0345.052-.0862.092-.1666.144-.247.184-.316.362-.6262.528-.9364.075-.1379.144-.2758.219-.4136.097-.1781.195-.3619.287-.54.04-.0747.074-.1551.115-.2298.063-.1264.12-.2528.184-.3734.126-.2585.247-.5113.361-.7698.052-.1206.11-.2413.161-.3562.029-.0632.058-.1206.081-.1838.126-.2872.241-.5745.356-.856 0 0 0-.0115.006-.0172.115-.2872.224-.5745.321-.8617.023-.0632.041-.1206.064-.1838.028-.0862.057-.1781.086-.2643.092-.2757.178-.5515.258-.8215.017-.0689.04-.1378.063-.2068.012-.0287.018-.0632.029-.0919.081-.293.15-.5802.213-.8617.017-.0689.028-.1436.046-.2126.028-.1263.057-.2527.08-.3734.029-.1436.052-.2872.075-.4308.011-.0575.023-.1149.028-.1724.041-.2585.075-.5112.104-.7583 0-.0287 0-.0574 0-.0919.04-.3906.063-.7755.069-1.1546 0-.0115 0-.0173 0-.0288z" fill="#000" stroke="#fff"/><g mask="url(#a)"><path d="m74.067 143.784c-.1149-.006-.2356-.012-.3504-.017-.4366-.029-.8675-.064-1.3041-.11-.1206-.011-.2355-.028-.3562-.04-.2814-.034-.5629-.069-.8387-.103-.1493-.023-.2987-.046-.4538-.069-.247-.04-.4941-.081-.7353-.121-.1724-.028-.339-.063-.5056-.097-.2125-.041-.4193-.081-.6319-.127-.1723-.034-.3447-.074-.517-.115-.2068-.046-.4136-.097-.6204-.149-.1781-.046-.3562-.092-.5285-.138-.1896-.052-.3734-.103-.563-.155-.1781-.052-.3562-.103-.5343-.161-.1838-.057-.3734-.115-.5572-.172-.1838-.058-.3619-.121-.5458-.184-.1665-.058-.3331-.115-.4997-.172-.1839-.069-.3677-.133-.5515-.201-.1666-.064-.3275-.127-.4941-.19-.1206-.046-.2355-.098-.3561-.144-.5917-.241-1.1777-.494-1.7579-.769-.0804-.041-.1609-.075-.2413-.115-.5802-.276-1.1547-.569-1.7234-.879-.0574-.035-.1149-.063-.1781-.098-.5859-.322-1.1719-.661-1.7464-1.017-.0229-.017-.0459-.028-.0746-.046-.586-.362-1.1605-.747-1.7349-1.143-.023-.017-.046-.034-.0747-.052-.5802-.407-1.1547-.833-1.7234-1.275-.0402-.034-.0862-.063-.1264-.098-.563-.442-1.1202-.901-1.666-1.373-.0517-.04-.0976-.086-.1493-.126-.5745-.5-1.1317-1.017-1.689-1.545-.0402-.04-.0804-.075-.1206-.109-.6089-.586-1.2064-1.195-1.7923-1.827 0 0-.0058-.006-.0115-.012-.2987-.321-.5917-.649-.8847-.976-.0919-.104-.1838-.213-.2758-.316-.201-.23-.3963-.46-.5917-.69-.0976-.115-.1953-.235-.2929-.356-.2068-.247-.4079-.5-.609-.752-.1091-.138-.2125-.27-.3217-.408-.1895-.247-.3849-.494-.5687-.747-.0977-.132-.1953-.264-.2987-.396-.3102-.42-.6204-.845-.9192-1.276 0-.005-.0115-.017-.0172-.023-.293-.425-.586-.856-.8732-1.292-.0747-.115-.1494-.236-.2298-.351-.3159-.488-.6262-.982-.9364-1.488-.0172-.034-.0402-.063-.0574-.097-.316-.529-.6262-1.063-.9306-1.603-.0632-.109-.1264-.224-.1896-.333-.3792-.684-.7526-1.379-1.1087-2.085-.0517-.098-.1034-.202-.1494-.299-.3562-.707-.7009-1.431-1.0398-2.16-.0459-.104-.0919-.207-.1436-.31-.3332-.736-.6549-1.488-.9709-2.247-.0459-.103-.0861-.212-.1263-.316-.3103-.764-.6032-1.533-.8905-2.315-.0402-.109-.0804-.212-.1149-.321-.2815-.787-.5515-1.58-.81-2.384-.0344-.11-.0689-.219-.1034-.328-.2527-.804-.494-1.62-.7238-2.447-.0287-.109-.0632-.224-.0919-.333-.2241-.828-.4424-1.66-.6377-2.505-.0287-.115-.0517-.23-.0804-.339-.1953-.844-.3791-1.7003-.5515-2.562-.023-.1149-.0459-.2298-.0689-.339-.1666-.8674-.3217-1.7406-.4596-2.6195-.0172-.1149-.0345-.2298-.0574-.3447-.1379-.8847-.2586-1.7751-.3677-2.677-.0172-.1207-.0287-.2356-.046-.3562-.0919-.8043-.1723-1.6143-.247-2.4243-.0115-.1378-.023-.2757-.0344-.4136-.069-.8157-.1207-1.6372-.1666-2.4644-.0058-.1666-.0173-.3332-.023-.4941-.023-.4653-.0402-.9364-.0517-1.4074 0-.1839-.0115-.3677-.0173-.5515-.0114-.6319-.0229-1.2639-.0229-1.9015 0-.2413 0-.4826.0057-.7238 0-.4194.0115-.833.0172-1.2466 0-.2126.0115-.4194.0173-.632.0115-.3963.0287-.787.0459-1.1776.0115-.2068.0173-.4194.0288-.6262.0172-.3389.0402-.6779.0631-1.0168.0115-.2126.0288-.4194.0403-.6319.0287-.3734.0574-.7526.0919-1.126.0115-.1608.023-.3217.0402-.4825.0976-1.0628.2125-2.1198.3504-3.1653 0-.0115 0-.023 0-.0345.1321-.9938.2815-1.9819.4424-2.9585 0-.0173.0057-.0402.0114-.0575.1551-.9306.3332-1.8498.5171-2.7632 0-.0172.0057-.0344.0115-.0517.1838-.8789.3791-1.7463.5917-2.608.0114-.0575.0287-.1207.0402-.1781.201-.81.4136-1.6085.6376-2.4071.0288-.0976.0517-.1895.0805-.2872.2183-.7698.4538-1.5338.6951-2.2864.0344-.1149.0689-.224.1091-.3389.2413-.7411.4941-1.4764.7583-2.206.0402-.1149.0862-.2298.1264-.3504.27-.7353.5515-1.4649.8445-2.183.0459-.1091.0919-.2183.1378-.3332.2988-.7238.609-1.4419.9249-2.1485.046-.0976.0919-.201.1379-.2987.3389-.7468.6951-1.4821 1.057-2.2059.046-.0977.0977-.1896.1436-.2873.3792-.7468.7698-1.4764 1.1719-2.2002.0517-.0919.1035-.1838.1494-.27.4309-.7583.8675-1.5051 1.3213-2.2347.0574-.0919.1149-.1838.1666-.2757.201-.3217.4079-.6434.6147-.9594.0574-.0919.1149-.1838.178-.27.27-.4021.54-.8042.8158-1.1949.0574-.0861.1206-.1666.1781-.247.2413-.3389.4825-.6779.7296-1.0111.0976-.1263.1895-.2585.2872-.3849.2298-.3044.4596-.6031.6951-.9019.0804-.1034.1608-.2068.247-.3102.3504-.4423.7066-.8732 1.0685-1.2983.0805-.0919.1609-.1838.2413-.2757.3217-.3734.6434-.7353.9766-1.0973.0632-.0689.1206-.1378.1838-.201.4883-.5285.9881-1.0398 1.4936-1.5396.0575-.0574.1207-.1206.1781-.1781.4998-.4883 1.0053-.9651 1.5166-1.4247.0747-.0689.1551-.1378.2298-.2068.3849-.3447.7755-.6778 1.1719-1.0053.0632-.0517.1322-.1091.2011-.1608.3389-.2815.6836-.5515 1.034-.8158.1034-.0804.2126-.1608.316-.2413.4079-.3044.8157-.6089 1.2294-.8961.0344-.023.0689-.046.1034-.069.3848-.27.7755-.5285 1.1661-.7755.1149-.0747.2241-.1436.339-.2126.4021-.2527.81-.5055 1.2178-.741.023-.0115.046-.0287.0747-.046.4309-.247.8675-.4883 1.3041-.7181.1149-.0632.2297-.1206.3446-.178.3849-.1954.7641-.3907 1.1547-.5688.069-.0344.1321-.0632.2011-.0976.4423-.2068.8904-.4022 1.3442-.5917.1149-.046.2241-.0919.339-.1379.3791-.1551.7583-.2987 1.1374-.4366.0919-.0345.1896-.0689.2815-.1034.4538-.1609.9192-.316 1.3787-.4596.1034-.0344.2126-.0632.316-.0976.3849-.1149.7698-.2241 1.1604-.3275.1149-.0287.2241-.0574.339-.0862.471-.1148.9421-.224 1.4131-.3217.092-.0172.1839-.0344.27-.0517.4022-.0804.8043-.1493 1.2122-.2125.1264-.0172.247-.0402.3734-.0575.4825-.0689.9651-.1321 1.4534-.1838.0574-.0057.1206-.0115.1781-.0172.4366-.0402.8789-.0747 1.3155-.0977.1321-.0057.2585-.0172.3906-.023.4941-.0229.9939-.0402 1.4936-.0402h-19.5893c-.4998 0-.9996.0173-1.4936.0402-.1322.0058-.2585.0115-.3907.023-.4423.023-.8789.0575-1.3155.0977-.0574 0-.1206.0115-.1781.0172-.4883.0517-.9708.1149-1.4534.1838-.1264.0173-.247.0403-.3734.0575-.4079.0632-.81.1379-1.2121.2125-.0919.0173-.1838.0345-.27.0517-.4768.0977-.9479.2069-1.4132.3217-.1149.0288-.224.0575-.3389.0862-.3907.1034-.7756.2126-1.1605.3275-.1034.0344-.2125.0632-.3159.0976-.4596.1436-.9192.2987-1.3788.4596-.0976.0345-.1895.0689-.2814.1034-.3792.1379-.7583.2872-1.1375.4366-.1149.046-.2298.0919-.3389.1379-.4481.1895-.8962.3849-1.3443.5917-.0689.0287-.1321.0632-.201.0976-.3849.1839-.7698.3734-1.1547.5688-.1149.0574-.2298.1206-.3447.178-.4366.2298-.8732.4711-1.304.7181-.023.0115-.046.0287-.0747.046-.4079.2413-.8158.4883-1.2179.741-.1149.069-.224.1437-.3389.2126-.3907.2528-.7813.5113-1.1662.7755-.0345.023-.0689.046-.1034.069-.4136.2872-.8215.5917-1.2294.8961-.1091.0805-.2125.1609-.3159.2413-.3447.2643-.6894.54-1.0341.8158-.0689.0517-.1321.1091-.201.1608-.3964.3275-.7871.6606-1.1719 1.0053-.0345.0345-.0747.0632-.1092.0919-.0402.0345-.0804.0805-.1206.1149-.5113.4596-1.0226.9364-1.5166 1.4247-.0632.0575-.1207.1207-.1781.1781-.5056.4998-.9996 1.0111-1.4936 1.5396-.0173.0172-.0345.0344-.046.0517-.0459.0517-.0919.1034-.1379.1551-.3274.3619-.6549.7238-.9766 1.0972-.0804.0919-.1608.1838-.2412.2758-.362.4251-.7181.8559-1.0685 1.2983-.023.0287-.046.0574-.069.0861-.0574.0747-.1149.1551-.1781.2298-.2355.2987-.4653.5975-.6951.9019-.0976.1264-.1953.2585-.2872.3849-.247.3332-.4883.6664-.7296 1.0053-.0459.0632-.0919.1264-.1436.1954-.0115.0172-.0287.0402-.0402.0574-.2758.3906-.5458.7928-.8158 1.1949-.0574.0919-.1149.1838-.178.27-.2069.316-.4137.6377-.6147.9594-.0287.0459-.0632.0919-.0919.1436-.0288.0459-.0517.0919-.0805.1321-.4538.7296-.8961 1.4764-1.3212 2.2347-.023.046-.0517.0862-.0747.1264-.0287.0459-.0517.0976-.0747.1436-.4021.7181-.7928 1.4534-1.1719 2.2002-.023.0517-.0517.0977-.0804.1494-.023.0459-.0403.0919-.0632.1378-.3619.7239-.7124 1.4592-1.0571 2.206-.0229.0517-.0517.1091-.0746.1608-.023.046-.0402.092-.0575.1379-.3217.7066-.6262 1.4247-.9249 2.1485-.023.0575-.0517.1149-.0747.1724-.0229.0517-.0402.1091-.0631.1608-.293.7181-.5745 1.4477-.8445 2.183-.023.0574-.046.1092-.0632.1666-.023.0574-.0402.1206-.0632.1838-.2643.7296-.517 1.4649-.7583 2.206-.0172.0459-.0345.0919-.046.1379-.0229.0631-.0402.1321-.0574.1953-.2413.7583-.4768 1.5166-.6951 2.2864-.0115.0344-.023.0689-.0287.1034-.0173.0632-.0345.1263-.0517.1838-.2241.7928-.4366 1.597-.6377 2.407 0 .0172-.0115.0345-.0115.0517-.0115.0402-.0172.0862-.0287.1264-.2126.8617-.4079 1.7291-.5917 2.6081v.0115c0 .0115 0 .0229-.0058.0402-.1895.9134-.3619 1.8325-.517 2.7632 0 .0172-.0057.0287-.0057.0459v.0173c-.1666.9766-.316 1.9647-.4424 2.9585v.023.0057c-.1378 1.0455-.2527 2.1026-.3504 3.1653v.0517c-.0115.1436-.023.2873-.0345.4366-.0344.3734-.0631.7468-.0919 1.126-.0172.2068-.0287.4193-.0402.6319-.023.3389-.0402.6779-.0632 1.0168 0 .0804-.0115.1609-.0172.2413-.0058.1264-.0115.2527-.0172.3791-.0173.3907-.0345.787-.046 1.1777-.0057.2125-.0115.4194-.0172.6319-.0115.4136-.0173.833-.0173 1.2466 0 .1321 0 .2643-.0057.4021v.3217c0 .6377.0115 1.2696.023 1.9015 0 .1838.0115.3677.0172.5515.0115.4711.0287.9421.0517 1.4075 0 .1148.0057.2297.0115.3446 0 .0517.0057.1034.0115.1551.0402.8273.0976 1.6488.1666 2.4645.0115.1379.023.2758.0344.4136.069.8158.1494 1.62.2471 2.4243.0057.0517.0115.1034.0172.1608.0057.069.0172.1322.0287.2011.1092.8962.2298 1.7923.3677 2.677.0172.1149.0345.2298.0574.3447.1379.8789.293 1.7579.4596 2.6196.023.1149.046.2298.0689.3389.1724.8617.3562 1.7178.5515 2.5618.0288.115.0517.23.0805.339.201.845.4136 1.678.6376 2.505.0287.115.0632.224.0919.333.2298.822.4711 1.637.7239 2.447.0344.11.0689.219.1034.328.2585.804.5285 1.597.81 2.384.0402.109.0804.212.1149.322.2872.781.5802 1.551.8904 2.315.0402.103.0862.212.1264.316.3102.758.6319 1.505.9708 2.246.023.052.0402.103.0632.149.023.052.0517.104.0747.161.3332.73.6779 1.448 1.0398 2.16.0517.098.1034.201.1493.299.362.706.7296 1.401 1.1088 2.085.0287.046.0517.098.0746.144.0345.063.0747.126.1092.189.3045.54.6147 1.075.9306 1.603.0173.034.0402.063.0575.098.3044.499.6147.994.9306 1.482.0402.063.0804.132.1264.195.0345.052.0689.104.1034.155.2872.437.5745.868.8732 1.293 0 .006.0115.017.0172.023.2988.431.609.856.9192 1.275.0344.046.0689.098.1034.144.0632.086.1264.166.1896.252.1895.253.3791.5.5687.747.1091.138.2125.276.3217.408.201.253.4079.506.6089.753.069.086.1379.172.2068.258.0288.035.0575.063.0805.098.1953.235.3963.465.5917.689.0919.104.1838.213.2757.316.293.333.586.655.8847.977 0 0 0 0 .0057.006.586.626 1.1834 1.235 1.7924 1.826.0115.012.0229.023.0344.035.0288.023.0575.046.0805.074.5514.535 1.1144 1.046 1.6889 1.546.0172.011.0287.029.046.046.0344.028.0689.051.1034.08.5457.471 1.1029.931 1.6659 1.373.0115.012.023.023.0402.035.0288.023.0632.046.0919.069.5688.442 1.1432.867 1.7234 1.275.0058 0 .0115.011.0173.011.0172.012.0344.023.0517.035.5687.396 1.1489.775 1.7349 1.143.0172.012.0344.023.0517.035.0057 0 .0115.005.0172.011.5745.356 1.1604.695 1.7464 1.017l.1206.069c.0173.011.0402.017.0575.028.5687.311 1.1432.598 1.7234.879.0517.023.0976.052.1436.075.0287.017.0632.029.0919.04.5802.276 1.1662.529 1.7579.77.0517.023.0976.046.1494.063.0689.029.1378.052.2068.081.1666.063.3274.126.494.189.1838.069.3677.138.5515.201.1666.058.3332.115.4998.173.1034.034.201.074.3044.109.0805.029.1609.052.2413.075.1839.057.3734.114.5573.172.178.052.3561.109.5342.161.1896.051.3734.103.563.155.1034.029.2068.057.3102.086.0747.017.1494.034.224.052.2069.051.4137.103.6205.149.1723.04.3446.08.517.115.2125.046.4194.086.6319.126.1149.023.2298.052.3504.069.0517.012.1034.017.1609.029.247.046.4883.08.7353.121.1494.023.2987.051.4538.069.2815.04.5573.074.8388.103.1034.011.2068.029.3102.04h.0459c.4309.046.8675.081 1.3041.109.1149.006.2355.012.3504.018.3217.017.6491.034.9708.04.0632 0 .1322.006.1954.006.224 0 .448.005.6721.005h19.5893c-.2929 0-.5802-.006-.8674-.017-.3274-.006-.6491-.023-.9708-.04z" fill="#494949" stroke="#1d1d1b"/><g fill="#000" stroke="#494949"><path d="m1 7.12363h110.631v151.26937h-110.631zm55.3155 136.71737c24.6734 0 44.6705-27.344 44.6705-61.0829 0-33.7385-19.9971-61.0889-44.6705-61.0889s-44.6764 27.3504-44.6764 61.0889c0 33.7389 20.003 61.0829 44.6764 61.0829z"/><path d="m131.22 7.12372h-19.589v151.26928h19.589z"/></g></g></g></svg>