<svg fill="none" height="102" viewBox="0 0 183 102" width="183" xmlns="http://www.w3.org/2000/svg"><g fill="#000" stroke-linecap="round" stroke-linejoin="round"><g stroke="#494949"><path d="m149.013 26.1564 27.482-3.5564-.383 54.3928-27.312-5.4703z"/><path d="m181.602 76.4841-5.49.5087.383-54.3928 5.504.4119z"/><path d="m115.077 23.4383 31.974-5.01-.465 64.282-31.741-7.2291z"/><path d="m153.006 82.0078-6.42.7026.465-64.2819 6.444.5862z"/><path d="m78.5586 19.9834 36.8534-6.8754-.558 75.363-36.5474-9.4191z"/><path d="m122.291 87.5215-7.437.9497.557-75.363 7.476.814z"/><path d="m38.7694 15.6856 42.4928-9.38042-.6783 88.55182-42.0859-12.2924z"/><path d="m89.2037 93.5633-8.6197 1.2937.6783-88.55182 8.6682 1.12894z"/></g><path d="m48.2613 1-.7365 99.856-46.68398-14.8897.25195-73.1342z" stroke="#fff"/><path d="m57.1325 99.2325-9.6081 1.6235.7365-99.856122 9.6614 1.443882z" stroke="#fff"/></g></svg>