<svg fill="none" height="142" viewBox="0 0 152 142" width="152" xmlns="http://www.w3.org/2000/svg"><g fill="#000" stroke-linecap="round" stroke-linejoin="round"><path d="m89.3545 20.7571c.055-.0733.1054-.1421.1604-.2154.2841-.3804.5637-.7516.8478-1.1182.1284-.1696.2567-.3346.385-.4996.1008-.1283.1971-.2566.2979-.3804.1604-.2062.3208-.4078.4812-.6095.0917-.1146.1788-.2291.2704-.3391.1833-.2292.3621-.4492.5408-.6737.0642-.0825.1329-.165.1971-.2475.2429-.2979.4812-.5866.7195-.8753.3437-.4079.6783-.8021 1.0128-1.1916.0825-.0963.165-.1925.2475-.2842.3162-.362.6279-.7149.9395-1.0586.0229-.0229.0413-.0504.0642-.0733.3299-.3621.6507-.7058.9716-1.045.0779-.0825.1604-.1649.2383-.2474.3024-.3163.6049-.6279.9028-.9258.0183-.0183.0367-.0412.055-.0596.3116-.3116.6187-.6095.9258-.8982.0779-.07336.1512-.14211.2291-.21543.2887-.2704.5775-.53621.8616-.78827.0138-.01375.0321-.0275.0458-.04125.2984-.26122.5864-.50871.8754-.74702.073-.05958.142-.11915.215-.17415.275-.22456.55-.43996.821-.6462.013-.00916.027-.01833.036-.03208.28-.21081.555-.4033.825-.5912.069-.04583.138-.09166.202-.13749.261-.17415.518-.34372.774-.49954.01-.00458.019-.01375.028-.01833.261-.15582.518-.30248.77-.43538.064-.03208.124-.06416.188-.09624.247-.12833.49-.24748.724-.34831.005 0 .009-.00458.018-.00916.243-.10541.477-.19249.711-.27498.059-.01833.114-.04125.174-.05958.229-.07333.453-.14207.673-.19248h.01c.22-.05041.435-.08708.65-.10999.055-.00459.106-.01375.156-.01833.211-.01834.417-.03209.619-.0275.591.01375 1.132.1329 1.618.35747l-7.695-3.55179c-.486-.22456-1.027-.34372-1.618-.35747-.202 0-.408.00917-.6185.0275-.0505.00458-.1055.00916-.1559.01833-.2108.0275-.4262.05958-.6507.10999 0 0-.0046 0-.0092 0-.22.05041-.4446.11916-.6737.19248-.0596.01834-.1146.03667-.1742.05958-.2337.0825-.4674.16957-.7103.27498-.0046 0-.0092.00458-.0183.00917-.2384.1054-.4813.22456-.7242.3483-.0641.03208-.1237.06416-.1879.09624-.252.13291-.5087.27498-.7699.43538-.0092.00459-.0183.01375-.0275.01833-.2521.15582-.5133.32081-.7745.49955-.0688.04583-.1329.09165-.2017.13748-.2704.18791-.5453.38039-.8249.59121-.0137.00916-.0275.01833-.0367.03208-.2704.20165-.5407.42163-.8203.64619-.0733.05958-.1421.11458-.2154.17415-.2887.23832-.5775.4858-.8753.74702-.0184.01375-.0321.03209-.0505.04583-.2841.25207-.5682.5133-.8616.78369-.0733.06874-.1512.14207-.2291.2154-.3071.28872-.6141.58662-.9258.89826-.0183.01833-.0366.04124-.055.05957-.2978.2979-.6003.60496-.9028.92576-.0779.0825-.1604.16499-.2383.25206-.3208.33914-.6462.68745-.9716 1.04492-.0229.02291-.0458.05041-.0687.07791-.3071.33914-.6233.69664-.935 1.05404-.0825.0963-.1649.1925-.252.2888-.3346.3849-.6737.7791-1.0129 1.1915-.0045.0046-.0091.0138-.0137.0184-.2337.2795-.472.5682-.7058.857-.0641.0779-.1283.1604-.1925.2383-.1833.2246-.362.4491-.5453.6783-.0917.1145-.1788.2291-.2704.3391-.1604.2017-.3208.4033-.4812.6095-.1009.1284-.1971.2521-.2979.3804-.0825.1054-.1604.2063-.2429.3117-.0459.0595-.0963.1237-.1421.1879-.2796.3666-.5591.7332-.8433 1.1136-.055.0733-.1099.1467-.1649.22-.3346.4491-.6692.9028-1.0083 1.3703-.0275.0412-.0596.0779-.0871.1192-.0412.0595-.087.1237-.1283.1833-.4354.6003-.8753 1.2145-1.3199 1.8469-.1833.2567-.362.5179-.5454.7791-.3574.5133-.7149 1.0358-1.0724 1.5628-.0687.1008-.1375.2016-.2016.3025-.1788.2658-.3575.527-.5362.7974-.1742.2612-.3483.5316-.5225.7929-.2795.4216-.5545.8432-.8341 1.2694-.11.1696-.2154.33-.3254.495-.1924.2979-.3849.6095-.5774.9074-.2383.3758-.4812.7516-.7195 1.132-.0917.1467-.1879.2887-.2796.44-.2383.3804-.4766.7699-.7149 1.1549-.2063.3299-.4079.6599-.6142.9899-.0595.1008-.1191.1925-.1833.2933-.3574.5866-.7149 1.1824-1.0724 1.7782-.11.1833-.22.362-.33.5454-.0183.0275-.032.0549-.0504.0824-.4674.7883-.9349 1.5812-1.3978 2.3832-.0366.0641-.0779.1329-.1145.2016-.133.2292-.2659.4675-.3988.6966-.2795.4858-.5591.967-.8341 1.4574-.11.1925-.2154.385-.3253.5775-.165.2887-.3254.582-.4904.8753-.1604.2842-.3162.5637-.4766.8479-.22.3987-.44.802-.66 1.2007-.1283.2337-.2566.4629-.3804.6966-.0596.11-.1191.2154-.1787.3208-.3804.7012-.7608 1.407-1.1366 2.1128-.0504.0916-.0962.1833-.1466.2749-.0825.1604-.1696.3163-.2521.4767-.2108.3987-.4216.7974-.6325 1.1961-.2612.495-.5178.9945-.7791 1.494-.032.0596-.0641.1192-.0962.1834-.0137.032-.0321.0595-.0458.0916-.2842.5454-.5637 1.0953-.8433 1.6499-.2291.4491-.4537.8982-.6828 1.3474-.0138.0321-.0321.0596-.0459.0916-.0091.0184-.0183.0367-.0275.055-.2245.4492-.4537.9029-.6783 1.3566-.2108.4262-.4216.8524-.6278 1.2786-.0688.1421-.1421.2888-.2108.4308-.0321.0688-.0688.1375-.1009.2063-.087.1787-.1741.3528-.2612.5316-.1787.362-.3529.7287-.527 1.0953-.1696.3575-.3437.7149-.5133 1.0724-.0688.1421-.1329.2842-.2017.4262-.0229.0459-.0458.0917-.0641.1375-.0596.1283-.1238.2567-.1833.3896-.1513.3162-.2979.637-.4492.9532-.142.3071-.2887.6141-.4308.9212-.1329.2887-.2658.5774-.3987.8616-.0183.0412-.0367.0825-.055.1192-.0092.0183-.0183.0366-.0275.0595-.1054.2292-.2108.4583-.3162.6875-.1283.2841-.2612.5683-.3896.8524-.1237.2704-.2474.5408-.3712.8112-.1237.2704-.2429.5408-.3666.8157-.0229.0459-.0413.0963-.0642.1421-.0091.0229-.0183.0458-.0275.0642-.0916.2016-.1833.4033-.2704.6049-.1191.2704-.2429.5408-.362.8158-.1192.2704-.2383.5454-.3621.8158-.1191.2704-.2383.5453-.3574.8157-.0459.1054-.0917.2063-.1375.3117-.0779.1787-.1558.3574-.2338.5362-.1237.2887-.252.582-.3758.8707-.1237.2888-.2474.5775-.3712.8662-.1329.3116-.2658.6233-.3987.9349-.0229.0504-.0412.1054-.0642.1559-.0137.032-.0275.0641-.0412.0916-.1054.2521-.2154.5041-.3208.7562-.1421.3346-.2796.6691-.4171 1.0037-.1787.4308-.3574.8616-.5316 1.2924-.0275.0641-.055.1329-.0825.197-.0275.0642-.0504.1238-.0779.1833-.1329.3254-.2658.6554-.3987.9808-.2979.7287-.5866 1.4574-.8754 2.1861 0 .0091-.0091.0229-.0137.032-.0229.055-.0412.11-.0642.165-.3712.935-.7332 1.8653-1.0907 2.7956-.11.2796-.2154.5591-.3208.8387-.1146.3025-.2337.6095-.3483.9074-.1971.5179-.385 1.0312-.5775 1.5445-.055.1512-.1145.3025-.1695.4491-.023.0596-.0459.1192-.0688.1788-.197.5316-.3895 1.0586-.5774 1.5857-.1421.3941-.2842.7928-.4262 1.1869-.0138.0367-.0275.0734-.0367.11-.0138.0321-.0229.0688-.0367.1009-.1145.3162-.2245.637-.3345.9532-.1192.3437-.2383.6875-.3575 1.0266-.1146.33-.2291.6599-.3391.9853-.0092.0321-.023.0642-.0321.1008-.0092.023-.0184.0459-.0229.0734-.0917.2704-.1834.5408-.275.8066-.11.3208-.2154.6416-.3208.9578-.1054.3208-.2108.637-.3162.9533-.0321.0916-.0596.1833-.0871.2749-.0138.0459-.0321.0963-.0458.1421-.0596.1879-.1238.3712-.1834.5591-.1054.33-.2108.6554-.3162.9854-.1054.3345-.2108.6645-.3162.9991-.0367.1099-.0688.2245-.1054.3345-.0183.0642-.0413.1283-.0596.1925-.0596.1925-.1192.3804-.1787.5729-.11.362-.22.7287-.33 1.0861-.1192.394-.2337.784-.3483 1.173-.0046.019-.0092.037-.0183.055 0 .014-.0092.028-.0138.037-.1283.431-.2521.862-.3758 1.292-.1466.509-.2887 1.013-.4262 1.517 0 .009 0 .014-.0046.023-.0046.023-.0137.051-.0183.074-.1513.54-.2933 1.077-.4354 1.608-.0687.261-.1329.513-.2017.77-.0595.229-.1191.458-.1787.687-.0412.17-.0916.344-.1329.514-.11.431-.2108.857-.3116 1.283-.0688.28-.1375.559-.2063.834-.0183.073-.0366.147-.055.22-.087.376-.1649.738-.252 1.105-.1008.453-.2108.907-.3071 1.352-.0137.064-.0321.132-.0458.201-.1421.669-.275 1.325-.4033 1.975-.0229.124-.0504.253-.0733.376-.0275.147-.0596.298-.0871.445-.1192.628-.2337 1.251-.3346 1.86-.0458.275-.0916.55-.1375.821-.0045.032-.0091.069-.0137.101-.055.348-.11.692-.1604 1.031-.0046.036-.0092.069-.0183.105-.055.376-.1055.743-.1559 1.109 0 .023-.0091.051-.0091.074-.0138.1-.0229.192-.0367.293-.0275.224-.0596.444-.0825.664-.0183.133-.0321.266-.0458.399-.0229.202-.0458.408-.0688.605-.0045.055-.0137.115-.0183.17-.0092.082-.0137.165-.0229.247-.0183.174-.0321.344-.0504.518-.0138.138-.0229.28-.0367.417-.0137.17-.0275.335-.0366.5-.0046.073-.0138.146-.0184.215s-.0091.133-.0137.197c-.0092.147-.0184.293-.0275.44-.0092.138-.0138.275-.0229.413-.0092.142-.0138.284-.0184.421 0 .074-.0091.151-.0091.225v.178c0 .129-.0046.257-.0092.385 0 .133-.0046.266-.0046.399v.371.202.092c0 .417.0138.82.0321 1.214v.087c0 .032.0046.064.0092.096.0183.381.0458.752.0825 1.11 0 .018 0 .041.0045.064 0 .032.0092.059.0138.091.0366.358.0825.702.1329 1.032v.036c0 .023.0092.046.0137.069.055.339.1192.669.1879.981v.013c.0734.317.1513.61.2429.894.0046.014.0092.032.0138.051 0 .009.0046.018.0092.027.0183.064.0412.124.0641.183.0321.092.0642.184.0963.275.0229.064.0504.124.0733.184.0275.064.0504.133.0779.192.0092.018.0137.032.0229.051.0275.064.055.123.0871.187.0321.074.0687.147.1008.22.0321.06.0596.12.0917.175.0229.045.0504.096.0733.142.0137.018.0229.036.0367.059.032.06.0687.115.1054.174.0366.06.0779.12.1145.179.0367.055.0734.106.1146.161.0275.036.0504.073.0779.105.0138.018.0321.037.0459.055.0412.055.087.105.1283.156.0412.046.0825.096.1237.142.0458.05.0917.091.1375.137.0275.028.055.06.0871.087.0137.014.0321.023.0458.037.055.046.1054.092.1604.138.0413.036.0871.073.1329.105.055.041.1146.082.1742.119.0366.023.0687.051.1008.069.0092.004.0183.009.0275.014.1146.068.2337.132.3529.187l7.6948 3.552c-.1238-.055-.2384-.119-.3529-.188-.0459-.027-.0871-.059-.1329-.087-.0596-.036-.1192-.078-.1742-.119-.0458-.032-.0871-.069-.1329-.105-.055-.046-.11-.087-.1604-.138-.0458-.041-.0871-.082-.1329-.123-.0458-.046-.0917-.092-.1375-.138-.0412-.046-.0825-.096-.1283-.142-.0413-.05-.0871-.101-.1283-.156-.0413-.05-.0825-.105-.1238-.16-.0366-.051-.0779-.106-.1145-.161-.0413-.059-.078-.119-.1146-.178-.0367-.055-.0688-.115-.1054-.17-.0367-.064-.0734-.133-.11-.202-.0321-.059-.0642-.114-.0917-.174-.0366-.069-.0687-.146-.1054-.22-.0275-.059-.055-.123-.0825-.183-.0321-.078-.0687-.16-.1008-.248-.0229-.059-.0504-.119-.0733-.183-.0321-.087-.0642-.183-.0963-.275-.0183-.059-.0412-.119-.0596-.183-.0091-.023-.0137-.051-.0229-.078-.087-.284-.1695-.582-.2429-.894 0-.004 0-.009 0-.018-.0733-.312-.1329-.642-.1879-.981-.0045-.032-.0137-.069-.0183-.101-.0504-.33-.0962-.673-.1329-1.031-.0046-.05-.0092-.101-.0183-.156-.0367-.357-.0596-.728-.0825-1.109 0-.059-.0046-.119-.0092-.183-.0183-.39-.0275-.797-.0321-1.215 0-.096 0-.197 0-.297 0-.124 0-.248 0-.372 0-.133 0-.265.0046-.398 0-.129.0046-.252.0092-.385 0-.133.0091-.271.0137-.404.0046-.142.0138-.284.0184-.426.0045-.137.0137-.275.0229-.412.0091-.142.0183-.289.0275-.436.0091-.137.0183-.279.0275-.421.0137-.161.0229-.326.0366-.491.0092-.137.0229-.279.0367-.421.0137-.17.0321-.344.0504-.514.0138-.142.0275-.279.0413-.421.0229-.197.0412-.399.0641-.601.0138-.133.0321-.27.0458-.403.0275-.22.055-.44.0825-.664.0138-.124.0321-.243.0459-.367.0504-.362.1008-.733.1558-1.105.0046-.041.0137-.087.0183-.128.0504-.334.1008-.669.1558-1.008.0505-.307.1009-.614.1513-.926.1283-.751.2704-1.526.4262-2.305.0229-.124.0504-.248.0733-.371.1421-.715.2933-1.439.4491-2.177.0963-.445.2017-.898.3025-1.348.1008-.444.1971-.88.3025-1.329.0642-.275.1375-.554.2016-.834.1467-.596.2934-1.191.4492-1.796.0596-.225.1191-.454.1787-.683.2062-.788.4171-1.581.6416-2.388.0046-.023.0138-.041.0184-.064.2612-.944.5362-1.902.8203-2.874.0046-.018.0092-.036.0183-.055.275-.934.5592-1.879.857-2.832.0184-.064.0413-.128.0596-.192.2933-.949.6004-1.9068.912-2.8738.0138-.0458.0321-.0962.0459-.1421.3208-.9899.6553-1.9844.999-2.9926.0092-.023.0184-.0504.0275-.0734.3438-1.0128.7012-2.0348 1.0679-3.066.0137-.032.0229-.0641.0366-.1008.3621-1.0128.7287-2.0348 1.1091-3.0614.055-.1467.11-.2979.165-.4491.3025-.8158.6095-1.6361.9258-2.4565.1054-.2795.2108-.5591.3208-.8387.3574-.9257.7195-1.8561 1.0907-2.7956.0229-.055.0412-.11.0642-.165.4216-1.0586.8524-2.1264 1.2878-3.1989.0229-.0595.0504-.1237.0733-.1833.44-1.077.8937-2.1631 1.352-3.2493.0137-.0321.0275-.0641.0412-.0916.4721-1.1183.9533-2.2411 1.4436-3.3639.4904-1.1274.9854-2.2503 1.4895-3.3639.0092-.0229.0183-.0458.0275-.0642.4995-1.109.9991-2.2135 1.5078-3.3089.0092-.0183.0183-.0366.0275-.0595.5041-1.0862 1.0082-2.1678 1.517-3.2448.0229-.0458.0458-.0916.0641-.1375.495-1.0449.9991-2.0852 1.5032-3.121.0321-.0687.0688-.1374.1008-.2062.5133-1.0495 1.0266-2.0898 1.5491-3.1256.0137-.032.0321-.0595.0458-.0916.5225-1.0358 1.0449-2.0669 1.572-3.0843.032-.0642.0641-.1284.1008-.1879.4675-.9029.9349-1.7966 1.407-2.6857.0824-.1604.1695-.3162.252-.4766.4858-.912.9716-1.8148 1.462-2.7131.1283-.2337.2566-.4629.3804-.6966.3758-.6874.7562-1.3703 1.1365-2.0486.165-.2933.3254-.5866.4904-.8753.385-.6829.7699-1.3612 1.1595-2.0303.1329-.2337.2658-.4674.4033-.7012.5179-.8982 1.0403-1.7873 1.5628-2.6627.11-.1833.22-.362.3254-.5453.417-.6966.8341-1.3887 1.2557-2.0715.2062-.3346.4079-.66.6141-.9899.33-.5362.66-1.0679.9945-1.5903.2383-.3804.4812-.7562.7195-1.132.3025-.4721.605-.9441.9075-1.407.2795-.4262.5545-.8478.8341-1.2695.3529-.5316.7057-1.0678 1.0586-1.5902.0688-.1009.1375-.2017.2063-.3025.5407-.7929 1.077-1.5766 1.6132-2.3419.4445-.6325.8799-1.242 1.3199-1.8469.0733-.1009.1466-.2017.2199-.3025.3392-.4629.6737-.9212 1.0083-1.3703z" stroke="#fff"/><g stroke="#494949"><path d="m110.537 138.874c.12-.046.239-.092.358-.143.202-.087.403-.178.6-.27.097-.046.197-.087.294-.133.293-.142.582-.293.866-.454l6.641-3.726c-.285.161-.573.308-.867.454-.096.046-.197.087-.293.133-.197.092-.399.183-.6.271-.12.05-.239.096-.358.142-.188.073-.371.146-.564.215-.128.046-.256.087-.389.133-.197.064-.394.128-.596.188-.092.027-.183.055-.275.078-.256.068-.513.137-.774.197-.051.014-.101.023-.152.036-.307.069-.623.129-.939.184-.087.013-.174.027-.257.041-.206.032-.417.06-.623.087-.248.032-.504.055-.756.078-.147.014-.294.027-.445.037-.288.018-.577.032-.871.036-.119 0-.238.009-.362.014-.197 0-.394 0-.595-.005-.188 0-.372 0-.559-.009-.202-.009-.408-.023-.61-.036-.192-.014-.38-.019-.573-.037-.133-.009-.266-.028-.394-.041-.247-.023-.5-.051-.752-.083-.155-.018-.311-.046-.462-.064-.239-.032-.473-.069-.715-.11-.143-.023-.289-.05-.431-.078-.243-.046-.491-.091-.738-.142-.151-.032-.303-.064-.454-.096-.266-.06-.531-.119-.797-.188-.119-.028-.239-.06-.362-.087-.39-.101-.779-.206-1.178-.326-.358-.105-.715-.215-1.073-.334-.105-.037-.215-.073-.32-.11-.2478-.083-.4999-.17-.7519-.257-.1238-.046-.2521-.091-.3758-.137-.2292-.083-.4583-.17-.6875-.261-.1375-.055-.2749-.11-.4124-.165-.22-.087-.4446-.179-.6691-.271-.1329-.055-.2658-.11-.4033-.169-.2338-.101-.4629-.202-.6966-.307-.1238-.055-.2475-.11-.3713-.17-.11-.05-.2199-.105-.3299-.156-.5271-.247-1.0541-.499-1.5857-.77-.0596-.032-.1238-.059-.1834-.091-.5545-.285-1.1045-.582-1.6636-.89-.1191-.064-.2337-.132-.3529-.197-.5499-.311-1.1045-.632-1.6544-.967-.0733-.045-.1467-.091-.22-.137-.5179-.316-1.0403-.646-1.5628-.985-.0916-.06-.1833-.12-.275-.179-.5591-.367-1.1182-.747-1.6727-1.137-.1146-.082-.2338-.165-.3483-.243-.5729-.407-1.1504-.82-1.7232-1.251-.0504-.036-.1008-.078-.1513-.114-.5637-.427-1.1319-.867-1.6956-1.316-.0871-.068-.1788-.137-.2659-.21-.5866-.468-1.1686-.954-1.7552-1.444-.1146-.096-.2246-.193-.3392-.289-.5866-.499-1.1778-1.013-1.7644-1.54-.0871-.078-.1787-.16-.2658-.243-.5775-.522-1.1595-1.054-1.737-1.599-.0366-.037-.0733-.069-.1099-.105-.5683-.537-1.132-1.091-1.7003-1.65-.1192-.119-.2383-.234-.3575-.353-.5224-.523-1.0449-1.054-1.5674-1.595-.0825-.083-.1604-.17-.2383-.252-.4124-.431-.8249-.871-1.2374-1.315-.142-.152-.2795-.303-.4216-.454-.3483-.376-.692-.761-1.0403-1.146-.11-.124-.22-.243-.33-.367-.4216-.476-.8479-.957-1.2695-1.448-.0916-.105-.1787-.211-.2704-.316-.3116-.362-.6187-.724-.9257-1.091-.1742-.206-.3438-.412-.5133-.623-.2063-.252-.4171-.5-.6233-.756-.3437-.422-.6874-.843-1.0266-1.27-.7424-.93-1.4757-1.874-2.1952-2.827-.0046-.009-.0138-.019-.0184-.028-.7103-.939-1.4115-1.888-2.0989-2.846-.0413-.059-.0825-.119-.1238-.174-.6645-.9257-1.3153-1.8561-1.9615-2.8002-.0504-.0779-.1008-.1558-.1558-.2291-.5179-.7654-1.0312-1.5353-1.5353-2.3098-.2337-.3621-.472-.7241-.7012-1.0862-.3391-.527-.6737-1.0632-1.0037-1.5948-.3528-.5637-.6966-1.1274-1.0403-1.6911-.3025-.495-.6004-.9945-.8937-1.4941-.3345-.5683-.6691-1.1411-.999-1.714-.3254-.5683-.6462-1.1366-.967-1.7094-.2017-.3621-.3988-.7196-.5958-1.0816-.4812-.8845-.9579-1.769-1.4207-2.6627-.0413-.0825-.0871-.165-.1284-.2521-.5087-.9853-1.0082-1.9752-1.4986-2.9697-.0412-.0825-.0779-.165-.1192-.2475-.4812-.9854-.9532-1.9753-1.4115-2.9698-.0412-.087-.0825-.1741-.1192-.2612-.4812-1.0495-.9532-2.1036-1.4069-3.1622-.0046-.0138-.0138-.0275-.0184-.0413-.4537-1.0495-.889-2.1036-1.3153-3.1622-.0412-.1008-.0825-.2017-.1191-.3025-.3987-.9991-.7883-2.0027-1.1641-3.0064-.0458-.1192-.0871-.2429-.1329-.3621-.3483-.9395-.6829-1.879-1.0082-2.8231-.0413-.1145-.0825-.2291-.1192-.3483-.33-.967-.6462-1.934-.9533-2.901-.087-.2704-.1695-.5408-.252-.8111-.2933-.9487-.5821-1.8974-.8524-2.8415-.0917-.3254-.1788-.6462-.2704-.9716-.2109-.7699-.4171-1.5398-.6142-2.3006 0-.0046 0-.0092 0-.0183-.2016-.7837-.3849-1.5628-.5637-2.3373-.0366-.1604-.0733-.3209-.11-.4813-.1695-.7561-.3345-1.5077-.4857-2.2502-.0275-.1329-.0505-.2612-.078-.3941-.142-.7012-.2749-1.3932-.3941-2.0853-.0183-.0916-.0367-.1879-.0504-.2795-.1283-.7333-.2475-1.462-.3575-2.1861-.0229-.1558-.0458-.3116-.0687-.4674-.1054-.7196-.2062-1.4391-.2887-2.1449-.0092-.0779-.0184-.1558-.0275-.2337-.0779-.6691-.1513-1.3336-.2109-1.9936-.0137-.1237-.0229-.2475-.0366-.3712-.0642-.6966-.1146-1.3841-.1558-2.0623-.0092-.1375-.0184-.275-.023-.4125-.0412-.7058-.0733-1.4024-.0916-2.0898 0-.0459 0-.0917 0-.1375-.0183-.692-.0229-1.3703-.0183-2.044 0-.1008 0-.1971 0-.2979.0091-.6966.0275-1.3841.0595-2.0669.0046-.1192.0092-.2383.0184-.3575.0366-.7012.087-1.3886.1466-2.0669.0138-.1787.0321-.3529.0504-.527.0184-.2017.0413-.3987.0642-.6004.0229-.2108.0504-.4216.0779-.6324.0229-.1971.0504-.3942.0779-.5867.0275-.1924.055-.3849.0871-.5774.0367-.2292.0687-.4583.11-.6875.0321-.1879.0641-.3712.0962-.5545.0413-.2246.0825-.4445.1238-.6645.032-.1742.0687-.3483.1054-.5179.055-.2704.1145-.5362.1787-.802.0367-.1512.0687-.3071.1054-.4583.0733-.2887.1467-.5775.2246-.8616.0321-.1146.0596-.2337.0916-.3483.1238-.4446.2567-.8799.3942-1.3107.0366-.11.0733-.2154.11-.3254.11-.3346.2245-.66.3483-.9854.0458-.1283.0962-.2566.142-.3803.0963-.2521.2017-.5042.3025-.7516.0504-.1192.0963-.2338.1467-.3529.1558-.3621.3162-.715.4812-1.0633.1512-.3162.3116-.6278.472-.9303.0367-.0733.0779-.1421.1146-.2154.2154-.4033.44-.7929.6737-1.1687.0275-.0458.055-.087.0825-.1329.2429-.39411.4949-.77907.7562-1.14571.0046-.00458.0091-.01375.0137-.01833.2612-.36664.5316-.71953.8112-1.06325.0275-.03208.055-.06874.0779-.10082.2704-.32539.5454-.64161.8295-.94409.0413-.04583.0871-.09166.1283-.13749.2796-.29331.5638-.57287.8571-.84326.0504-.04583.1008-.09166.1512-.13749.2933-.26581.5958-.52246.9028-.76535.0505-.03667.0963-.07791.1467-.11458.3162-.24289.637-.48121.967-.70119.0367-.02291.0733-.04583.11-.06874.3483-.22915.7012-.44913 1.0632-.65078l-6.6407 3.72594c-.362.20165-.7149.42163-1.0632.65078-.0367.02291-.0733.04583-.11.06874-.33.21998-.6508.45371-.967.70119-.0504.03667-.1008.07333-.1467.11458-.307.24289-.6049.49954-.9028.76535-.0504.04583-.1008.09166-.1512.13749-.2933.27041-.5775.54991-.857.84331-.0413.0458-.0871.0916-.1284.1374-.2841.3025-.5591.6187-.8295.9441-.0275.0321-.055.0688-.0779.1009-.2796.3437-.55.6966-.8112 1.0632 0 .0046-.0091.0137-.0137.0183-.2613.3667-.5133.7516-.7608 1.1458-.0275.0458-.055.087-.0825.1329-.2337.3804-.4583.7699-.6737 1.1732-.0183.0367-.0412.0688-.0641.11-.0184.0367-.0367.0733-.055.1054-.1604.3071-.3208.6141-.4721.9349-.165.3483-.3254.7012-.4812 1.0633-.0504.1145-.0962.2337-.1466.3483-.1055.2475-.2063.4995-.3025.7562-.0229.055-.0459.11-.0688.165-.0275.0687-.0504.142-.0733.2154-.1192.3253-.2383.6553-.3483.9899-.0367.1054-.0733.2154-.11.3208-.1375.4308-.2704.8707-.3987 1.3153-.0046.0183-.0138.0412-.0183.0596-.0275.0962-.0505.1924-.0734.2887-.0779.2841-.1512.5729-.2245.8662-.0367.1512-.0734.3024-.1054.4583-.0596.2658-.1192.5316-.1788.802-.0183.0779-.0366.1558-.0504.2383-.0183.0916-.0321.1879-.0504.2795-.0412.22-.0871.4446-.1237.6692-.0321.1833-.0642.3666-.0963.5545-.0366.2246-.0733.4537-.11.6829-.0183.1145-.0366.2291-.055.3437-.0091.0779-.0183.1558-.032.2337-.0275.1925-.0505.3896-.078.5866-.0275.2108-.0504.4217-.0779.6325-.0229.197-.0412.3987-.0641.6003-.0138.1238-.0275.2475-.0413.3758-.0046.0505-.0046.1054-.0091.1559-.0596.6782-.11 1.3703-.1467 2.0669 0 .055-.0092.1054-.0092.1604 0 .0641 0 .1329-.0045.197-.0321.6783-.0505 1.3658-.0596 2.067v.0962.1971c0 .6737 0 1.3565.0183 2.044v.1054.0366c.0183.6875.0504 1.3841.0917 2.0899 0 .0779.0045.1512.0091.2291 0 .0596.0092.1237.0138.1833.0412.6829.0962 1.3657.1558 2.0623 0 .0413.0046.0825.0092.1284.0091.0825.0183.165.0275.2429.0641.6599.1329 1.3199.2108 1.989.0046.0595.0091.1145.0183.1741 0 .0229.0046.0413.0092.0642.0871.7103.1833 1.4253.2887 2.1448.0138.0779.0183.1558.0321.2337.0137.0779.0275.1559.0366.2338.11.7241.2292 1.4482.3575 2.186 0 .0275.0092.0504.0138.0779.0137.0688.0275.1375.0366.2017.1238.6874.2567 1.384.3942 2.0852.0183.0871.032.1696.0504.2567.0091.0458.0183.0916.0275.1329.1512.7424.3162 1.494.4858 2.2502.0137.0688.0275.1375.0458.2062.0229.0917.0458.188.0687.2796.1788.7745.3667 1.5491.5637 2.3327v.0138c.1925.7608.3988 1.5307.6142 2.3006.0275.0963.0504.1879.0733.2842.0641.2291.1283.4583.1925.6874.1741.6095.3529 1.2237.5362 1.8332.1008.3345.2108.6737.3116 1.0082.0825.2704.1696.5454.2521.8158.0596.1833.11.3621.1695.5454.2338.7332.4767 1.4665.7287 2.1998.0184.0504.0367.1054.055.1558.0413.1146.0825.2292.1192.3437.1787.5133.3575 1.0266.5408 1.5399.1512.4262.3116.857.472 1.2832.0459.1238.0871.2429.1329.3667.0275.0733.055.1512.0825.2245.2154.5683.4308 1.1366.6508 1.7049.1375.3575.2841.7149.4262 1.0724.0413.1008.0825.2062.1238.3071.032.087.0687.1695.1008.2566.2062.5087.4124 1.0128.6233 1.5215.1924.4629.3895.9212.5866 1.3841.0046.0137.0137.0321.0183.0458 0 .0092.0092.0184.0138.0275.2016.4675.4033.9304.6095 1.3932.2062.4629.4125.9212.6233 1.3841.055.1191.11.2337.165.3529.0412.0871.0825.1741.1237.2658.1146.252.2291.5041.3483.7562.2154.4629.4354.9211.6554 1.3794.1329.2796.2704.5546.4033.8341.0412.0825.0825.165.1191.2475.0504.1008.0963.2017.1467.2979.252.5087.5041 1.0128.7607 1.5215.1925.385.3942.7654.5912 1.1458.0459.0825.0871.1696.1284.2521.0321.0641.0641.1283.0962.1924.3254.6187.6508 1.2374.9853 1.8561.11.2063.2246.4079.3392.6141.1971.3621.3987.7241.6004 1.0862.1741.3162.3437.6325.5224.9441.1467.2566.2979.5087.4446.7608.3299.5728.6599 1.1457.999 1.714.2979.4995.5912.9991.8937 1.4986.3437.5683.692 1.1274 1.0403 1.6911.1788.2842.3483.5729.5271.857.1558.2475.3208.4904.4766.7379.2337.362.4675.7241.7012 1.0861.165.2521.3208.5042.4858.7517.3483.5226.6966 1.0446 1.0495 1.5626.0504.073.1008.151.1512.225.0184.027.0413.059.0596.087.3712.545.747 1.086 1.1274 1.627.2567.366.5133.728.7745 1.09.0413.06.0825.115.1238.175.0321.045.0641.087.0962.133.33.458.6645.916.9991 1.37.33.449.6599.893.9945 1.333 0 .005.0092.01.0092.014.0045.009.0137.014.0183.023.3254.431.6554.862.9853 1.288.3438.444.6875.884 1.0358 1.32.0596.073.1145.146.1741.22.3117.389.6233.774.935 1.159.032.037.0641.074.0916.115.2062.252.4125.499.6141.747.1467.179.2979.362.4446.541.0275.032.0504.059.0779.091.307.367.6141.729.9257 1.091.0825.096.165.197.2475.293.0092.01.0138.019.0229.028.4217.49.8433.971 1.2695 1.448.0275.032.055.06.0825.092.0825.091.165.183.2475.275.3437.385.692.77 1.0403 1.145.0688.074.1375.152.2062.225.0734.078.1421.151.2154.229.4125.445.825.885 1.2374 1.315.0642.065.1238.133.1879.198.0184.018.0367.036.055.055.5225.54 1.045 1.072 1.5674 1.594.055.055.11.115.165.17.0642.064.1283.124.1925.188.5637.559 1.132 1.109 1.6957 1.645.0091.009.0183.019.0275.028.0275.027.0596.055.087.082.5775.546 1.155 1.077 1.7324 1.6.0596.055.1192.11.1741.16.0321.028.0596.05.0917.078.5866.527 1.1732 1.036 1.7644 1.54.055.05.1146.101.1696.146.055.051.1146.092.1696.143.5866.494 1.1686.976 1.7553 1.443.0275.023.0595.051.087.073l.1788.138c.5637.449 1.132.889 1.6957 1.315.0366.028.0733.06.1099.087.0138.01.0275.019.0367.028.5729.431 1.1503.848 1.7232 1.251.0642.046.1237.092.1879.137.055.037.1054.069.1604.11.5591.39 1.1183.77 1.6774 1.137.0321.018.0595.041.0916.06.0596.041.1238.078.1833.114.5225.339 1.0404.669 1.5628.986.055.032.1054.068.1604.1.023.014.0413.023.0642.037.5545.335 1.1045.655 1.6544.967.0596.032.1146.069.1742.101s.1191.064.1787.096c.5546.307 1.1091.61 1.6636.889.0184.009.0321.019.0505.028.0458.023.087.041.1329.064.5316.27 1.0586.527 1.5857.77.0595.027.1237.059.1833.087.0504.023.0962.041.1466.064.1238.055.2521.115.3758.17.2292.105.4629.206.6921.302.1329.06.2704.115.4033.17.1008.041.2016.087.3024.128.1192.05.2383.096.3575.142.1375.055.2796.11.4171.165.2291.087.4583.174.6828.257.1238.045.2521.096.3758.137.0367.014.0779.028.1146.041.2108.074.4262.147.637.216.1054.036.2154.073.3208.11.3483.114.6966.224 1.0449.325.0092 0 .0184.005.0275.009.3942.115.7883.225 1.1779.326.1191.032.2383.059.362.087.165.041.3346.087.4996.124.1008.022.2016.041.2978.064.1513.032.3025.064.4538.096.2474.05.4949.101.7378.142.1421.028.2887.055.4308.078.0642.009.1283.023.1971.037.1741.027.3437.05.5179.073.1558.023.3116.046.4673.064.252.032.5.055.752.083.133.013.266.027.398.041.023 0 .046.004.065.004.169.014.339.019.508.028.202.014.408.027.61.037.188.009.371.004.559.009.197 0 .399.009.596.004h.068c.101 0 .198-.009.294-.013.293-.01.582-.019.871-.037.151-.009.297-.023.449-.037.252-.023.504-.046.751-.078.069-.009.142-.013.211-.023.138-.018.275-.041.417-.064.087-.013.17-.027.257-.041.316-.055.628-.115.939-.183.051-.009.101-.023.152-.037.261-.06.517-.124.774-.197.092-.028.183-.05.275-.078.092-.027.179-.05.27-.078.11-.032.22-.073.33-.11.129-.041.262-.087.39-.133.188-.069.376-.142.564-.215z"/><path d="m139.543 76.4675c-.326.0962-.651.1879-.986.2795-.11.0275-.22.0596-.33.0871-.229.0596-.458.1237-.692.1833-.11.0275-.224.055-.334.0871-.229.0596-.459.1146-.688.1741-.133.0321-.27.0642-.408.0963-.215.0504-.43.1054-.65.1558-.147.0321-.289.0688-.436.1008-.215.0504-.435.0963-.655.1467-.151.0321-.303.0641-.454.0962-.169.0367-.339.0734-.509.1054-.394.0825-.792.165-1.196.2429-.11.0229-.224.0459-.334.0688-.504.0962-1.018.1925-1.536.2887-.151.0275-.302.055-.453.0779-.316.055-.637.11-.958.165-.179.0321-.362.0596-.541.0917-.307.0504-.619.1008-.93.1512-.193.0321-.385.0596-.582.0916-.261.0413-.527.0825-.798.1192-.206.0321-.412.0596-.618.0917-.275.0412-.55.0779-.83.1191-.211.0275-.417.0596-.628.0871-.229.0321-.463.0596-.696.0917-.239.032-.472.0641-.711.0916-.238.0321-.476.0596-.715.0871-.22.0275-.435.055-.655.0779-.807.0962-1.622.1879-2.452.275-.128.0137-.257.0275-.385.0412-.784.0825-1.581.1604-2.388.2338-.142.0137-.288.0275-.435.0412-.793.0733-1.59.1421-2.401.2062-.106.0092-.216.0184-.321.0275-.77.0596-1.545.1192-2.333.1742-.082.0046-.165.0137-.247.0183-.789.055-1.586.1054-2.393.1558-.169.0092-.339.0184-.513.0321-.779.0458-1.563.0871-2.356.1283-.11.0046-.22.0092-.33.0138-.682.0321-1.37.0642-2.062.0917-.179.0091-.353.0137-.532.0229-.733.0275-1.471.055-2.2177.0825-.1283 0-.2567.0091-.3896.0137-.5774.0183-1.1549.0367-1.7369.0504-.2337.0046-.4629.0138-.6966.0183-.4446.0092-.8891.0184-1.3382.0276-.2475.0045-.4904.0091-.7379.0137-.3666.0046-.7379.0137-1.1091.0183-.3483.0046-.6966.0092-1.0449.0138-1.1732.0137-2.351.0183-3.5243.0229-.0916 0-.1787 0-.2704 0-1.1503 0-2.3052 0-3.4601-.0138-.055 0-.1146 0-.1696 0-1.1732-.0091-2.3419-.0275-3.5151-.0504-.0367 0-.0733 0-.11 0-1.1916-.0229-2.3877-.0504-3.5793-.087-.0229 0-.0504 0-.0733 0-1.2007-.0367-2.3969-.078-3.593-.1238-.0275 0-.0504 0-.0779 0-1.187-.0458-2.374-.1008-3.5564-.1604-.0275 0-.055 0-.0871 0-1.1778-.0596-2.351-.1237-3.5197-.1925-.0412 0-.0825-.0046-.1237-.0091-1.1183-.0688-2.2319-.1421-3.3456-.22-.1558-.0092-.3116-.0229-.4675-.0321-.7195-.0504-1.4298-.1054-2.1448-.1604-.582-.0458-1.1595-.0917-1.7415-.1375-.6004-.0504-1.1916-.1008-1.7874-.1558-.5774-.0504-1.1503-.1008-1.7231-.1558-.9304-.0871-1.8561-.1742-2.7773-.2704-.1054-.0092-.2154-.0229-.3208-.0321-1.077-.11-2.1494-.2246-3.2081-.3483-.0504-.0046-.1008-.0092-.1512-.0183-1.1137-.1284-2.2182-.2613-3.3135-.3988-.0046 0-.0137 0-.0183 0-1.0999-.1374-2.1861-.2841-3.2677-.4308-.0366-.0045-.0687-.0091-.1054-.0137-1.0816-.1512-2.1494-.3025-3.208-.4629-.023 0-.0413-.0046-.0642-.0092-1.0678-.1604-2.1219-.3253-3.1668-.4995-.5087-.0825-1.0174-.1696-1.517-.2566-.1696-.0275-.3345-.0596-.5041-.0871-.3254-.055-.6554-.1146-.9762-.1696-.3941-.0687-.7791-.1421-1.1686-.2108-.1375-.0275-.275-.0504-.4125-.0733-.582-.11-1.1503-.22-1.7186-.33-.1375-.0275-.2704-.055-.4079-.0825-.5408-.1054-1.077-.2154-1.6086-.3254-.1283-.0275-.2612-.055-.3941-.0825-.7104-.1466-1.407-.2979-2.0899-.4537-.1833-.0412-.3712-.0825-.5545-.1237-.2108-.0459-.417-.0963-.6233-.1421-.2291-.055-.4583-.1054-.6828-.1604-.2063-.0504-.4079-.0962-.6142-.1467-.2154-.0504-.4308-.1054-.6416-.1558-.2199-.055-.4353-.1054-.6507-.1604-.2063-.0504-.4125-.1054-.6187-.1558-.2109-.055-.4263-.11-.6325-.165-.2016-.055-.3987-.1054-.6004-.1604-.2016-.055-.4033-.11-.6003-.165-.1971-.055-.3942-.11-.5912-.165-.1925-.055-.385-.11-.5775-.1649-.197-.055-.3941-.1146-.5866-.1696-.1741-.0504-.3483-.1008-.5225-.1558-.1924-.0596-.3803-.1146-.5728-.1742-.1696-.0504-.3392-.1054-.5087-.1558-.1971-.0596-.385-.1237-.5775-.1833-.1466-.0459-.2979-.0963-.4399-.1421-.1971-.0642-.385-.1283-.5775-.1925-.1421-.0458-.2841-.0962-.4216-.1421-.2063-.0733-.4125-.142-.6141-.2154-.11-.0366-.22-.0779-.3254-.1145-.2704-.0963-.5317-.1925-.7929-.2933-.0366-.0138-.0779-.0275-.1191-.0413-.2933-.11-.5821-.22-.8662-.3345-.0871-.0367-.1742-.0688-.2567-.1054-.1924-.078-.3895-.1559-.5774-.2338-.1008-.0412-.1971-.0825-.2933-.1237-.16959-.0733-.33916-.1421-.50415-.2154-.10082-.0458-.20165-.0871-.29789-.1329-.1604-.0733-.32081-.1467-.47663-.2154-.09166-.0413-.18332-.0825-.27039-.1238-.16957-.0779-.33456-.1604-.49496-.2383-.07333-.0366-.14665-.0687-.21998-.1054-.22915-.1146-.45371-.2291-.6737-.3437-.01833-.0092-.03666-.0229-.05957-.0321-.19707-.1054-.38956-.2108-.57746-.3162-.06874-.0413-.13748-.0779-.20623-.1192-.13749-.0779-.27039-.1558-.4033-.2337-.07333-.0458-.14665-.0871-.21998-.1329-.12374-.0733-.2429-.1512-.35747-.2246-.06874-.0458-.14207-.0916-.21082-.1374-.11915-.078-.23373-.1559-.34372-.2338-.05958-.0412-.12374-.0825-.17873-.1237-.12833-.0917-.25207-.1833-.37122-.275-.03667-.0275-.0825-.0596-.11916-.0871-.15582-.1191-.30247-.2383-.44913-.362-.1604-.1329-.31164-.2704-.45371-.4033-.13749-.1284-.26581-.2613-.38955-.3896-.04583-.0458-.08708-.0916-.12832-.1375-.09625-.1054-.18332-.2062-.2704-.3116-.0275-.0367-.05958-.0733-.08707-.11-.10999-.1375-.21082-.2796-.30248-.417-.01375-.023-.0275-.0505-.04583-.0734-.07333-.1145-.14207-.2291-.20165-.3437-.0275-.0504-.05041-.1008-.07791-.1558-.04583-.0917-.08707-.1787-.12374-.2704-.02291-.055-.04124-.11-.05958-.1604-.03208-.0825-.05499-.1696-.07791-.2521-.01833-.0641-.03666-.1237-.05041-.1879-.01833-.0825-.03208-.165-.04125-.2475-.00916-.0595-.01833-.1237-.02291-.1833-.00917-.1283-.01833-.2566-.01375-.3849l-.31164 8.5151v.3208c0 .0229.00458.0458.00917.0641.00458.0596.01374.1238.02291.1834.01375.0825.02292.165.04125.2474.01375.0642.03208.1238.05041.1879.01375.0459.02291.0917.03666.1375.01375.0367.03208.0779.04583.1146.01833.055.04125.11.05958.1604.03666.0917.07791.1788.12374.2704.02292.0504.05041.1008.07791.1558.00917.0229.01833.0413.03208.0642.05041.0916.10999.1879.16957.2796.01375.0229.0275.0458.04583.0733.08249.1283.17415.252.27039.3804.00917.0137.02292.0229.03209.0366.02749.0367.05957.0734.08707.11.08708.1054.17415.2063.2704.3117.04124.0458.08249.0916.12832.1374.03666.0367.06874.078.10541.1146.09165.0917.18331.1833.27956.275.14207.1329.2933.2704.45371.4033.00458 0 .00916.0092.01375.0137.13749.1146.28414.2338.43538.3483.03666.0275.07791.055.11457.0825.10541.078.20623.1559.31622.2338.01834.0137.04125.0275.05958.0412.05958.0413.11916.0825.17874.1238.11457.0779.22456.1558.34372.2337.06874.0458.14207.0916.21082.1375.05957.0366.11457.0733.16957.11.05957.0366.12373.0733.1879.1145.07332.0459.14665.0871.21998.1329.1329.078.26581.1559.4033.2338.06874.0366.1329.0779.20165.1146.02291.0137.04124.0229.06416.0366.16957.0963.3483.1925.52704.2842.01375.0091.0275.0137.04583.0229.20165.1054.4033.2108.61411.3162.01834.0092.04125.0183.05958.0321.07333.0366.14666.0733.21998.11.16041.0779.32539.1558.49038.2383.09166.0412.18332.0825.27498.1283.08707.0413.16956.0779.25664.1192.07333.032.14666.0641.21998.0962.10083.0458.19707.0871.29789.1329.16499.0733.33456.1467.50413.2154.09624.0413.19248.0825.29333.1237.0366.0138.0733.0321.1146.0459.1512.0641.3116.1237.4674.1879.0871.0321.1696.0687.2521.1008.2795.11.5637.22.857.33h.0092c.0458.0183.0916.0321.1374.0504.2521.0962.5088.1879.77.2841.11.0367.22.0779.33.1146.1649.0596.3253.1146.4903.1742.0413.0137.0825.0275.1238.0412.1375.0458.2795.0962.4216.1421.1879.0641.3804.1283.5729.1925.1466.0504.2979.0962.4491.1466.1192.0367.2383.0779.362.1146.0688.0229.1421.0458.2154.0642.165.0504.3346.1054.4996.1558.1925.0596.385.1191.5774.1741.1696.0504.3438.1008.5179.1558.1054.0321.2108.0642.3208.0963.0871.0229.1788.0504.2658.0733.1925.055.3896.11.5821.165s.3895.11.5866.165.3987.11.5958.1604c.11.0275.2154.0596.3254.0871.0916.0229.1833.0458.2749.0733.2109.055.4217.11.6371.165.2016.0504.4033.1054.6095.1558.22.055.44.11.6599.165.1192.0275.2338.0596.3575.0871.0917.0229.1879.0458.2796.0687.2016.0504.4079.0962.6141.1467.2246.055.4491.1054.6783.1604.2108.0504.4216.0962.6324.1466.1192.0275.2383.055.3575.0825.0641.0138.1283.0275.1879.0413.6874.1512 1.384.3024 2.0944.4537.0412.0091.0779.0183.1237.0275.0871.0183.1788.0366.2704.055.5271.11 1.0633.2199 1.6086.3254.0917.0183.1788.0366.2659.0549.0504.0092.1008.0184.1466.0275.5637.11 1.1366.22 1.714.3254.0092 0 .0229 0 .0321.0046.1283.0229.2567.0458.385.0688.3849.0687.7699.142 1.1595.2108.0321.0046.0641.0137.1008.0183.2979.055.6049.1054.9074.1604.1558.0275.3117.055.4721.0825.0183 0 .0366.0046.055.0092.4537.0779.9165.1558 1.3794.2337.0275.0046.0596.0092.0871.0138.3621.0595.7241.1191 1.0862.1741.3895.0642.7745.1237 1.1686.1833.3025.0459.6095.0917.9166.1421.0229 0 .0413.0046.0642.0092.0229 0 .0458.0091.0733.0091.3391.0504.6737.1008 1.0128.1513.3346.0504.6691.0962 1.0037.1466.3071.0458.6141.0871.9212.1283.0641.0092.1329.0184.2016.0275.0321.0046.0688.0092.1008.0138.2063.0275.4171.0596.6233.0871.3071.0412.6096.0825.9166.1237.2979.0413.5958.0779.8937.1146.275.0366.5499.0687.8295.1054h.0275c.0137 0 .0275 0 .0412.0046.3025.0366.6096.0779.9166.1145.3163.0367.6325.0779.9487.1146s.6325.0733.9533.11c.1512.0183.3024.0367.4537.0504.0504.0046.1008.0092.1512.0183.1375.0138.2704.0321.4079.0459.362.0412.7241.0825 1.0862.1191.362.0413.7286.0779 1.0907.1146.2062.0229.417.0413.6279.0642.1054.0091.2062.0229.3116.0321.1833.0183.3666.0366.55.0549.5545.055 1.1044.11 1.6636.1605.1879.0183.3804.032.5728.0504.5729.055 1.1458.1054 1.7232.1558.5958.0504 1.1916.1054 1.7874.1558.5774.0458 1.1595.0917 1.7369.1375.3987.0321.7883.0642 1.187.0962.3208.023.6416.0459.9578.0688.1559.0091.3071.0229.4629.0321.1558.0091.3071.0229.4629.032.4537.0321.9028.0596 1.3565.0917.4033.0275.8112.0504 1.2191.0779.1008.0046.2062.0138.3071.0183.0412 0 .0825.0046.1237.0092.1787.0092.3621.0229.5408.0321.3254.0183.6508.0366.9762.055.307.0183.6141.0321.9257.0504.2842.0137.5637.0275.8479.0458.0779 0 .1558.0092.2291.0092h.0871c.1741.0092.3529.0183.527.0275.2842.0137.5637.0275.8479.0412.2704.0138.5408.023.8157.0367.2704.0137.5408.0229.8112.0367.1833.0091.3712.0137.5546.0229h.0733c.0642 0 .1237.0046.1879.0091.2704.0092.5454.023.8158.0321.2704.0092.5453.0184.8157.0275.2704.0092.5454.0184.8158.0275.2704.0092.5454.0183.8158.0275h.142.0642c.22.0046.4445.0138.6645.0184.2933.0091.5912.0137.8845.0229.2933.0091.5912.0137.8845.0229.3163.0091.6279.0137.9441.0183h.2063.1054c.2337 0 .4628.0092.6966.0138.3345.0045.6737.0091 1.0082.0137.3667.0046.7379.0092 1.1045.0138.2337 0 .4721.0045.7058.0091h.1696.3024c.3987 0 .7975.0046 1.1916.0092h1.407.5591.2658.5775c.5591 0 1.1182-.0046 1.6773-.0092.4216 0 .8479-.0091 1.2695-.0137.1604 0 .3208 0 .4812-.0046.1925 0 .385-.0046.5775-.0092.3666-.0046.7332-.0091 1.0953-.0183.0962 0 .197 0 .2979-.0046.1466 0 .2933-.0046.4399-.0092.4492-.0091.8937-.0183 1.3383-.0275.1329 0 .2703-.0045.4033-.0091.1008 0 .197-.0046.2978-.0092.5821-.0137 1.1595-.0321 1.737-.0504.1054 0 .2108-.0046.3116-.0092h.0734c.7424-.0229 1.4804-.0504 2.2134-.0825.073 0 .147-.0045.22-.0091.106 0 .211-.0092.321-.0138.687-.0275 1.37-.0596 2.048-.0916.088 0 .175-.0092.257-.0138.028 0 .06 0 .087-.0046.793-.0412 1.577-.0825 2.356-.1283.082-.0046.165-.0092.247-.0137.087-.0046.17-.0092.257-.0184.807-.0504 1.604-.1008 2.392-.1558.023 0 .051 0 .074-.0046.059 0 .119-.0091.183-.0137.784-.055 1.558-.1146 2.323-.1742.074-.0046.152-.0091.225-.0183.032 0 .064-.0046.096-.0092.811-.0641 1.613-.1375 2.406-.2062.078-.0092.156-.0138.234-.0183.064-.0046.128-.0138.193-.0184.806-.0733 1.604-.1558 2.392-.2383.055-.0046.114-.0091.169-.0183.074-.0092.138-.0183.211-.0229.83-.0871 1.65-.1788 2.452-.275.041-.0046.083-.0092.119-.0138.184-.0229.362-.0458.546-.0687.233-.0275.467-.0596.701-.0871.243-.0321.481-.0641.719-.0916.234-.0321.468-.0596.697-.0917.06-.0092.119-.0137.174-.0229.151-.0183.293-.0413.445-.0642.279-.0412.559-.0779.834-.1191.206-.0321.412-.0596.618-.0917.266-.0412.537-.0779.798-.1191.087-.0138.174-.0275.261-.0413.106-.0183.206-.0321.312-.0504.316-.0504.632-.1008.939-.1512.179-.0275.358-.0596.532-.0871.325-.055.646-.11.962-.165.115-.0183.234-.0412.349-.0596.036-.0046.068-.0137.1-.0183.518-.0917 1.032-.1879 1.536-.2887.11-.0229.215-.0413.325-.0642.408-.0825.807-.1604 1.205-.2429.078-.0183.156-.0321.234-.0458.092-.0184.179-.0367.271-.0596.155-.0321.307-.0687.462-.1008.216-.0459.431-.0963.647-.1421.146-.0321.298-.0687.444-.1008.216-.0504.431-.1008.642-.1513.137-.032.279-.0641.417-.1008.229-.055.454-.1146.678-.1696.115-.0275.234-.0595.348-.087.023-.0046.046-.0092.069-.0184.202-.055.403-.1054.601-.1604.114-.032.233-.0641.348-.0916.334-.0917.664-.1833.985-.2796 7.502-2.1861 11.416-4.8167 11.522-7.6352l.311-8.5151c-.105 2.8185-4.019 5.4491-11.521 7.6352z"/><path d="m150.913 68.2915c0-.1054 0-.2108 0-.3208 0-.0229-.005-.0459-.009-.0642-.005-.0596-.014-.1237-.023-.1833-.014-.0825-.023-.165-.041-.2475-.014-.0642-.033-.1237-.051-.1879-.014-.0458-.018-.0917-.036-.1375-.014-.0366-.033-.0779-.046-.1146-.019-.055-.042-.1054-.06-.1604-.037-.0916-.078-.1787-.124-.2704-.023-.0504-.05-.1008-.078-.1512-.009-.0229-.018-.0412-.032-.0641-.05-.0917-.11-.1879-.169-.2796-.014-.0229-.028-.0458-.041-.0688-.083-.1283-.175-.252-.271-.3803-.009-.0138-.023-.023-.032-.0367-.027-.0367-.06-.0733-.087-.1054-.087-.1054-.174-.2062-.27-.3116-.042-.0459-.083-.0917-.129-.1375-.036-.0367-.068-.0779-.105-.1146-.092-.0917-.183-.1833-.28-.275-.142-.1329-.298-.2704-.453-.4033-.005 0-.01-.0092-.014-.0137-.138-.1146-.284-.2338-.431-.3483-.037-.0275-.078-.055-.115-.0871-.105-.0779-.206-.1558-.316-.2338-.018-.0137-.041-.0274-.059-.0412-.06-.0412-.119-.0825-.179-.1237-.115-.0779-.229-.1559-.344-.2338-.069-.0458-.137-.0916-.211-.1375-.059-.0366-.114-.0733-.174-.1099-.059-.0367-.123-.0734-.183-.1146-.073-.0459-.142-.0871-.22-.1329-.133-.0779-.266-.1558-.403-.2338-.069-.0366-.133-.0779-.202-.1145-.023-.0138-.041-.0229-.064-.0367-.165-.0917-.339-.1879-.513-.2796-.019-.0091-.037-.0229-.06-.032-.197-.1054-.403-.2109-.61-.3163-.018-.0091-.041-.0183-.059-.0275-.073-.0366-.147-.0733-.22-.1054-.161-.0779-.325-.1558-.49-.2383-.092-.0412-.184-.0825-.271-.1283-.087-.0412-.169-.0779-.257-.1192-.073-.032-.146-.0641-.219-.0962-.101-.0458-.198-.0871-.298-.1329-.165-.0733-.335-.1467-.505-.2154-.096-.0412-.192-.0825-.288-.1237-.037-.0138-.074-.0321-.115-.0459-.151-.0641-.311-.1237-.467-.1879-.083-.0321-.165-.0687-.252-.1008-.28-.11-.564-.22-.853-.33 0 0-.009 0-.014-.0046-.041-.0137-.082-.0275-.119-.0458-.256-.0962-.522-.1925-.788-.2887-.11-.0367-.22-.0779-.33-.1146-.16-.0596-.321-.1146-.49-.1741-.042-.0138-.083-.0275-.124-.0413-.138-.0458-.28-.0916-.417-.1421-.193-.0641-.38-.1283-.578-.1924-.146-.0459-.293-.0963-.44-.1421-.123-.0413-.242-.0779-.366-.1192-.073-.0229-.147-.0458-.216-.0687-.165-.0504-.33-.1008-.499-.1558-.193-.0596-.385-.1192-.578-.1742-.169-.0504-.343-.1008-.517-.1512-.106-.0321-.211-.0642-.321-.0963-.087-.0275-.179-.0504-.266-.0779-.193-.055-.385-.11-.577-.165-.198-.055-.39-.11-.592-.1649-.197-.055-.394-.11-.595-.1604-.11-.0275-.216-.0596-.326-.0871-.092-.0229-.188-.0504-.279-.0734-.211-.0549-.422-.1099-.633-.1649-.206-.0504-.408-.1054-.619-.1559-.215-.055-.43-.1099-.65-.1604-.12-.0275-.239-.0595-.358-.0916-.091-.0229-.188-.0458-.284-.0688-.202-.0504-.408-.0962-.609-.1466-.225-.055-.454-.1054-.679-.1604-.206-.0459-.417-.0963-.623-.1421-.119-.0275-.238-.055-.362-.0825-.064-.0137-.128-.0275-.193-.0412-.682-.1513-1.379-.3025-2.085-.4537-.041-.0092-.082-.0184-.124-.0275-.087-.0184-.183-.0367-.27-.055-.527-.11-1.063-.2154-1.604-.3254-.092-.0184-.174-.0367-.266-.055-.046-.0092-.096-.0184-.146-.0275-.564-.11-1.137-.22-1.714-.3254-.01 0-.023 0-.033-.0046-.123-.0229-.252-.0458-.38-.0687-.385-.0688-.77-.1421-1.164-.2109-.037-.0045-.069-.0137-.101-.0183-.298-.055-.6-.1054-.898-.1558-.16-.0275-.316-.055-.481-.0825-.019 0-.037-.0046-.055-.0092-.454-.0779-.912-.1558-1.375-.2291-.028-.0046-.06-.0092-.087-.0138-.362-.0595-.72-.1191-1.082-.1741-.385-.0596-.774-.1238-1.164-.1833-.302-.0459-.609-.0917-.916-.1421-.019 0-.042-.0046-.06-.0092-.023 0-.05-.0091-.073-.0091-.335-.0504-.674-.1009-1.013-.1513-.335-.0504-.665-.0962-1.004-.1466-.307-.0413-.609-.0871-.916-.1283-.065-.0092-.133-.0184-.198-.0275-.036-.0046-.068-.0092-.105-.0138-.206-.0275-.412-.055-.619-.0871-.302-.0412-.609-.0825-.916-.1237-.298-.0413-.596-.0779-.894-.1146-.275-.0366-.554-.0687-.829-.1054-.01 0-.014 0-.023 0-.014 0-.028 0-.042-.0046-.302-.0366-.609-.0779-.912-.1145-.316-.0367-.632-.078-.944-.1146-.316-.0367-.632-.0734-.948-.11-.152-.0183-.303-.0367-.454-.0504-.05-.0046-.101-.0092-.151-.0184-.138-.0137-.271-.032-.408-.0458-.362-.0412-.724-.0825-1.086-.1191-.362-.0413-.729-.078-1.091-.1146-.2063-.0229-.4172-.0413-.628-.0642-.1054-.0091-.2108-.0229-.3116-.0321-.1833-.0183-.3621-.0366-.5454-.055-.5499-.055-1.1045-.1099-1.659-.1604-.1879-.0183-.3804-.032-.5729-.0504-.5728-.055-1.1503-.1054-1.7277-.1558-.5913-.0504-1.1825-.1054-1.7782-.1512-.5821-.0459-1.1641-.0917-1.7461-.1375-.3942-.0321-.7883-.0642-1.1824-.0917-.3163-.0229-.6325-.0458-.9487-.0687-.1558-.0092-.3117-.0229-.4721-.0321-.1558-.0092-.307-.0229-.4628-.0321-.4492-.0321-.9029-.0596-1.3566-.0916-.4033-.0275-.8112-.0505-1.2145-.078-.1008-.0045-.2062-.0137-.307-.0183-.0413 0-.0825-.0046-.1238-.0091-.1787-.0092-.362-.023-.5408-.0321-.3253-.0184-.6507-.0367-.9761-.055-.3071-.0184-.6141-.0321-.9212-.0504-.2796-.0138-.5637-.0275-.8433-.0459-.0779 0-.1512-.0091-.2291-.0091-.0321 0-.0642 0-.0917-.0046-.1741-.0092-.3483-.0184-.527-.0275-.2842-.0138-.5637-.0275-.8479-.0413-.2703-.0137-.5407-.0229-.8111-.0366-.2704-.0138-.5408-.0229-.8112-.0367-.1833-.0092-.3712-.0137-.5546-.0229-.0229 0-.0458 0-.0687 0-.0642 0-.1237-.0046-.1879-.0092-.2704-.0091-.5408-.0229-.8158-.0321-.2704-.0091-.5453-.0183-.8157-.0274-.2704-.0092-.5454-.0184-.8158-.0275-.2704-.0092-.5454-.0184-.8158-.0275-.0504 0-.0962 0-.1466 0h-.0596c-.22-.0092-.4445-.0138-.6645-.023-.2933-.0091-.5912-.0137-.8845-.0229-.2933-.0091-.5912-.0137-.8845-.0229-.3163-.0092-.6279-.0137-.9441-.0183-.0688 0-.1375 0-.2017 0-.0366 0-.0733 0-.11 0-.2291 0-.4628-.0092-.692-.0138-.3346-.0046-.6691-.0091-1.0037-.0137-.3666-.0046-.7332-.0092-1.0999-.0138-.2383 0-.4766-.0045-.7195-.0091-.055 0-.1054 0-.1604 0-.0962 0-.1971 0-.2933 0-.3941 0-.7883-.0046-1.1824-.0092-.4675 0-.9395 0-1.407 0-.1925 0-.3849 0-.5774 0-.0917 0-.1788 0-.2704 0-.1879 0-.3758 0-.5591 0-.5592 0-1.1183.0046-1.6728.0092-.4308 0-.857.0091-1.2878.0137-.1604 0-.3208 0-.4812.0046-.1879 0-.3758.0046-.5637.0092-.3713.0045-.7425.0091-1.1091.0183-.1008 0-.1971 0-.2979.0046-.1467 0-.2933.0046-.4446.0091-.4445.0092-.8936.0184-1.3336.0275-.1329 0-.2658.0046-.3987.0092-.0963 0-.1925.0046-.2933.0092-.5821.0137-1.1641.0321-1.7415.0504-.1009 0-.2063.0046-.3071.0092-.0229 0-.0504 0-.0733 0-.7425.0229-1.4803.0504-2.209.0824-.0733 0-.1467.0046-.22.0092-.1054 0-.2108.0092-.3162.0138-.692.0275-1.3795.0595-2.0578.0916-.0825 0-.1649.0092-.2429.0092-.0275 0-.0549 0-.0824 0-.7929.0412-1.5766.0825-2.3557.1283-.0825.0046-.165.0092-.2475.0138-.087.0045-.1695.0091-.2566.0183-.802.0504-1.5995.1008-2.3877.1512-.0229 0-.0504 0-.0734.0046-.0641 0-.1237.0092-.1833.0138-.7791.055-1.549.1145-2.3098.1741-.0779.0046-.1558.0092-.2337.0183-.0321 0-.0688.0046-.1008.0092-.8066.0642-1.6041.1329-2.3923.2062-.0779.0092-.1604.0138-.2384.0184-.0641.0046-.1283.0137-.1924.0183-.8066.0733-1.5995.1558-2.3832.2337-.055.0046-.1145.0092-.1741.0184-.0734.0091-.1421.0183-.2108.0229-.8296.0871-1.6453.1787-2.4473.275-.0413.0045-.0825.0091-.1192.0137-.1833.0229-.3575.0458-.5362.0688-.2383.0275-.4766.0595-.7104.087-.2383.0321-.472.0596-.7057.0917-.2338.0321-.4675.0596-.7012.0916-.0596.0092-.1192.0138-.1742.023-.1512.0183-.2933.0412-.4445.0641-.2796.0367-.5591.0779-.8341.1192-.2108.0321-.4171.0596-.6233.0916-.2658.0413-.5316.0779-.7928.1192-.0871.0137-.1742.0275-.2613.0412-.1054.0184-.2062.0321-.3116.0505-.3117.0504-.6233.1008-.9349.1512-.1834.0321-.3621.0596-.5408.0917-.3208.0549-.6371.1099-.9487.1649-.1192.023-.2383.0413-.3575.0596-.0366.0046-.0687.0138-.1054.0183-.5178.0917-1.0311.1879-1.5307.2888-.11.0229-.22.0458-.33.0641-.4033.0779-.802.1604-1.1961.2429-.0779.0184-.1604.0321-.2383.0504-.0917.0184-.1788.0413-.2704.0596-.1512.0321-.3025.0642-.4537.1008-.22.0459-.4354.0963-.6508.1467-.1467.0321-.2933.0687-.44.1008-.2199.0504-.4353.1009-.6507.1558-.1375.0321-.2704.0642-.4033.0963-.2292.055-.4583.1146-.6829.1696-.1146.0275-.2292.055-.3391.087-.023.0046-.0459.0138-.0688.0184-.2108.055-.4125.11-.6187.165-.11.0274-.22.0595-.33.087-.3345.0917-.6645.1833-.9853.2796-3.74426 1.0907-6.59486 2.2915-8.52428 3.5747-1.92484 1.2832-2.92851 2.6398-2.97892 4.0467l-.30706 8.396c.10541-2.8139 4.01008-5.44 11.50316-7.6214.3209-.0963.6508-.1879.9854-.2796.1054-.0275.22-.0596.3254-.0871.2291-.0596.4583-.1237.692-.1833.11-.0275.2246-.0596.3391-.0871.2246-.0596.4538-.1145.6829-.1695.1375-.0321.275-.0642.4125-.1009.2154-.0504.4308-.1008.6462-.1512.1466-.0321.2933-.0688.4399-.1008.2154-.0504.4308-.0963.6508-.1467.1512-.0321.3025-.0641.4537-.0962.1696-.0367.3392-.0734.5087-.1054.3942-.0825.7929-.165 1.1962-.2429.11-.0229.22-.0459.3299-.0642.5042-.0962 1.0175-.1925 1.5353-.2887.1467-.0275.2979-.055.4492-.0779.3162-.055.637-.11.9624-.165.1787-.0321.3575-.0596.5362-.0917.307-.0504.6187-.1008.9303-.1512.1925-.0321.385-.0596.5775-.0917.2612-.0412.527-.0825.7928-.1191.2063-.0321.4125-.0596.6187-.0917.275-.0412.55-.0779.825-.1146.2108-.0275.417-.0595.6278-.087.2246-.0321.4537-.0596.6829-.0917.2429-.0321.4812-.0642.7241-.0962.2337-.0275.472-.0596.7058-.0871.2199-.0275.4353-.055.6553-.0779.802-.0963 1.6224-.1879 2.4519-.275.1283-.0138.2566-.0275.385-.0412.7837-.0825 1.5765-.1604 2.3831-.2338.1421-.0137.2887-.0275.4308-.0412.7883-.0734 1.5903-.1421 2.3969-.2063.1054-.0091.2154-.0183.3208-.0229.7653-.0595 1.5399-.1191 2.319-.1741.087-.0046.1695-.0138.2566-.0184.7883-.055 1.5811-.1054 2.3831-.1512.1696-.0092.3392-.0183.5088-.0321.7791-.0458 1.5627-.0871 2.3556-.1283.11-.0046.22-.0092.33-.0137.6828-.0321 1.3703-.0642 2.0577-.0917.1742-.0092.3529-.0138.527-.0229.7333-.0275 1.4712-.055 2.2136-.0825.1283 0 .2567-.0092.385-.0138.5729-.0183 1.1549-.0366 1.7323-.0504.2338-.0046.4721-.0137.7058-.0183.44-.0092.8799-.0183 1.3245-.0275.2475-.0046.4949-.0092.7424-.0138.3667-.0045.7287-.0137 1.0954-.0183.3528-.0046.7011-.0091 1.054-.0137 1.1733-.0138 2.3465-.0184 3.5197-.0229h.275c1.1503 0 2.3007 0 3.4556.0137h.1604c1.1732.0092 2.3464.0275 3.5197.0504h.1008c1.1916.0229 2.3877.0504 3.5793.0871h.0733c1.1962.0367 2.3923.0779 3.5885.1237h.0825c1.1869.0459 2.3693.1009 3.5472.1604h.087c1.1733.0596 2.3465.1238 3.5152.1925.0412 0 .0824.0046.1283.0092 1.1182.0687 2.2319.1421 3.341.2154.1558.0091.307.0229.4628.0321.715.0504 1.4253.1054 2.1403.1604.582.0458 1.164.0916 1.7461.1375.5958.0504 1.187.1008 1.7782.1512.5774.0504 1.1549.1008 1.7277.1558.9304.0871 1.8561.1742 2.7727.2704.1054.0092.2108.0229.3162.0321 1.0769.11 2.1449.2245 3.2079.3483.051.0046.101.0092.151.0183 1.11.1283 2.214.2567 3.305.3942h.032c1.095.1374 2.181.2795 3.254.4308.036.0045.068.0091.105.0137 1.077.1467 2.145.3025 3.199.4629.023 0 .046.0091.069.0091 1.063.1605 2.117.3254 3.162.4996.509.0825 1.017.1696 1.517.2566.165.0275.33.0596.495.0871.33.055.66.1146.981.1742.408.0733.806.1466 1.205.2199.124.023.247.0459.367.0688.582.11 1.15.2154 1.718.33.138.0275.275.055.413.0825.54.1054 1.077.2154 1.608.3253.129.0275.257.055.385.078.711.1466 1.407.2978 2.09.4537.183.0412.367.0825.545.1237.211.0504.422.0962.633.1467.225.0504.449.1054.669.1558.206.0504.413.0962.619.1466.215.0504.426.1054.641.1559.22.0549.436.1054.651.1604.206.0504.413.1054.614.1558.216.055.426.11.637.165.202.0504.399.1054.596.1604.202.055.403.11.6.165.198.055.395.1099.587.1649.197.055.39.11.582.165.197.055.39.1146.582.1696.174.0504.348.1008.518.1558.192.0596.385.1146.577.1742.17.0504.335.1008.5.1558.192.0596.385.1237.577.1833.147.0458.298.0962.445.1421.197.0641.39.1283.577.1925.138.0458.275.0916.413.1374.211.0734.412.1421.619.2154.11.0367.22.078.325.1146.261.0917.513.1879.765.2796.051.0183.101.0366.147.055.293.11.582.22.862.3345.087.0321.169.0688.256.1054.193.078.39.1559.578.2338.096.0412.192.0825.288.1237.17.0733.34.1467.509.2154.101.0413.197.0871.293.1283.161.0734.321.1467.482.2154.091.0413.183.0825.27.1238.165.0779.33.1558.49.2383.074.0367.147.0733.22.1054.23.1146.454.2291.674.3437.018.0092.037.0229.055.0321.197.1054.39.2108.578.3162.068.0367.137.0779.201.1146.138.0779.271.1558.403.2337.074.0459.147.0871.216.1329.124.0734.243.1513.357.2246.069.0458.142.0916.211.1375.119.0779.234.1558.344.2337.059.0413.119.0825.179.1238.128.0916.252.1833.375.2749.037.0275.078.055.115.0871.156.1192.302.2383.449.3621.161.1329.312.2704.454.4033.137.1283.266.2612.389.3895.042.0458.087.0917.129.1375.096.1054.183.2062.27.3116.028.0367.06.0734.087.1054.11.1375.211.2796.303.4171.013.0229.027.0458.046.0733.073.1146.142.2292.201.3437.028.0505.051.1009.078.1559.046.0916.087.1787.124.2704.023.055.041.1054.059.1604.032.0825.055.1695.078.252.019.0642.037.1238.051.1879.018.0825.032.165.041.2475.009.0596.018.1237.023.1833.009.1283.018.2567.014.385l.307-8.396z"/><path d="m129.822 107.902c0-.674 0-1.352-.018-2.044 0-.037 0-.069 0-.105 0-.014 0-.023 0-.037-.019-.688-.051-1.384-.092-2.09 0-.078-.005-.151-.009-.229 0-.06-.009-.124-.014-.183-.041-.683-.096-1.371-.156-2.063 0-.041-.004-.082-.009-.128-.009-.083-.018-.165-.027-.243-.065-.66-.133-1.3244-.211-1.9935-.005-.0596-.009-.1146-.019-.1696 0-.0229-.004-.0413-.009-.0642-.087-.7103-.183-1.4253-.288-2.1448-.014-.0779-.019-.1558-.033-.2337-.013-.0779-.027-.1558-.036-.2338-.11-.7241-.229-1.4528-.358-2.186 0-.0229-.009-.0504-.013-.0734-.014-.0641-.028-.1329-.037-.197-.124-.692-.257-1.3887-.399-2.0898-.018-.0871-.032-.1742-.05-.2613-.009-.0458-.019-.0916-.028-.1375-.151-.7424-.316-1.494-.486-2.2502-.013-.0687-.027-.1375-.045-.2062-.023-.0917-.046-.1833-.069-.275-.179-.7745-.367-1.549-.564-2.3373 0-.0046 0-.0092 0-.0138-.192-.7607-.399-1.5307-.614-2.3006-.027-.0962-.05-.1879-.078-.2841-.064-.2292-.128-.4583-.192-.6875-.174-.6095-.353-1.2236-.537-1.8332-.1-.3345-.21-.6691-.311-1.0082-.083-.2704-.17-.5454-.252-.8158-.06-.1833-.11-.3666-.17-.5499-.234-.7333-.476-1.4666-.728-2.1999-.019-.0504-.037-.1008-.055-.1558-.037-.11-.078-.2245-.12-.3345-.178-.5179-.357-1.0312-.54-1.5491-.152-.4262-.312-.8524-.472-1.2786-.046-.1192-.088-.2429-.133-.3621-.028-.0779-.055-.1512-.083-.2291-.215-.5683-.431-1.1366-.651-1.7049-.137-.3574-.284-.7149-.426-1.0724-.041-.1008-.078-.2016-.119-.3024-.037-.0871-.069-.1742-.101-.2567-.206-.5087-.412-1.0128-.623-1.5215-.193-.4583-.385-.9166-.582-1.3749-.009-.0184-.014-.0367-.023-.055-.005-.0138-.009-.0229-.014-.0367-.201-.4674-.408-.9395-.614-1.407-.206-.4582-.412-.9211-.619-1.3794-.05-.1146-.105-.2246-.155-.3392-.037-.087-.078-.1695-.12-.252-.119-.2567-.233-.5087-.353-.7654-.215-.4583-.43-.9166-.65-1.3749-.133-.2795-.271-.5545-.404-.8341-.041-.0824-.078-.1649-.119-.2474-.05-.1009-.096-.2017-.146-.3025-.252-.5087-.505-1.0128-.761-1.5215-.193-.385-.394-.7654-.591-1.1458-.046-.0825-.087-.1696-.129-.252-.032-.0642-.064-.1284-.101-.1925-.325-.6187-.65-1.2374-.985-1.8561-.11-.2063-.229-.4079-.339-.6141-.197-.3621-.399-.7196-.596-1.0816-.174-.3162-.343-.6325-.522-.9487-.147-.2566-.298-.5087-.445-.7608-.33-.5728-.66-1.1411-.994-1.714-.298-.4995-.596-.9991-.894-1.4986-.344-.5637-.692-1.1274-1.04-1.6911-.179-.2842-.349-.5729-.527-.857-.156-.2475-.321-.4904-.477-.7379-.234-.362-.467-.7241-.701-1.0816-.165-.252-.321-.5041-.491-.7562-.348-.5224-.696-1.0449-1.054-1.5627-.05-.0734-.1-.1513-.151-.2246-.018-.0275-.041-.0596-.059-.0871-.372-.5453-.747-1.0861-1.128-1.6269-.256-.3667-.518-.7287-.779-1.0908-.041-.055-.082-.1145-.119-.1695-.032-.0459-.064-.0871-.092-.1329-.33-.4583-.66-.912-.994-1.3658-.326-.4399-.656-.8799-.986-1.3198-.009-.0092-.013-.0184-.022-.0275-.014-.0138-.023-.0321-.037-.0459-.316-.4216-.637-.8387-.958-1.2557-.348-.4491-.697-.8937-1.0449-1.3336-.0596-.0734-.1192-.1513-.1787-.2246-.3117-.3896-.6233-.7745-.935-1.1595-.032-.0367-.0641-.0733-.0916-.1146-.2062-.252-.4079-.4949-.6141-.7424-.1513-.1787-.2979-.3621-.4492-.5408-.0275-.0321-.0504-.0596-.0779-.0917-.307-.3666-.6141-.7241-.9211-1.0815-.0825-.0963-.1696-.1971-.2521-.2979-.0092-.0092-.0138-.0184-.0229-.0275-.4216-.4904-.8433-.9716-1.2695-1.4482-.0275-.0321-.055-.0642-.0825-.0963-.0825-.0916-.1696-.1833-.2521-.275-.3437-.3849-.6874-.7653-1.0357-1.1411-.0687-.0733-.1375-.1512-.2062-.2292-.0688-.0779-.1421-.1512-.2154-.2245-.4125-.4446-.8204-.8799-1.2328-1.3107-.0642-.0642-.1238-.133-.1879-.1971-.0184-.0183-.0367-.0367-.055-.055-.5225-.5408-1.045-1.0724-1.5674-1.5949-.055-.055-.11-.1146-.165-.1695-.0642-.0642-.1283-.1238-.1925-.1879-.5637-.5592-1.1274-1.1091-1.6957-1.6453-.0091-.0092-.0183-.0184-.0275-.0275-.0275-.0275-.0595-.055-.087-.0825-.5775-.5454-1.1549-1.077-1.7324-1.5949-.0596-.0504-.1146-.11-.1742-.1604-.0275-.0275-.0595-.0504-.087-.0779-.5866-.527-1.1733-1.0357-1.7645-1.5399-.055-.0504-.1145-.1008-.1695-.1512s-.1146-.0917-.1696-.1421c-.582-.4949-1.1687-.9761-1.7553-1.4436-.0275-.0229-.0596-.0504-.0871-.0733-.0595-.0459-.1191-.0917-.1787-.1375-.5637-.4492-1.132-.8891-1.6957-1.3153-.0366-.0275-.0733-.0596-.11-.0825-.0137-.0092-.0275-.0184-.0366-.0275-.5729-.4308-1.1504-.8479-1.7232-1.2512-.0642-.0458-.1238-.0916-.1879-.1375-.055-.0366-.1054-.0733-.1604-.1099-.5591-.3896-1.1183-.77-1.6728-1.13662-.0321-.01833-.0596-.04125-.0917-.05958-.0641-.04124-.1237-.07791-.1833-.11915-.5224-.33914-1.0403-.66911-1.5582-.98534-.055-.03208-.1054-.06874-.1604-.10082-.0229-.01375-.0412-.02292-.0641-.03667-.5546-.33455-1.1045-.65536-1.6545-.967-.0596-.03208-.1146-.06874-.1742-.10082-.0595-.03208-.1191-.06417-.1787-.09625-.5545-.30705-1.1091-.60495-1.659-.88909-.0183-.00916-.0321-.01833-.0504-.0275-.0459-.02291-.0871-.04124-.1329-.06416-.5317-.27039-1.0587-.52704-1.5857-.76993-.0596-.0275-.1238-.05958-.1834-.08708-.0504-.02291-.0962-.04125-.1466-.06416-.1237-.055-.2475-.10999-.3712-.16957-.2338-.10541-.4629-.20623-.6966-.30706-.1329-.05958-.2704-.11457-.4033-.16957-.1009-.04124-.2017-.08707-.3025-.12832-.1192-.05041-.2383-.09624-.3621-.14207-.1375-.055-.2795-.10999-.417-.16499-.2292-.08707-.4583-.17415-.6875-.25664-.1237-.04583-.252-.09166-.3758-.13749-.0366-.01375-.0779-.0275-.1145-.04125-.2154-.07791-.4262-.14665-.6416-.2154-.1055-.03666-.2109-.07332-.3163-.1054-.3483-.11458-.7012-.22457-1.0495-.32539-.0091 0-.0183-.00459-.0275-.00917-.3941-.11457-.7882-.22456-1.1778-.32539-.1191-.03208-.2383-.05958-.362-.08708-.165-.04124-.3346-.08707-.4996-.12374-.1008-.02291-.197-.04124-.2979-.06416-.1512-.03208-.3024-.06416-.4537-.09624-.2475-.05041-.4949-.10082-.7378-.14207-.1421-.0275-.2888-.055-.4308-.07791-.0642-.00917-.1329-.02292-.1971-.03666-.1741-.0275-.3437-.05042-.5179-.07333-.1558-.02292-.3116-.04583-.4674-.06416-.2521-.03208-.4996-.055-.7516-.0825-.1329-.01374-.2658-.02749-.3988-.04124-.0229 0-.0458-.00459-.0641-.00459-.1696-.01374-.3392-.01833-.5041-.02749-.2017-.01375-.4079-.0275-.6096-.03667-.1879-.00458-.3712-.00458-.5545-.00916-.2017 0-.3987-.00917-.6004-.00459-.0229 0-.0458 0-.0687 0-.0963 0-.1925.00917-.2887.01375-.2934.00917-.5821.01833-.8708.03667-.1512.00916-.2979.02291-.4446.03666-.252.02292-.5041.04583-.7561.07791-.0688.00917-.1421.01375-.2109.02292-.1374.01833-.2749.04124-.4124.06416-.0871.01375-.1742.02749-.2613.04124-.3162.055-.6278.11458-.9349.18332-.0504.00917-.1008.02292-.1466.03666-.2613.05958-.5179.12374-.7745.19707-.0917.0275-.1834.05041-.275.07791-.0917.0275-.1788.05041-.2704.07791-.11.03208-.22.07333-.3254.10999-.1283.04125-.2612.08708-.3896.13291-.1879.06874-.3758.14207-.5637.2154-.1191.04583-.2383.09166-.3574.14207-.2017.08707-.3987.17873-.6004.27039-.0962.04583-.1971.08708-.2933.13291-.2933.14207-.582.29331-.8662.45371l-6.5582 3.67553c.2842-.1604.5729-.30706.8662-.45371.0962-.04583.1971-.08708.2933-.13291.1971-.09166.3987-.18332.6004-.27039.1191-.05042.2383-.09625.3574-.14208.1879-.07332.3713-.14665.5637-.21539.1284-.04583.2567-.08708.3896-.13291.1971-.06416.3941-.12832.5958-.1879.0916-.0275.1833-.055.2749-.07791.2567-.06875.5133-.13749.7792-.19707.0504-.00916.0962-.02291.1466-.03666.3071-.06875.6233-.12832.9395-.18332.0871-.01375.1742-.0275.2612-.04125.2063-.03208.4171-.05957.6233-.08707.2475-.03208.4996-.055.7562-.07791.1467-.01375.2979-.0275.4446-.03667.2887-.01833.5774-.03208.8707-.03666.1192 0 .2383-.00917.3621-.01375.197 0 .3941 0 .5912.00458.1879 0 .3712 0 .5591.00917.2016.00917.4033.02292.6049.03666.1925.01375.3804.01834.5729.03667.1329.00916.2658.0275.3941.04124.2475.02292.4996.05042.7516.0825.1559.01833.3117.04583.4675.06416.2383.03208.4721.06874.7104.10999.142.02291.2887.05041.4308.07791.2429.04583.4903.09166.7378.14207.1513.03208.3025.06416.4537.09624.2658.05958.5317.11916.7975.1879.1191.03208.2383.05958.362.09166.3896.10083.7791.20624 1.1778.32539.3575.10541.715.2154 1.0724.33456.1055.03666.2154.07333.3209.10999.2474.08249.4995.16957.747.25664.1237.04583.252.09166.3804.13749.2291.0825.4537.16957.6828.25665.1375.05499.2796.10999.4171.16498.2199.08708.4399.17874.6645.2704.1329.05499.2704.11457.4033.16957.2291.10082.4629.20165.692.30247.1238.055.2521.10999.3758.16957.11.05041.22.10083.3254.15582.527.24748 1.0541.49954 1.5857.76996.0596.0321.1238.0596.1833.0916.55.2842 1.1045.5821 1.6591.8891.1191.0642.2383.1329.3528.1971.55.3116 1.1045.6324 1.6545.967.0733.0458.1512.0917.2246.1375.5178.3162 1.0357.6462 1.5582.9853.0916.0596.1833.1192.2795.1788.5591.3666 1.1137.747 1.6728 1.1365.1146.0825.2337.165.3483.2475.5729.4079 1.1457.8204 1.7232 1.2512.0504.0366.1008.0779.1512.1145.5637.4262 1.132.8662 1.6957 1.3153.0871.0688.1742.1375.2658.2109.5866.4674 1.1687.9486 1.7553 1.4436.1146.0962.2292.1925.3391.2887.5867.4995 1.1779 1.0128 1.7645 1.5399.0871.0779.1787.1604.2658.2383.5774.5224 1.1549 1.0541 1.7323 1.5949.0367.0366.078.0733.1146.1099.5683.5363 1.132 1.0908 1.6957 1.6499.1192.1192.2383.2337.3575.3529.5224.5225 1.0495 1.0541 1.5674 1.5949.0779.0825.1604.1695.2383.252.4124.4308.8249.8708 1.2328 1.3108.1421.1512.2795.3024.4216.4537.3483.3758.692.7607 1.0358 1.1457.11.1237.2199.2429.3299.3666.4262.4767.8479.9625 1.2741 1.4528.0871.1009.1741.2063.2612.3071.3117.362.6233.7287.9304 1.0999.1741.2062.3483.4171.5224.6279.2063.2474.4125.4995.6187.7516.3437.4216.6875.8432 1.0266 1.274.7379.9258 1.4665 1.8653 2.1861 2.814.0091.0137.0229.032.0366.0458.7104.9395 1.407 1.8836 2.0944 2.8414.0413.0596.0825.1146.1238.1742.6645.9257 1.3199 1.8607 1.9615 2.8047.0504.0734.1008.1513.1512.2292.5174.7653 1.0314 1.5353 1.5354 2.3144.234.362.472.7241.701 1.0861.339.5271.674 1.0633 1.004 1.5949.348.5637.696 1.1228 1.04 1.6911.303.495.6.9945.894 1.4986.334.5683.669 1.1412.999 1.7141.325.5683.646 1.1365.967 1.7048.202.3621.403.7241.6 1.0862.481.8845.958 1.769 1.421 2.6581.046.0825.087.1696.133.2566.509.9854 1.008 1.9707 1.494 2.9652.041.0825.082.1696.124.2521.481.9853.948 1.9752 1.407 2.9697.041.0871.078.1742.119.2567.481 1.0495.953 2.1035 1.407 3.1576.009.0184.013.0367.023.055.449 1.0495.889 2.099 1.31 3.1531.042.1008.083.2016.12.307.398.9991.788 1.9982 1.159 3.0019.046.1237.092.2475.137.3666.349.9395.683 1.879 1.009 2.8231.041.1146.082.2292.119.3392.33.967.646 1.934.953 2.901.087.2704.17.5453.252.8157.294.9487.582 1.8974.853 2.8415.091.3254.178.6462.265.967.216.7745.422 1.5444.615 2.3098v.0091c.201.7837.385 1.5628.563 2.3373.037.1604.074.3208.11.4767.174.7562.335 1.5078.486 2.2548.028.1329.05.2612.078.3895.142.7012.275 1.3978.399 2.0899.018.0916.036.1833.05.2749.128.7333.248 1.462.358 2.1861.022.1558.045.3116.068.4677.106.719.207 1.439.289 2.145.009.077.018.155.028.238.077.669.151 1.334.21 1.993.014.124.023.243.037.367.064.697.115 1.384.156 2.067.009.138.018.275.023.412.041.706.073 1.403.091 2.09v.142c.019.692.023 1.371.019 2.044v.294c-.009.696-.028 1.384-.06 2.062-.004.119-.009.238-.018.357-.037.702-.087 1.389-.147 2.067-.014.175-.032.353-.05.527-.019.202-.041.404-.064.601-.023.211-.051.421-.078.632-.023.197-.051.394-.078.587-.028.192-.055.385-.083.577-.036.229-.068.459-.11.688-.032.183-.064.371-.096.554-.041.225-.082.445-.124.669-.032.175-.068.344-.105.518-.055.271-.115.536-.179.802-.037.152-.069.307-.105.459-.074.288-.147.577-.225.861-.032.115-.059.234-.091.348-.124.445-.257.885-.399 1.316-.037.11-.074.215-.11.321-.11.334-.229.664-.348.99-.046.128-.092.252-.143.38-.096.257-.201.504-.302.756-.05.115-.096.234-.147.353-.155.362-.316.715-.481 1.063-.151.316-.312.628-.472.935-.037.073-.078.142-.115.216-.215.403-.439.792-.673 1.173-.028.046-.055.087-.083.128-.247.394-.495.779-.76 1.146 0 .004-.01.014-.014.018-.261.367-.532.72-.811 1.063-.028.033-.055.069-.078.101-.271.326-.546.642-.83.944-.041.046-.087.092-.128.138-.28.293-.564.573-.857.843-.051.046-.101.092-.151.138-.294.265-.596.522-.903.765-.051.037-.096.078-.147.115-.316.242-.637.481-.967.701-.037.023-.073.046-.11.068-.348.23-.701.45-1.063.651l6.558-3.675c.362-.202.715-.422 1.063-.651.037-.023.074-.046.11-.069.33-.22.651-.458.967-.701.051-.037.097-.073.147-.115.307-.242.61-.499.903-.765.05-.046.101-.092.151-.137.293-.271.577-.55.857-.844.041-.046.087-.091.128-.137.285-.303.56-.619.83-.944.027-.032.055-.069.078-.101.279-.344.55-.697.811-1.063 0-.005.009-.014.014-.019.261-.366.513-.751.761-1.145.027-.046.055-.087.082-.129.234-.38.458-.77.674-1.173.018-.037.041-.069.064-.11.018-.037.037-.073.055-.105.16-.307.321-.614.472-.931.165-.348.325-.701.481-1.063.051-.115.096-.234.147-.353.105-.247.206-.499.302-.756.023-.055.046-.11.069-.165.027-.069.05-.142.073-.215.119-.326.234-.656.349-.986.036-.11.073-.215.11-.325.137-.431.27-.866.394-1.311.004-.023.013-.041.018-.059.028-.097.05-.198.078-.294.078-.284.151-.568.22-.857.037-.151.073-.307.105-.458.06-.266.12-.532.179-.802.018-.083.037-.156.055-.238.018-.092.032-.188.051-.28.041-.22.087-.444.123-.669.032-.183.064-.367.096-.555.037-.229.074-.453.11-.687.019-.115.037-.229.055-.344.01-.078.019-.156.033-.233.027-.193.05-.39.077-.587.028-.211.051-.417.078-.633.023-.197.042-.398.065-.6.013-.124.027-.247.041-.371.004-.051.004-.106.009-.156.06-.678.11-1.37.147-2.067 0-.055.009-.105.009-.16 0-.064 0-.133.004-.197.032-.679.051-1.366.06-2.067 0-.032 0-.06 0-.092 0-.064 0-.133 0-.197z"/></g><path d="m113.19 14.8038c0-.1237 0-.2474 0-.3712 0-.0687 0-.1375 0-.2016 0-.0321 0-.0596 0-.0917 0-.417-.013-.8203-.032-1.2145 0-.0275 0-.0595 0-.087 0-.0321-.004-.0642-.009-.0963-.018-.3804-.046-.7516-.082-1.1091 0-.0183 0-.0412-.005-.0641 0-.0321-.009-.0596-.009-.0917-.037-.3575-.083-.7012-.133-1.0311 0-.0092 0-.023 0-.0367 0-.0229-.009-.0458-.014-.0688-.055-.3391-.119-.66907-.188-.98071 0 0 0 0 0-.00458 0 0 0-.00917 0-.01375-.073-.31622-.151-.60953-.243-.89367-.004-.01375-.009-.03208-.013-.05042 0-.00916-.005-.01833-.01-.02749-.018-.06417-.041-.11916-.059-.18332-.032-.09166-.064-.1879-.096-.27498-.023-.06416-.046-.12374-.074-.18332-.027-.06416-.05-.1329-.078-.19248-.009-.01833-.013-.03208-.023-.05041-.027-.06416-.054-.12374-.082-.1879-.032-.07333-.069-.14666-.105-.21999-.032-.05957-.06-.11915-.092-.17415-.023-.04583-.05-.09624-.073-.14207-.014-.01833-.023-.04125-.037-.05958-.037-.05958-.069-.11457-.105-.17415-.037-.05958-.078-.11916-.115-.17874-.037-.05499-.073-.1054-.115-.1604-.027-.03666-.05-.07333-.078-.10541-.013-.01833-.032-.03666-.045-.05499-.042-.055-.087-.10541-.129-.15582-.041-.05042-.082-.09624-.128-.14207s-.092-.09166-.137-.13749c-.028-.0275-.055-.05958-.088-.08708-.013-.01375-.032-.02291-.045-.03666-.055-.04583-.106-.09166-.161-.13749-.046-.03666-.087-.07333-.133-.10541-.055-.04125-.114-.08249-.174-.11916-.037-.02291-.069-.05041-.101-.06874-.009-.00458-.018-.00917-.032-.01833-.114-.06875-.233-.13291-.353-.1879l-7.598-3.50596c.124.05499.238.11916.353.1879.046.0275.087.05958.133.08708.059.03666.119.07791.174.11915.046.03208.087.06875.133.10541.055.04583.11.08708.16.13749.046.04125.087.08249.133.12374.046.04583.092.09166.137.13749.042.04583.083.09166.124.14207.046.05041.087.10082.129.15582.041.05041.082.10541.119.1604.036.05041.078.10541.114.16041.042.05957.078.11915.115.17873.037.055.073.11457.105.17415.037.06416.074.13291.11.20165.032.05958.064.11458.092.17416.037.07332.069.14665.105.21998.028.05958.055.12374.083.18332.036.07791.069.16498.101.24747.023.05958.05.11916.073.18332.032.09166.064.18332.096.27498.019.05958.041.11916.06.17873.009.02292.014.05042.023.07791.087.28415.169.58204.243.89368v.01833c.073.31164.132.64162.187.98534.005.03208.014.06416.019.10082.05.32997.096.67828.133 1.03117.004.05041.009.10082.018.15123.037.35747.06.72869.083 1.10908 0 .05958.004.11915.009.18332.018.38955.027.79739.032 1.21449v.2933.3712c0 .1329 0 .2658-.005.3987 0 .1284-.004.2521-.009.3804 0 .1329-.009.2704-.014.4033-.004.1421-.013.2842-.018.4262-.005.1375-.014.275-.023.4125-.009.1467-.018.2887-.027.44-.01.1375-.019.2749-.028.417-.014.165-.023.33-.037.495-.009.1375-.023.2795-.036.4216-.014.1696-.032.3391-.051.5133-.013.1375-.027.2796-.041.4216-.023.1971-.041.3987-.069.6004-.013.1329-.032.2704-.046.4079-.027.2154-.055.4354-.082.6553-.018.1238-.032.2475-.046.3713-.05.362-.101.7286-.156 1.1044-.004.0413-.013.0825-.018.1238-.05.3345-.101.6737-.156 1.0174-.05.3071-.101.6141-.151.9258-.128.7516-.27 1.5261-.426 2.3052-.023.1237-.051.252-.074.3758-.142.7149-.293 1.439-.449 2.1769-.096.4445-.201.8982-.302 1.3474-.101.4445-.197.8845-.307 1.3336-.064.275-.138.5546-.202.8295-.147.5958-.293 1.1916-.449 1.8011-.06.2292-.119.4583-.179.6875-.206.7837-.412 1.5719-.637 2.3739-.009.0275-.014.0505-.023.078-.261.944-.536 1.9019-.82 2.8735 0 .0137-.009.0275-.014.0412-.275.9349-.563 1.8836-.8568 2.8414-.0183.0642-.0413.1284-.0596.1879-.2933.9487-.6004 1.9066-.9166 2.8736-.0137.0504-.0321.0962-.0458.1466-.3208.9899-.6554 1.9844-.9991 2.9927-.0092.0229-.0183.0458-.0229.0733-.3437 1.0128-.7012 2.0348-1.0678 3.066-.0138.0367-.0229.0687-.0367.1054-.3575 1.0128-.7287 2.0348-1.1091 3.0614-.055.1513-.1145.3025-.1695.4537-.3025.8158-.6096 1.6316-.9258 2.4565-.1054.2796-.2108.5545-.3208.8341-.3575.9303-.7195 1.8653-1.0953 2.8048-.0184.0504-.0413.1008-.0596.1558-.4216 1.0632-.8524 2.1265-1.2878 3.1989-.0275.0641-.0504.1237-.0779.1879-.44 1.077-.8937 2.1585-1.352 3.2493-.0137.0321-.0275.0642-.0412.0962-.4721 1.1183-.9533 2.2411-1.4437 3.3685-.4903 1.1274-.9899 2.2502-1.4894 3.3685-.0092.0229-.0184.0412-.0275.0641-.495 1.1091-.9991 2.2136-1.5078 3.3089-.0092.0229-.0184.0413-.0275.0642-.5041 1.0861-1.0083 2.1677-1.5216 3.2447-.0229.0458-.0412.0871-.0641.1329-.4996 1.0495-.9991 2.0899-1.5032 3.1256-.0321.0687-.0688.1375-.1008.2062-.5133 1.0495-1.0312 2.0944-1.5491 3.1302-.0137.0275-.0275.055-.0412.0871-.5225 1.0403-1.0449 2.0715-1.5766 3.0935-.0321.0641-.0641.1237-.0962.1879-.4675.9028-.9349 1.7965-1.407 2.6901-.0825.1605-.1695.3209-.252.4767-.4858.912-.9716 1.8194-1.462 2.7131-.1283.2337-.2521.4629-.3804.692-.3804.692-.7562 1.3749-1.1366 2.0532-.1649.2933-.3253.582-.4903.8707-.385.6829-.7746 1.3612-1.1595 2.0392-.1329.229-.2658.468-.3987.697-.5225.898-1.0404 1.787-1.5628 2.667-.11.183-.22.362-.3254.546-.4171.701-.8387 1.393-1.2557 2.076-.2017.33-.4079.655-.6096.985-.33.536-.6645 1.068-.9945 1.595-.2429.38-.4812.756-.7241 1.132-.3025.472-.6049.939-.9074 1.407-.2796.426-.5591.852-.8341 1.274-.3529.531-.7058 1.068-1.0587 1.586-.0687.1-.1375.206-.2062.307-.5408.792-1.077 1.576-1.6178 2.341-.4399.628-.8799 1.238-1.3107 1.838-.0733.101-.1512.206-.2246.307-.3391.463-.6737.921-1.0082 1.371-.055.073-.1054.142-.1604.215-.2842.38-.5683.752-.8479 1.118-.1283.17-.2566.335-.3849.5-.1009.128-.2017.261-.3025.389-.1558.202-.3162.404-.4721.601-.0916.119-.1879.233-.2795.353-.1787.224-.3621.449-.5408.669-.0642.082-.1329.165-.1971.243-.2429.297-.4812.586-.7195.875-.3437.408-.6783.807-1.0174 1.191-.0825.097-.165.188-.2475.285-.3162.357-.6279.71-.9349 1.054-.0229.027-.0504.055-.0733.082-.3254.362-.6508.706-.9716 1.045-.0779.083-.1604.17-.2383.252-.3025.316-.605.628-.9029.921-.0183.019-.0412.042-.0596.06-.3116.312-.6187.609-.9257.898-.0779.074-.1512.142-.2246.211-.2887.27-.5774.536-.8616.788-.0137.014-.0321.028-.0504.046-.2979.261-.5866.509-.8753.747-.0734.06-.1421.119-.2154.179-.275.224-.55.44-.8204.646-.0137.009-.0275.018-.0366.032-.2796.211-.5546.403-.825.591-.0687.046-.1375.092-.2016.138-.2612.179-.5225.348-.7745.499-.0092.005-.0184.01-.023.014-.2612.161-.5178.303-.7699.435-.0642.033-.1237.065-.1879.097-.2475.128-.4904.247-.7241.348-.0046 0-.0137.005-.0183.009-.2429.106-.4767.193-.7104.275-.0596.019-.1146.041-.1741.06-.2292.073-.4538.142-.6737.192h-.0046c-.22.051-.4354.087-.6508.11-.0504.005-.1054.014-.1558.019-.2108.018-.4171.032-.6187.027-.5912-.014-1.132-.133-1.6178-.357l7.5985 3.506c.4904.224 1.0266.343 1.6178.357.2017 0 .4079-.009.6187-.027.0504-.005.1054-.01.1558-.019.2109-.027.4263-.059.6508-.11h.0046c.22-.05.4445-.119.6737-.192.0596-.019.1146-.037.1741-.06.2338-.082.4675-.169.7104-.275.0046 0 .0138-.004.0183-.009.2384-.105.4812-.225.7241-.348.0642-.032.1238-.064.1879-.097.2521-.132.5088-.279.77-.435.0091-.005.0183-.009.0229-.014.2566-.156.5133-.325.7745-.499.0688-.046.1329-.092.2017-.138.2704-.188.5453-.38.8249-.591.0137-.009.0275-.018.0367-.027.2704-.202.5453-.422.8203-.647.0733-.059.1421-.114.2154-.174.2887-.238.582-.486.8753-.747.0138-.014.0321-.027.0459-.041.2841-.252.5728-.518.8616-.788.0779-.069.1512-.142.2291-.216.3071-.288.6141-.586.9258-.898.0183-.018.0412-.041.0596-.06.2978-.297.5957-.604.9028-.921.0779-.082.1604-.165.2383-.252.3208-.339.6416-.683.9716-1.045.0229-.027.0504-.055.0733-.082.3071-.339.6187-.692.9349-1.05l.2475-.288c.3346-.39.6737-.784 1.0129-1.192.0045-.005.0091-.014.0183-.018.2337-.28.4675-.569.7058-.857.0641-.078.1329-.161.197-.243.1788-.22.3621-.445.5408-.674.0917-.114.1788-.229.2704-.344.1604-.201.3208-.403.4812-.609.0963-.124.1971-.252.2933-.381.0825-.105.165-.21.2475-.316.0458-.059.0963-.123.1421-.188.2795-.366.5637-.738.8478-1.118.055-.073.1054-.142.1604-.215.3346-.449.6691-.903 1.0083-1.371.0321-.041.0596-.082.0916-.123.0413-.06.0871-.124.1329-.184.4354-.6.8708-1.21 1.3108-1.837.1787-.257.362-.514.5408-.775.3574-.513.7149-1.04 1.077-1.567.0687-.101.1374-.202.2062-.307.1787-.262.3575-.523.5316-.793.1742-.261.3483-.532.5225-.798.2795-.421.5545-.843.8341-1.269.11-.17.2154-.33.3254-.495.1924-.298.3895-.61.582-.912.2383-.376.4812-.752.7195-1.132.0917-.147.1879-.289.2796-.44.2383-.38.4766-.77.7149-1.155.2017-.33.4079-.655.6095-.985.0596-.101.1238-.197.1834-.294.3574-.586.7195-1.187 1.077-1.787.1099-.179.2154-.357.3253-.536.0184-.028.0321-.055.0505-.083.4674-.788.9349-1.581 1.4023-2.383.0367-.064.078-.133.1146-.197.1329-.229.2658-.467.4033-.701.2796-.486.5591-.967.8341-1.457.11-.193.2154-.385.3254-.578.165-.289.3254-.582.4904-.875.1604-.284.3208-.564.4766-.853.22-.398.44-.802.6599-1.2004.1284-.2337.2567-.4629.3804-.6966.0596-.11.1192-.2154.1788-.3254.3803-.7012.7607-1.4069 1.1365-2.1173.0504-.0917.0963-.1833.1467-.275.0825-.1558.1696-.3162.2521-.4766.2108-.3987.4216-.7974.6324-1.2007.2566-.495.5179-.99.7745-1.4895.0321-.0642.0642-.1237.0963-.1879.0137-.0321.032-.0596.0458-.0917.2841-.5453.5637-1.0999.8433-1.6498.2291-.4492.4537-.8983.6782-1.3474.0138-.0321.0321-.0596.0459-.0917.0091-.0183.0183-.0412.032-.0596.2246-.4491.4538-.9028.6783-1.3565.2108-.4262.4216-.8524.6325-1.2787.0687-.142.1375-.2841.2062-.4262.0367-.0733.0687-.142.1054-.2154.0871-.1741.1742-.3528.2567-.527.1787-.3621.3528-.7287.527-1.0953.1696-.3575.3437-.715.5133-1.0724.0687-.1421.1329-.2796.2016-.4217.0229-.0458.0459-.0962.0688-.142.0596-.1284.1237-.2567.1833-.385.1512-.3162.2979-.637.4491-.9533.1421-.307.2887-.6141.4308-.9211.1329-.2888.2658-.5775.3987-.8616.0184-.0413.0367-.0779.055-.1192.0092-.0229.0184-.0412.0275-.0641.1054-.2292.2109-.4538.3163-.6829.1283-.2842.2612-.5683.3895-.8524.1237-.2704.2475-.5408.3712-.8112.1238-.2704.2429-.5408.3667-.8158.0229-.0458.0412-.0917.0641-.1375.0092-.0275.0229-.0504.0321-.0779.0917-.2016.1787-.3987.2704-.6004.1192-.2703.2429-.5407.3621-.8157.1191-.2704.2383-.5454.362-.8158.1192-.2704.2383-.5454.3575-.8157.0458-.1055.0916-.2109.1375-.3117.0779-.1787.1558-.3575.2337-.5362.1237-.2887.2521-.582.3758-.8708.1237-.2887.2475-.5774.3712-.8661.1329-.3117.2658-.6233.3987-.935.0229-.0504.0413-.1008.0642-.1512.0137-.0321.0275-.0687.0412-.1008.1054-.2521.2109-.5041.3163-.7516.142-.3346.2795-.6691.417-1.0037.1787-.4308.3575-.8616.5316-1.2924.0275-.0641.055-.1283.0779-.197.0275-.0642.055-.1284.078-.1925.1329-.3254.2658-.6508.3987-.9762.2981-.7333.5861-1.4574.8751-2.1861.005-.0137.009-.0229.014-.0366.023-.055.041-.11.064-.165.371-.9349.733-1.8653 1.091-2.7956.11-.2796.215-.5591.321-.8387.114-.3025.233-.6095.348-.9074.197-.5179.385-1.0312.577-1.5491.055-.1466.11-.2979.165-.4491.023-.0596.046-.1191.069-.1787.197-.5316.39-1.0587.578-1.5857.142-.3942.284-.7929.426-1.187.014-.0367.023-.0733.036-.1054.014-.0367.023-.0688.037-.1054.115-.3163.225-.6371.335-.9487.119-.3437.238-.6874.357-1.0266.115-.33.229-.6599.339-.9853.009-.0321.023-.0642.032-.0963.01-.0229.019-.0504.028-.0733.092-.2704.183-.5362.275-.8066.11-.3208.215-.6416.321-.9578.105-.3208.21-.6371.316-.9533.032-.0916.059-.1833.092-.275.013-.0458.032-.0916.045-.1374.06-.1879.124-.3758.184-.5592.105-.3299.211-.6553.316-.9853.105-.3346.211-.6645.316-.9991.037-.1146.069-.2245.106-.3345.018-.0642.036-.1238.059-.1879.06-.1925.119-.385.179-.5729.11-.3666.22-.7287.33-1.0907.119-.3942.238-.7883.353-1.1824 0-.0138.009-.0275.013-.0413 0-.0137.01-.0229.01-.0367.128-.4308.252-.857.371-1.2832.147-.5133.289-1.022.431-1.5261 0-.0092.004-.0183.009-.0275.009-.0275.014-.0504.023-.0779.146-.5408.293-1.0724.435-1.6041.069-.2612.133-.5178.202-.7745.059-.2291.119-.4583.179-.6828.045-.1696.091-.3438.132-.5133.11-.4354.211-.857.317-1.2878.068-.275.137-.5546.201-.8295.019-.0734.037-.1467.055-.22.087-.3758.165-.7425.252-1.1137.101-.4491.207-.9028.303-1.3474.014-.0641.032-.1329.046-.2016.142-.6691.275-1.3245.408-1.9753.022-.1237.05-.252.073-.3758.027-.1466.059-.2979.087-.4445.119-.6279.234-1.2512.335-1.8607.045-.275.091-.55.137-.8249.005-.0321.009-.0688.014-.1009.055-.3437.11-.6828.156-1.0174.004-.0412.013-.0825.018-.1237.055-.3758.105-.7425.156-1.1045 0-.0229.009-.0504.009-.0733.014-.1009.023-.1971.037-.2979.027-.22.055-.44.082-.6554.018-.1375.032-.2704.046-.4079.023-.2016.046-.3987.064-.5958.005-.0595.014-.1191.018-.1741.01-.0871.014-.1696.023-.2521.019-.1695.032-.3391.046-.5087.014-.142.023-.2795.037-.4216.014-.165.027-.3346.036-.495.005-.0733.014-.1466.019-.2154.004-.0687.009-.1329.014-.197.009-.1467.018-.2933.027-.4354.009-.1375.014-.275.023-.4125.009-.142.014-.2841.018-.4262 0-.0733.009-.1512.009-.2246 0-.0595 0-.1191 0-.1787 0-.1283.005-.2566.01-.3804 0-.1329.004-.2658.004-.3987z" stroke="#fff"/></g></svg>