<svg fill="none" height="142" viewBox="0 0 120 142" width="120" xmlns="http://www.w3.org/2000/svg"><g fill="#000" stroke-miterlimit="10"><g stroke="#494949"><path d="m60.0143 141c18.5915 0 33.6628-15.071 33.6628-33.663 0-18.5912-15.0713-33.6625-33.6628-33.6625-18.5914 0-33.6627 15.0713-33.6627 33.6625 0 18.592 15.0713 33.663 33.6627 33.663z"/><path d="m60.0143 131.028c18.5915 0 33.6628-15.072 33.6628-33.663 0-18.5914-15.0713-33.6627-33.6628-33.6627-18.5914 0-33.6627 15.0713-33.6627 33.6627 0 18.591 15.0713 33.663 33.6627 33.663z"/><path d="m60.0143 120.576c18.5915 0 33.6628-15.071 33.6628-33.6623 0-18.5914-15.0713-33.6627-33.6628-33.6627-18.5914 0-33.6627 15.0713-33.6627 33.6627 0 18.5913 15.0713 33.6623 33.6627 33.6623z"/></g><path d="m60.0143 110.125c18.5915 0 33.6628-15.0711 33.6628-33.6625s-15.0713-33.6628-33.6628-33.6628c-18.5914 0-33.6627 15.0714-33.6627 33.6628s15.0713 33.6625 33.6627 33.6625z" stroke="#888"/><path d="m60.0143 99.6793c18.5915 0 33.6628-15.0713 33.6628-33.6628 0-18.5914-15.0713-33.6627-33.6628-33.6627-18.5914 0-33.6627 15.0713-33.6627 33.6627 0 18.5915 15.0713 33.6628 33.6627 33.6628z" stroke="#494949"/><path d="m12.3963 72.3656c0-.0898.0106-.1849.0159-.2748.0211-.3381.0528-.6763.0845-1.0144.0106-.0899.0211-.185.0317-.2748.0264-.2166.0528-.4385.0845-.6552.0159-.1162.037-.2325.0529-.354.0317-.1902.0581-.3857.0951-.5759.0211-.1321.0475-.2642.074-.3963.0317-.1638.0634-.3276.1004-.4914.0264-.1321.0581-.2695.0898-.4016.037-.1638.0739-.3223.1162-.4861.037-.1373.0687-.2747.111-.4121.037-.1479.0792-.2906.1215-.4385.0423-.1374.0793-.2801.1215-.4175.0423-.1426.0899-.2906.1374-.4332.0476-.1427.0951-.2854.1427-.4227.0422-.1321.0898-.2589.1373-.391.0529-.1427.1057-.2853.1586-.428.0475-.1268.0951-.2589.1479-.3857.037-.0951.074-.185.111-.2801.1902-.4596.3857-.9193.6023-1.3737.0317-.0634.0581-.1216.0898-.185.2167-.4491.4439-.8982.6816-1.342.0265-.0476.0529-.0899.0793-.1374.2536-.4597.5178-.9141.7926-1.3632.0105-.0212.0264-.037.0369-.0581.2854-.4544.5813-.9088.893-1.3527.0106-.0211.0264-.037.037-.0581.317-.4544.6499-.9035.9933-1.3474.0264-.0317.0529-.0687.0793-.1004.3434-.4385.7027-.8718 1.0726-1.2998.0317-.0369.0634-.0792.1004-.1162.391-.4438.7925-.8824 1.2047-1.3157.0317-.0317.0581-.0634.0845-.0898.4597-.4755.9352-.9405 1.4266-1.4002 0 0 .0053-.0053.0106-.0105.2483-.2325.5072-.465.7608-.6922.0793-.074.1638-.1427.2484-.2114.1796-.1532.3593-.3117.5389-.4649.0898-.0793.185-.1533.2748-.2272.1955-.1585.391-.3171.5865-.4756.1057-.0845.2113-.169.317-.2483.1902-.1479.3857-.3012.5812-.4438.1004-.0793.2061-.1533.3065-.2325.3276-.2431.6604-.4808.9933-.7186.0053 0 .0106-.0106.0212-.0106.3328-.2325.671-.4544 1.0091-.6816.0899-.0581.1797-.1162.2748-.1796.3804-.2484.7661-.4914 1.1571-.7292.0265-.0158.0476-.0317.074-.0475.4121-.2484.8296-.4914 1.2523-.7292.0845-.0476.1743-.0951.2589-.1479.5336-.2959 1.0726-.5865 1.6274-.8666.0792-.037.1532-.0792.2324-.1162.5548-.2801 1.1149-.5495 1.6856-.8084.0792-.037.1585-.074.243-.111.5759-.2589 1.1572-.5125 1.7489-.7556.0846-.0317.1638-.0687.2484-.1004.5918-.243 1.1941-.4702 1.807-.6921.0846-.0317.1691-.0634.2536-.0899.6129-.2219 1.2311-.4279 1.8599-.634.0846-.0264.1691-.0528.2589-.0845.6288-.2008 1.2628-.3858 1.9074-.5654.0846-.0264.1744-.0476.2642-.074.6447-.1743 1.2998-.3434 1.955-.5019.0899-.0212.1797-.0423.2642-.0634.6605-.1533 1.3262-.2959 2.0026-.428.0898-.0159.1796-.037.2641-.0529.6764-.1321 1.358-.2483 2.0448-.3593.0899-.0158.1797-.0264.2695-.0422.6922-.1057 1.3844-.2008 2.0871-.2853.0951-.0106.1849-.0212.28-.0318.6288-.0739 1.2576-.1373 1.8916-.1902.1057-.0105.2167-.0158.3223-.0264.6394-.0528 1.2787-.0951 1.9233-.1268.1268-.0053.2589-.0106.3857-.0158.3646-.0159.7292-.0317 1.0991-.0423.1426 0 .2853-.0106.4332-.0106.4914-.0106.9881-.0158 1.4848-.0158h.5653c.3276 0 .6499.0052.9722.0158.1638 0 .3276.0106.4914.0159.3065.0105.6129.0211.9194.037.1638.0052.3276.0158.4861.0211.2642.0158.5284.0317.7978.0475.1638.0106.3276.0212.4914.0317.2906.0212.5865.0476.8771.0687.1268.0106.2536.0212.3752.0317.8295.074 1.6538.1691 2.4728.2748h.0264c.7767.1004 1.5481.2166 2.309.3487.0158 0 .0317.0053.0475.0106.7239.1215 1.4425.2589 2.1558.4068.0159 0 .0264 0 .0423.0053.6869.1427 1.3632.2959 2.0342.4597.0476.0106.0951.0211.1374.0317.634.1532 1.2575.3223 1.8757.4967.074.0211.148.0422.2272.0634.6024.1691 1.1942.354 1.7859.5389.0899.0264.1744.0581.2642.0846.5812.1902 1.1519.3857 1.7225.5917.0898.0317.1797.0635.2695.1004.5759.2114 1.1413.428 1.7014.6552.0845.037.1743.0687.2589.1057.5653.2325 1.1254.4755 1.6749.7239.0793.037.1532.0687.2325.1056.5812.2642 1.1571.539 1.7225.8243.074.037.148.074.2219.111.5812.2959 1.1519.6023 1.7172.9141.0687.0369.1427.0792.2114.1162.5918.3329 1.173.6763 1.7436 1.0303.0687.0423.1427.0899.2114.1321.2536.1585.5019.317.7503.4808.0687.0476.1426.0899.2113.1374.317.2114.6235.4227.9352.6341.0634.0475.1269.0898.1955.1374.2642.1902.5284.3804.7873.5706.1004.074.2008.1479.3012.2272.2378.1796.4703.3593.7027.5442.0793.0634.1638.1268.2431.1902.3434.2748.6816.5548 1.0092.8349.074.0634.1426.1268.2166.1849.2906.2483.5759.502.856.7609.0528.0475.1057.0951.1585.1426.4121.3805.8137.7715 1.2047 1.1625.0475.0475.0951.0951.1427.1426.3804.391.7502.782 1.1095 1.1836.0529.0581.111.1215.1637.1796.27.3012.529.6076.782.9141.042.0528.085.1057.127.1532.217.2642.428.5337.639.8032.064.0845.127.1638.19.2483.238.317.476.6393.703.9616.021.0265.037.0529.053.0793.206.3012.412.6023.608.9088.058.0898.111.1744.169.2642.201.317.391.634.581.9511.011.0211.021.037.032.0581.195.3381.38.6763.56 1.0198.047.0898.095.1796.142.2694.154.2959.302.5971.444.8983.027.0528.053.1056.074.1585.164.3487.312.6974.46 1.0461.037.0899.074.1744.106.2642.121.2959.232.5918.343.8877.026.074.058.148.085.2219.126.354.248.7133.359 1.0779.026.0846.047.1638.074.2483.09.3012.174.6024.253.9036.022.0898.048.1743.069.2642.09.3645.175.7344.254 1.1043.016.0686.026.1426.042.2113.063.3118.116.6288.169.9458.016.0951.032.1955.048.2906.053.3752.105.7556.142 1.136 0 .0476.006.0898.011.1374.032.3434.058.6816.079 1.0303.005.1004.011.2008.016.3065.016.3857.032.7767.032 1.1677v-15.2859c0-.391-.011-.7767-.032-1.1677 0-.1004-.011-.2008-.016-.3065-.021-.3434-.042-.6869-.079-1.0303 0-.0475-.005-.0898-.011-.1374-.037-.3804-.089-.7555-.142-1.136-.016-.0951-.032-.1955-.048-.2906-.053-.317-.106-.634-.169-.9458-.016-.0687-.026-.1426-.042-.2113-.074-.3699-.159-.7397-.254-1.1043-.021-.0899-.047-.1744-.069-.2642-.079-.3012-.163-.6024-.253-.9035-.027-.0846-.048-.1638-.074-.2484-.111-.3593-.233-.7186-.359-1.0779-.027-.0739-.053-.1479-.085-.2219-.111-.2959-.222-.5918-.343-.8876-.037-.0899-.069-.1797-.106-.2642-.148-.354-.301-.7028-.46-1.0462-.026-.0529-.053-.1057-.074-.1585-.142-.3012-.29-.6024-.444-.8983-.047-.0898-.095-.1796-.142-.2694-.18-.3435-.365-.6816-.56-1.0198-.011-.0211-.021-.037-.032-.0581-.185-.3223-.38-.6394-.581-.9511-.053-.0898-.111-.1744-.169-.2642-.196-.3064-.397-.6076-.608-.9088-.021-.0264-.037-.0528-.053-.0792-.227-.3224-.459-.6447-.703-.9617-.063-.0845-.126-.1638-.19-.2483-.206-.2695-.422-.539-.639-.8032-.042-.0528-.085-.1056-.127-.1532-.253-.3064-.518-.6129-.782-.9141-.026-.0264-.0474-.0581-.0738-.0845-.0317-.0317-.0634-.0634-.0899-.0951-.3593-.4016-.7291-.7979-1.1095-1.1836-.0476-.0475-.0952-.0951-.1427-.1426-.391-.3963-.7926-.782-1.2047-1.1625-.0159-.0105-.0264-.0264-.037-.0369-.037-.037-.0793-.0687-.1215-.1057-.2801-.2589-.5654-.5125-.856-.7609-.074-.0634-.1426-.1268-.2166-.1849-.3329-.2801-.6658-.5601-1.0092-.8348-.0212-.0159-.0423-.037-.0634-.0529-.0581-.0475-.1215-.0898-.1797-.1374-.2324-.1849-.4649-.3645-.7027-.5442-.1004-.074-.2008-.1532-.3012-.2272-.2589-.1902-.5231-.3804-.7873-.5706-.0528-.037-.1003-.074-.1532-.111-.0158-.0106-.0317-.0211-.0423-.0317-.3064-.2166-.6182-.428-.9299-.634-.0687-.0476-.1427-.0899-.2113-.1374-.2484-.1638-.4967-.3223-.7503-.4808-.037-.0212-.074-.0476-.111-.0687-.0317-.0212-.0687-.0423-.1057-.0634-.5706-.3541-1.1518-.6975-1.7436-1.0304-.0317-.0211-.0634-.0422-.1004-.0581-.037-.0211-.074-.037-.111-.0581-.56-.3118-1.136-.6182-1.7172-.9141-.037-.0211-.0792-.0423-.1162-.0634s-.0687-.037-.1057-.0528c-.5654-.2854-1.136-.5601-1.7225-.8243-.0423-.0211-.0845-.0423-.1268-.0581-.037-.0159-.074-.0317-.1057-.0476-.5495-.2483-1.1096-.4914-1.6749-.7239-.0476-.0211-.0899-.0369-.1321-.0581-.0423-.0158-.0846-.0317-.1268-.0475-.5601-.2272-1.1308-.4439-1.7014-.6552-.0423-.0159-.0845-.0317-.1268-.0476-.0476-.0158-.0951-.0317-.1427-.0475-.5653-.2061-1.1413-.4016-1.7225-.5918-.037-.0106-.0739-.0264-.1109-.037-.0529-.0158-.1004-.0317-.1533-.0475-.5917-.1903-1.1835-.3699-1.7859-.539-.0264-.0053-.0528-.0158-.0792-.0264-.0476-.0159-.0951-.0264-.1427-.037-.6182-.1744-1.2469-.3382-1.8757-.4967-.0159 0-.0264-.0052-.0423-.0105-.0317-.0053-.0634-.0159-.0951-.0212-.671-.1638-1.3526-.317-2.0342-.4597 0 0-.0053 0-.0106 0-.0106 0-.0211 0-.0317-.0052-.7133-.148-1.4319-.2801-2.1558-.4069-.0105 0-.0211 0-.0317-.0053 0 0-.0053 0-.0106 0-.7608-.1268-1.5322-.243-2.3089-.3487-.0053 0-.0106 0-.0159 0 0 0 0 0-.0053 0-.819-.1057-1.6432-.1955-2.4728-.2747-.0105 0-.0264 0-.037 0-.1109-.0106-.2272-.0159-.3381-.0265-.2906-.0264-.5812-.0475-.8771-.0687-.1638-.0105-.3276-.0211-.4914-.0317-.2642-.0158-.5284-.0317-.7979-.0475-.0634 0-.1268-.0106-.1902-.0106-.1004 0-.2008-.0053-.2959-.0105-.3064-.0159-.6129-.0265-.9193-.037-.1638 0-.3276-.0106-.4914-.0159-.3223-.0053-.6499-.0106-.9722-.0158-.1057 0-.2061 0-.3118 0-.0845 0-.1691 0-.2536 0-.4967 0-.9881.0052-1.4847.0158-.1427 0-.2906.0053-.4333.0106-.3699.0105-.7344.0264-1.099.0423-.0898 0-.1797.0052-.2695.0105-.0423 0-.0792.0053-.1215.0106-.6446.0317-1.284.074-1.9233.1268-.111.0106-.2166.0158-.3223.0264-.6341.0529-1.2681.1163-1.8916.1902-.0423 0-.0845.0053-.1215.0106-.0529.0053-.1004.0158-.1532.0211-.7028.0846-1.395.1797-2.0871.2854-.0899.0158-.1797.0264-.2695.0422-.6869.111-1.3685.2272-2.0448.3593-.0898.0159-.1797.037-.2642.0529-.671.1321-1.3421.2747-2.0025.4279-.0899.0212-.1797.0423-.2642.0634-.6605.1586-1.3104.3224-1.955.502-.0898.0264-.1744.0476-.2642.074-.6446.1796-1.2787.3698-1.9074.5653-.0846.0265-.1744.0529-.2589.0846-.6288.2008-1.247.4121-1.8599.634-.0846.0317-.1691.0634-.2536.0898-.6077.222-1.21.4545-1.8071.6922-.0845.0317-.1638.0687-.2483.1004-.5918.2431-1.1783.4967-1.7489.7556-.037.0158-.0793.0317-.1163.0528-.0422.0212-.0845.0423-.1215.0581-.5706.259-1.1307.5337-1.6855.8085-.0793.0369-.1532.0792-.2325.1162-.5495.28-1.0937.5706-1.6274.8665-.037.0212-.074.037-.111.0582-.0475.0264-.1003.0581-.1479.0845-.4227.2378-.8401.4808-1.2522.7292-.0265.0158-.0476.0317-.074.0475-.391.2378-.7767.4808-1.1572.7292-.0528.0317-.1056.0634-.1532.0951-.0423.0264-.0792.0528-.1215.0845-.3382.2219-.6763.4491-1.0092.6816-.0053 0-.0106.0106-.0211.0106-.3382.2325-.6658.4755-.9934.7186-.037.0264-.074.0528-.111.0792-.0686.0476-.132.1004-.1955.148-.1954.1479-.3909.2959-.5812.4438-.1056.0846-.2113.1691-.317.2483-.2008.1586-.3963.3171-.5865.4756-.0687.0528-.1374.1057-.2008.1638-.0264.0211-.0475.0423-.0739.0634-.185.1532-.3593.3064-.539.465-.0845.0686-.1638.1426-.2483.2113-.2589.2272-.5125.4597-.7609.6922 0 0 0 0-.0053.0053-.4913.4544-.9669.9246-1.4266 1.4002-.0105.0105-.0211.0211-.0264.0264-.0211.0211-.037.0422-.0581.0634-.4174.4332-.819.8718-1.2047 1.3156-.0106.0106-.0211.0265-.0317.037-.0211.0264-.0423.0529-.0634.0793-.3699.428-.7292.8612-1.0726 1.2998-.0106.0105-.0159.0211-.0264.0317-.0159.0211-.0317.0475-.0529.0687-.3434.4438-.6763.8929-.9933 1.3473 0 0-.0053.0106-.0106.0159-.0106.0158-.0158.0264-.0264.0422-.3117.4439-.6076.8983-.893 1.3527-.0105.0158-.0211.0264-.0264.0423 0 0-.0053.0105-.0105.0158-.2801.4491-.539.9035-.7926 1.3632-.0159.0317-.037.0634-.0528.0898-.0106.0159-.0159.0317-.0212.0476-.243.4438-.4702.8929-.6816 1.3421-.0158.037-.0423.0739-.0581.1109-.0106.0264-.0211.0476-.0317.074-.2114.4544-.4121.9088-.6024 1.3738-.0158.037-.0369.0739-.0528.1162-.0211.0529-.0423.1057-.0634.1638-.0528.1268-.1004.2589-.1479.3857-.0529.1427-.1057.2853-.1586.428-.0475.1321-.0898.2589-.1373.391-.0264.0793-.0582.1585-.0846.2378-.0211.0634-.037.1268-.0581.1849-.0475.1427-.0898.2906-.1374.4333-.0422.1373-.0845.2747-.1215.4174-.0423.1479-.0845.2906-.1215.4385-.0212.0793-.0476.1586-.0687.2431-.0159.0581-.0264.1162-.0423.1744-.0422.1585-.0792.3223-.1162.4861-.0317.1321-.0634.2694-.0898.4015-.037.1638-.0687.3276-.1004.4914-.0159.0898-.037.1797-.0582.2748-.0052.0422-.0105.0845-.0211.1215-.037.1902-.0634.3857-.0951.5759-.0159.1163-.037.2325-.0528.354-.0317.2167-.0582.4386-.0846.6552-.0105.0793-.0211.1638-.0317.2431v.0317c-.037.3381-.0634.6763-.0845 1.0145-.0053.0898-.0106.1849-.0159.2747-.0158.2536-.0264.5072-.0317.7556 0 .0528-.0053.1004-.0053.1532v.5231 15.2859c0-.2272.0053-.4544.0106-.6763.0053-.2537.0159-.5073.0317-.7556z" stroke="#fff"/><path d="m119.028 15.3539v86.3211h-118.028v-86.3211zm-106.6732 43.163c0 19.2539 21.3358 34.8569 47.6594 34.8569s47.6648-15.603 47.6648-34.8569c0-19.2487-21.3412-34.8569-47.6648-34.8569s-47.6594 15.6082-47.6594 34.8569z" stroke="#fff"/><path d="m119.034 101.675h-118.034v15.285h118.034z" stroke="#fff"/><path d="m60.0143 89.2281c18.5915 0 33.6628-15.0714 33.6628-33.6628s-15.0713-33.6628-33.6628-33.6628c-18.5914 0-33.6627 15.0714-33.6627 33.6628s15.0713 33.6628 33.6627 33.6628z" stroke="#494949"/><path d="m60.0143 78.7768c18.5915 0 33.6628-15.0713 33.6628-33.6628 0-18.5914-15.0713-33.6627-33.6628-33.6627-18.5914 0-33.6627 15.0713-33.6627 33.6627 0 18.5915 15.0713 33.6628 33.6627 33.6628z" stroke="#494949"/><path d="m60.0143 68.3255c18.5915 0 33.6628-15.0713 33.6628-33.6627 0-18.5915-15.0713-33.6628-33.6628-33.6628-18.5914 0-33.6627 15.0713-33.6627 33.6628 0 18.5914 15.0713 33.6627 33.6627 33.6627z" stroke="#494949"/></g></svg>