<svg fill="none" height="112" viewBox="0 0 147 112" width="147" xmlns="http://www.w3.org/2000/svg" xmlns:xlink="http://www.w3.org/1999/xlink"><mask id="a" height="29" maskUnits="userSpaceOnUse" width="1" x="43" y="35"><path d="m43.917 35.4387-.0785 26.5301c-.0261.1823-.0588.358-.0784.5403-.0196.1497-.0327.2994-.0458.4556-.013.1562-.0327.3059-.0327.4556l.0785-26.5302c0-.1497.0196-.3059.0327-.4556.013-.1497.0261-.2994.0457-.4556.0196-.1823.0458-.358.0785-.5402z" fill="#fff"/></mask><mask id="b" height="28" maskUnits="userSpaceOnUse" width="1" x="43" y="36"><path d="m43.6777 63.9538.0785-26.5301c0-.1758 0-.3515.0196-.5337l-.0785 26.5301c-.013.1758-.0196.358-.0196.5337z" fill="#fff"/></mask><mask id="c" height="28" maskUnits="userSpaceOnUse" width="1" x="43" y="37"><path d="m43.6777 64.3573.0785-26.5302s0-.026 0-.0455l-.0785 26.5301z" fill="#fff"/></mask><mask id="d" height="57" maskUnits="userSpaceOnUse" width="26" x="18" y="37"><path d="m18.8243 63.8692.0785-26.5301c-.0196 7.9994 4.484 16.0443 13.55 22.807.1569.1107.3137.2213.4706.3385.3987.2864.8171.5728 1.2289.8592.1438.0976.2876.1952.4314.2929.2353.1562.4706.3059.7124.4556.1046.0651.2027.1302.3072.1953.6472.4035 1.3073.8071 1.9937 1.2041 1.9543 1.126 4.0002 2.1544 6.1311 3.1047l-.0784 26.5302c-2.1244-.9438-4.1768-1.9787-6.1312-3.1047-.6863-.3906-1.3465-.7941-1.9936-1.2042-.1046-.0651-.2026-.1302-.3072-.1952-.2419-.1563-.4772-.306-.7125-.4557-.1438-.0976-.2876-.1952-.4314-.2929-.4183-.2798-.8301-.5662-1.2288-.8591-.1569-.1172-.3203-.2278-.4707-.3385-9.0725-6.7627-13.5761-14.8142-13.55-22.8071z" fill="#fff"/></mask><path d="m43.9189 35.4385-.0784 26.5302c-.0262.1823-.0589.358-.0785.5402-.0196.1497-.0326.2995-.0457.4557s-.0327.3059-.0327.4556l.0784-26.5302c0-.1497.0196-.3059.0327-.4556s.0262-.2994.0458-.4556c.0196-.1823.0457-.358.0784-.5403z" fill="#000"/><g fill="#000" mask="url(#a)" stroke="#fff" stroke-miterlimit="10"><path d="m43.917 35.4387-.0785 26.5301c-.0261.1823-.0588.358-.0784.5403-.0196.1497-.0327.2994-.0458.4556-.013.1432-.0327.2929-.0327.4361l.0785-26.5302c0-.1432.0196-.2864.0327-.4361.013-.1497.0261-.2994.0457-.4556.0196-.1823.0458-.358.0785-.5402z"/><path d="m43.7659 36.8706-.0784 26.5302v.0195l.0784-26.5302s0-.013 0-.0195z"/></g><path d="m43.9189 35.4385-.0784 26.5302c-.0262.1823-.0589.358-.0785.5402-.0196.1498-.0326.2995-.0457.4557s-.0327.3059-.0327.4556l.0784-26.5302c0-.1497.0196-.3059.0327-.4556s.0262-.2994.0458-.4556c.0196-.1823.0457-.358.0784-.5403z" stroke="#fff" stroke-miterlimit="10"/><path d="m43.6768 63.9539.0784-26.5302c0-.1757 0-.3514.0196-.5337l-.0784 26.5302c-.0131.1757-.0196.358-.0196.5337z" fill="#000"/><g fill="#000" mask="url(#b)" stroke="#fff" stroke-miterlimit="10"><path d="m43.7692 36.89-.0784 26.5301c0 .0977-.0131.1953-.0131.2864l.0785-26.5302c0-.0976.0065-.1952.013-.2863z"/><path d="m43.7562 37.1829-.0785 26.5301v.2409l.0785-26.5302c0-.0781 0-.1627 0-.2408z"/></g><path d="m43.6768 63.9539.0784-26.5302c0-.1757 0-.3514.0196-.5337l-.0784 26.5302c-.0131.1757-.0196.358-.0196.5337z" stroke="#fff" stroke-miterlimit="10"/><path d="m43.6768 64.3573.0784-26.5301s0-.0261 0-.0456l-.0784 26.5302z" fill="#000"/><g fill="#000" mask="url(#c)" stroke="#fff" stroke-miterlimit="10"><path d="m43.7562 37.788-.0785 26.5302v.013l.0785-26.5302s0-.0065 0-.013z"/><path d="m43.7562 37.8011-.0785 26.5302v.0326l.0785-26.5302s0-.0195 0-.0326z"/></g><path d="m43.6768 64.3573.0784-26.5301s0-.0261 0-.0456l-.0784 26.5302z" stroke="#fff" stroke-miterlimit="10"/><path d="m109.563 21.8544c-.725-.4166-1.484-.8006-2.242-1.1781-.412-.2018-.836-.4035-1.261-.5923-.687-.2994-1.092-.4751-1.504-.6509-.026-.013-.052-.0195-.085-.0325-.026-.013-.059-.0196-.085-.0326-.058-.0195-.117-.0455-.17-.0651-.091-.039-.176-.0716-.268-.1041-.228-.0911-.451-.1757-.679-.2604-.576-.2148-1.164-.4165-1.752-.6118-.17-.0586-.34-.1106-.517-.1627-.457-.1497-.915-.2864-1.3787-.4231-.1046-.0325-.2092-.0651-.3138-.0976-.0523-.013-.1046-.0261-.1568-.0391-.5949-.1692-1.1897-.3254-1.7976-.4751-.0915-.0196-.183-.0456-.281-.0651-.5229-.1237-1.0459-.2408-1.5688-.3515-.085-.0195-.1634-.039-.2484-.0586-.1176-.026-.2353-.0455-.3529-.0651-.3857-.0781-.7779-.1497-1.17-.2213-.2027-.039-.4053-.0716-.6145-.1106-.4445-.0781-.8889-.1432-1.3334-.2083-.1177-.0195-.2353-.0391-.353-.0586-.0261 0-.0588-.0065-.0915-.013-.5752-.0781-1.1569-.1562-1.7387-.2213-.1111-.013-.2287-.0195-.3399-.0325-.4706-.0521-.9412-.0977-1.4184-.1367-.0588 0-.1111-.013-.1699-.0196-.1504-.013-.2942-.0195-.4445-.0325-.3856-.026-.7713-.0586-1.1635-.0781-.2222-.013-.451-.026-.6732-.0326-.3726-.0195-.7517-.0325-1.1243-.0455-.1307 0-.2615-.013-.3922-.013-.0915 0-.183 0-.2745 0-.438-.0065-.8694-.013-1.3073-.013-.1765 0-.3464 0-.5229 0-.6079 0-1.2158.013-1.8171.0325-.0131 0-.0262 0-.0393 0-.0653 0-.1242.0065-.1895.0065-.5687.0195-1.1374.0521-1.6995.0846-.1961.013-.3922.0261-.5883.0391-.4706.0325-.9412.0716-1.4118.1171-.1242.0131-.2419.0196-.3661.0326-.0523 0-.1111.013-.1634.0195-.7255.0716-1.4445.1562-2.157.2538-.1438.0196-.2941.0391-.4379.0651-.6472.0912-1.2943.1953-1.9348.306-.0785.013-.1569.026-.2353.039-.0393.0065-.0719.013-.1112.0195-.5686.1042-1.1373.2148-1.6994.332-.0654.013-.1308.0325-.1961.0455-.4968.1042-.987.2214-1.4773.3385-.1895.0456-.3725.0976-.5556.1432-.366.0911-.7386.1888-1.1046.2929-.2026.0586-.4118.1172-.6144.1757-.3465.0977-.6929.2018-1.0328.3125-.1176.039-.2353.0716-.353.1041-.0653.0195-.1241.0456-.1895.0651-.6733.2148-1.3334.4426-1.9871.6899-.1111.0391-.2157.0847-.3203.1237-.5948.2278-1.1831.4621-1.7648.7095-.1046.0455-.2157.0911-.3203.1367-.6275.2733-1.2419.5597-1.8433.8591-.1307.0651-.2614.1302-.3922.1953-.6144.3124-1.2157.6314-1.804.9698-.1896.1107-.3726.2213-.5556.332-.0784.0455-.1569.0976-.2353.1497-.2811.1757-.5556.345-.8236.5272-.1373.0911-.2811.1822-.4183.2734-.3203.2148-.6275.4296-.9282.6509-.0719.052-.1504.1041-.2223.1627-.366.2734-.7255.5532-1.0654.8331-.098.0781-.183.1562-.2745.2343-.2484.2083-.4837.4166-.719.6249-.0458.039-.0915.0781-.1373.1171-.0654.0586-.1176.1172-.1765.1758-.2418.2278-.4706.4491-.6928.6834-.0915.0911-.1831.1888-.2746.2799-.3006.3124-.5882.6314-.8562.9568-.0915.1107-.1765.2213-.2615.332-.0327.039-.0523.0781-.085.1171-.2876.371-.5621.742-.817 1.113-.1961.2864-.3595.5403-.5099.7941-.0719.1237-.1438.2474-.2157.371-.0326.0521-.0523.1042-.0849.1627-.1438.2669-.2811.5273-.4053.7876-.0392.0781-.0784.1497-.1111.2278-.1504.3255-.2876.6509-.4118.9764-.0065.0195-.0196.039-.0262.0585-.0784.2148-.1568.4361-.2287.6509-.1112.3385-.17.5468-.2223.7681-.0261.0976-.0457.1887-.0719.2864-.0261.1236-.0523.2473-.0784.371-.0131.0716-.0262.1432-.0392.2083v.0065c-.0262.1171-.0458.2343-.0654.3514l-.0784 26.5302c.0261-.1171.0457-.2408.0719-.3645.0392-.1953.0784-.3905.1242-.5858.0261-.0976.0457-.1887.0719-.2864.0588-.2148.1111-.4296.2222-.768.0784-.2343.1634-.4752.2549-.7095.1242-.3254.2615-.6444.4118-.9763.0327-.0781.0719-.1497.1111-.2278.1242-.2604.2615-.5207.4053-.7876.098-.1757.1896-.3515.3007-.5337.1503-.2539.3072-.5077.5098-.7941.2549-.3775.5295-.7485.8171-1.113.1176-.1497.2287-.2994.3464-.4491.7909-.2213 1.5883-.4231 2.3989-.6119.2418-.0586.4902-.1106.7386-.1627.5883-.1302 1.1831-.2538 1.7779-.3645.2745-.0521.5425-.1041.817-.1497.4968-.0846.9936-.1627 1.4904-.2343.2745-.0391.549-.0846.8235-.1237.6014-.0846 1.2093-.1497 1.8237-.2148.1765-.0195.3464-.039.5164-.0586.3203-.0325.6471-.052.9674-.0781.3922-.0325.7843-.0716 1.1831-.0976.3268-.0195.6601-.0325.987-.0521.3922-.0195.7843-.0455 1.1765-.0586.2288-.0065.4641-.0065.6929-.013.4641-.013.9282-.0195 1.3922-.0195.2746 0 .5491 0 .8236.0065.4249 0 .8498.013 1.2746.0195.268.0065.536.0196.7975.0326.4183.0195.8432.039 1.2615.0651.2745.0195.5491.0325.8236.0586.4183.0325.8301.065 1.2419.1041.268.026.5426.0521.8105.0781.4249.0456.8563.0976 1.2812.1497.2484.0326.5033.0586.7517.0976.451.0586.8955.1302 1.3399.2018.2288.0391.4641.0716.6929.1107.6014.1041 1.1962.2148 1.791.3384.0719.013.1373.0261.2092.0391.5882.1171 1.1634.2538 1.7386.3905.1046.026.2092.0456.3138.0716.6798.1627 1.353.345 2.0132.5337.0262.0065.0523.0196.0784.0261.8367.2408 1.6668.5012 2.4774.7745.1307.0456.2549.0912.3791.1367.1438.0521.2876.1042.4314.1562.6013.2148 1.1961.4361 1.7844.6704.1373.0586.2745.1107.4183.1693.7452.3124 1.4773.6378 2.1898.9828.1045.0521.2091.1042.3202.1562.7452.371 1.4773.7485 2.1832 1.1586.4576.2604.8955.5272 1.3204.8006.6863.4361 1.3334.8852 1.9478 1.3473.1504.1107.3072.2213.451.332.2876.2213.5622.4556.8367.6834.0784.0651.1634.1302.2418.1953.2419.2083.4707.4231.706.6379.0915.0846.1961.1757.2876.2603.1699.1627.3268.332.4902.5012.1373.1432.2811.2799.4183.4231.1177.1301.2288.2603.3465.397.1634.1823.3268.3645.4771.5467.1242.1498.2288.2995.3465.4557.1307.1692.268.3384.3922.5077.1181.1627.2161.3254.3201.4816.111.1627.229.332.333.4947.105.1627.19.3319.288.5012.092.1627.196.3254.281.4947.098.1887.177.3775.268.5597.072.1497.15.2994.216.4491.072.1628.124.3255.189.4882.072.1757.144.3515.203.5337.052.1562.092.3059.137.4622.059.1887.125.3775.17.5727.039.1693.072.332.105.5012.039.1823.085.358.111.5403.026.1692.039.3384.065.5076.02.1823.053.358.066.5403.013.1627.013.3189.019.4816.007.1953.026.3841.02.5793l.078-26.5301c0-.1888-.013-.3841-.019-.5728-.007-.1627 0-.319-.02-.4817-.013-.1822-.046-.3645-.065-.5402-.02-.1692-.033-.3385-.066-.5077 0-.013 0-.0195-.006-.0325.176.065.359.1236.529.1887.321.1172.634.2408.948.3645.026.013.059.0195.085.0326.026.013.052.0195.078.0325.059.026.118.0456.177.0716.412.1692.817.345 1.503.6509.425.1887.85.3905 1.262.5923.765.3775 1.516.7615 2.242 1.1781 1.98 1.139 3.686 2.3692 5.157 3.6645l.079-26.5302c-1.465-1.2952-3.177-2.5319-5.151-3.6645z" fill="#000" stroke="#fff" stroke-miterlimit="10"/><path d="m18.8253 63.8693.0784-26.5302c-.0196 7.9994 4.484 16.0444 13.5501 22.8071.1568.1107.3137.2213.4706.3385.3987.2864.817.5727 1.2288.8591.1438.0977.2876.1953.4314.2929.2353.1562.4707.306.7125.4557.1046.065.2026.1301.3072.1952.6471.4036 1.3073.8071 1.9936 1.2042 1.9544 1.126 4.0003 2.1544 6.1312 3.1047l-.0784 26.5302c-2.1244-.9438-4.1768-1.9787-6.1312-3.1048-.6863-.3905-1.3465-.794-1.9936-1.2041-.1046-.0651-.2026-.1302-.3072-.1953-.2419-.1562-.4772-.3059-.7125-.4556-.1438-.0976-.2876-.1953-.4314-.2929-.4183-.2799-.8301-.5663-1.2289-.8592-.1568-.1171-.3202-.2278-.4706-.3384-9.0725-6.7627-13.5761-14.8142-13.55-22.8071z" fill="#000"/><g mask="url(#d)"><path d="m43.734 66.5964-.0785 26.5302c-2.1243-.9438-4.1767-1.9787-6.1311-3.1047-.6863-.3906-1.3465-.7941-1.9936-1.2042-.1046-.0651-.2027-.1302-.3072-.1952-.2419-.1563-.4772-.306-.7125-.4557-.1438-.0976-.2876-.1952-.4314-.2929-.4184-.2798-.8301-.5662-1.2289-.8591-.1568-.1172-.3203-.2278-.4706-.3385-9.0726-6.7627-13.5762-14.8142-13.55-22.8071l.0784-26.5301c-.0196 7.9994 4.484 16.0443 13.55 22.807.1569.1107.3138.2213.4707.3385.3987.2864.817.5728 1.2288.8592.1438.0976.2876.1952.4314.2929.2353.1562.4706.3059.7125.4556.1046.0651.2026.1302.3072.1953.6471.4035 1.3073.8071 1.9936 1.2041 1.9544 1.126 4.0003 2.1544 6.1312 3.1047z" fill="#000" stroke="#fff" stroke-miterlimit="10"/></g><g stroke-miterlimit="10"><path d="m18.8253 63.8693.0784-26.5302c-.0196 7.9994 4.484 16.0444 13.5501 22.8071.1568.1107.3137.2213.4706.3385.3987.2864.817.5727 1.2288.8591.1438.0977.2876.1953.4314.2929.2353.1562.4707.306.7125.4557.1046.065.2026.1301.3072.1952.6471.4036 1.3073.8071 1.9936 1.2042 1.9544 1.126 4.0003 2.1544 6.1312 3.1047l-.0784 26.5302c-2.1244-.9438-4.1768-1.9787-6.1312-3.1048-.6863-.3905-1.3465-.794-1.9936-1.2041-.1046-.0651-.2026-.1302-.3072-.1953-.2419-.1562-.4772-.3059-.7125-.4556-.1438-.0976-.2876-.1953-.4314-.2929-.4183-.2799-.8301-.5663-1.2289-.8592-.1568-.1171-.3202-.2278-.4706-.3384-9.0725-6.7627-13.5761-14.8142-13.55-22.8071z" stroke="#fff"/><path d="m127.872 48.3196c0 .384-.02.768-.039 1.152 0 .0781-.007.1627-.013.2409-.026.3905-.066.7745-.111 1.1585-.013.0912-.026.1823-.04.2734-.039.3189-.091.6314-.15.9438-.02.0976-.033.1888-.052.2864-.026.1497-.066.2994-.098.4426-.092.41-.19.8201-.301 1.2302-.046.1562-.085.3124-.131.4686-.137.4556-.287.9112-.451 1.3604-.026.0781-.052.1497-.078.2278-.02.052-.046.1106-.065.1627-.125.3254-.262.6509-.406.9763-.045.1042-.091.2018-.137.3059-.163.358-.333.7095-.516 1.061-.007.0195-.02.039-.027.0586-.189.3645-.392.729-.601 1.0869-.065.1172-.137.2279-.202.345-.164.2734-.334.5402-.504.8136-.072.1042-.137.2148-.209.319-.242.3645-.49.729-.758 1.0869-.02.0261-.039.0456-.052.0716-.242.332-.497.6574-.759.9829-.124.1562-.255.3124-.385.4621-.183.2213-.373.4426-.562.6639-.138.1562-.282.3124-.425.4687-.196.2147-.393.4295-.595.6443-.15.1562-.301.3125-.458.4687-.209.2083-.425.423-.64.6313-.157.1497-.314.3059-.477.4556-.34.3125-.68.6314-1.033.9373-.543.4752-1.111.9438-1.693 1.4059-.19.1497-.399.2995-.595.4492-.405.3124-.81.6183-1.235.9242-.249.1758-.504.345-.752.5207-.399.2734-.797.5468-1.209.8136-.281.1823-.562.358-.85.5338-.543.3384-1.092.6769-1.66 1.0088-.687.3971-1.393.7811-2.105 1.1586-.19.0977-.373.1953-.562.2929-.641.332-1.281.6509-1.941.9633-.085.0391-.17.0846-.262.1237-.732.345-1.477.6769-2.229.9959-.196.0846-.392.1627-.588.2473-.641.2669-1.288.5272-1.9414.7811-.1438.052-.2811.1106-.4249.1692-.7713.2929-1.5556.5728-2.3466.8461-.1895.0651-.3856.1302-.5752.1953-.536.1823-1.0719.3515-1.6145.5207-.5098.1627-1.0262.319-1.5426.4687-.4379.1301-.8758.2538-1.3138.3775-.5229.1432-1.0523.2864-1.5818.4165-.4445.1172-.889.2279-1.3334.3385-.536.1302-1.0785.2538-1.6145.371-.451.0976-.8955.2018-1.3465.2929-.5491.1172-1.1047.2213-1.6603.3255-.4968.0911-.987.1887-1.4838.2733-.2222.0391-.451.0781-.6732.1107-.7582.1236-1.523.2473-2.2877.358-.1308.0195-.255.039-.3857.0585-.8759.1237-1.7518.2344-2.6276.332-.2223.026-.438.0456-.6602.0716-.5425.0586-1.0916.1106-1.6407.1627-.6798.0651-1.3595.1172-2.0393.1692-.4314.0326-.8563.0651-1.2877.0912-.7125.0455-1.425.0781-2.1374.1041-.3987.0195-.804.0391-1.2027.0521-.621.0195-1.2354.026-1.8564.039-.4314 0-.8628.0196-1.2942.0196-.6602 0-1.3203-.0131-1.9805-.0196-.3922 0-.7844 0-1.17-.013-.6079-.013-1.2093-.0455-1.8172-.0716-.4248-.0195-.8497-.0325-1.268-.0521-.6537-.0325-1.3073-.0846-1.961-.1301-.3725-.0261-.7451-.0456-1.1177-.0781-.7909-.0651-1.5818-.1432-2.3727-.2278-.2288-.0261-.4576-.0391-.6798-.0651-1.0132-.1107-2.0263-.2409-3.0329-.3841-.1634-.026-.3268-.052-.4968-.0781-.8628-.1236-1.7191-.2603-2.5753-.4035-.3595-.0586-.7125-.1302-1.0655-.1953-.6601-.1171-1.3138-.2408-1.9674-.371-.3399-.0716-.6733-.1497-1.0132-.2213-.719-.1562-1.4315-.3124-2.1374-.4816-.3922-.0912-.7844-.1953-1.17-.2929-.6471-.1628-1.2942-.332-1.9283-.5077-.549-.1497-1.0915-.306-1.6341-.4622-.2026-.0585-.4118-.1171-.6144-.1822-.817-.2474-1.6276-.5077-2.425-.7811-.1503-.0521-.3007-.1041-.4576-.1562-.6667-.2278-1.3203-.4686-1.974-.7095-.2222-.0846-.4444-.1692-.6601-.2538-.5164-.2018-1.0328-.4101-1.5426-.6183-.353-.1432-.706-.2864-1.0524-.4361-.4968-.2148-.987-.4361-1.4772-.6574-.3203-.1432-.6471-.2864-.9609-.4361-.536-.2539-1.0589-.5142-1.5818-.7811-.2615-.1302-.5229-.2604-.7844-.3905-.7778-.4036-1.536-.8201-2.2877-1.2497-2.1047-1.2107-4.0199-2.4864-5.7651-3.8142-.2027-.1497-.4184-.2994-.6145-.4557-.2941-.2278-.5621-.4621-.8432-.6964-.3333-.2734-.6732-.5402-.9935-.8201-.2615-.2278-.5033-.4687-.7582-.703-.3072-.2864-.6275-.5663-.9282-.8526-.33336-.3255-.64057-.6574-.96086-.9894-.18955-.2018-.39218-.397-.58174-.5988-.30068-.332-.58174-.6704-.86281-1.0089-.17648-.2018-.3595-.41-.52945-.6118-.22224-.2799-.42487-.5663-.63403-.8462-.20263-.2668-.41833-.5337-.60789-.8071-.19609-.2799-.36604-.5597-.54906-.8396s-.37911-.5598-.54906-.8397c-.18956-.3124-.35297-.6313-.52945-.9437-.13727-.2539-.29414-.5012-.42487-.7551-.15034-.2994-.28107-.5988-.42487-.8982-.12419-.2734-.26799-.5467-.38565-.8201-.11765-.2799-.2157-.5663-.32028-.8462-.11112-.2994-.23531-.5923-.3399-.8917-.09804-.2864-.16994-.5793-.25492-.8657-.08497-.2929-.18302-.5923-.25492-.8852-.07843-.3254-.13726-.6509-.20263-.9763-.05229-.2604-.11765-.5207-.16341-.7811-.05229-.3124-.07843-.6248-.11112-.9372-.03268-.2799-.07843-.5533-.10458-.8332-.02614-.2929-.02614-.5858-.03268-.8787-.01307-.2994-.03268-.5923-.03268-.8917l-.07844 26.5302h.01307c0 .2994.02615.5923.03269.8917.01307.2929.01307.5858.03268.8787.01961.2799.06536.5532.10458.8331.03922.3124.06536.6249.11766.9373.04575.2603.11111.5207.16341.7811.06536.3254.12419.6508.20263.9763.0719.2929.16994.5923.25492.8852.08497.2864.15687.5793.25492.8657.09804.2994.22224.5923.33989.8917.10458.2799.20263.5663.32029.8461.13072.3125.2876.6249.43794.9308.12419.2604.23531.5272.36604.7876.16994.3319.36604.6639.55559.9958.13073.2344.25492.4687.39219.703.19609.3255.41833.6379.6275.9633.15687.2408.30067.4817.47062.716.22224.3189.47062.6314.71247.9438.17648.2343.34643.4686.52945.7029.24185.2995.50984.5989.7713.8983.20916.2408.40526.4816.62096.7224.24838.2734.52291.5403.78437.8071.25492.2604.49023.5208.75823.7811.4053.3971.8432.7876 1.2746 1.1716.1373.1237.268.2539.4118.3775.3726.3255.7778.6444 1.17.9699.2223.1822.4314.3644.6602.5467.268.2083.5621.4166.8367.6183.3791.2864.7451.5728 1.1438.8462.1569.1106.3334.2213.4903.3319 1.2288.8462 2.523 1.6728 3.9087 2.467.7517.429 1.51.846 2.2878 1.25.2549.136.5229.26.7844.39.5229.267 1.0458.527 1.5818.781.3137.15.6406.293.9608.436.4903.222.9805.443 1.4773.658.3464.149.6994.293 1.0523.436.3399.136.6733.286 1.0132.416.1765.072.3529.131.5294.202.2223.085.4445.169.6667.254.6537.247 1.3073.482 1.974.709.1504.053.3007.111.4576.163.7974.274 1.608.527 2.425.781.2026.065.4053.124.6144.182.3465.105.6929.209 1.0459.313.1895.052.3922.098.5817.156.6406.176 1.2811.345 1.9283.508.3921.097.7778.202 1.17.293.7059.169 1.4249.325 2.1374.481.268.059.5294.124.7974.183.0719.013.1438.026.2157.039.6537.13 1.3073.254 1.9675.371.353.065.7059.136 1.0654.195.8563.15 1.7126.28 2.5754.403.1569.027.3137.053.4706.072h.0262c1.0066.143 2.0197.267 3.0329.384.2287.026.4575.046.6863.065.7909.085 1.5753.163 2.3662.228h.0588c.353.026.7059.046 1.0589.072.6536.045 1.3073.097 1.9609.13.4249.026.8498.032 1.2681.052.6079.026 1.2092.052 1.8171.071h.1504c.3399.007.6797 0 1.0262.013.6602.013 1.3203.02 1.9805.02.4314 0 .8628-.013 1.2942-.02.621-.006 1.2354-.019 1.8564-.039.1111 0 .2287 0 .3399-.006.2876-.013.5752-.033.8628-.046.7125-.032 1.4249-.065 2.1374-.104.4314-.026.8563-.058 1.2877-.091.6798-.052 1.3595-.104 2.0393-.169.2353-.02.4772-.033.719-.059.3072-.032.6145-.065.9217-.097.2222-.026.4379-.046.6602-.072.8824-.098 1.7583-.208 2.6276-.332.1307-.019.2549-.039.3856-.058.7648-.111 1.5296-.228 2.2878-.358.2288-.04.451-.079.6732-.118.1765-.032.3595-.058.536-.091.3138-.058.6275-.123.9413-.182.5556-.104 1.1112-.215 1.6668-.325.451-.092.8955-.196 1.3399-.293.5426-.124 1.0851-.241 1.6211-.371.4444-.111.8889-.222 1.3334-.332.5295-.137 1.0589-.274 1.5818-.417.438-.124.8759-.247 1.3138-.377.5164-.15 1.0328-.306 1.5426-.469.2223-.072.4511-.13.6733-.202.3137-.104.6275-.208.9412-.312.1896-.065.3857-.13.5752-.195.791-.274 1.5753-.554 2.3466-.847.1438-.052.2876-.11.4249-.169.6533-.254 1.3003-.514 1.9413-.781.196-.085.392-.163.588-.247.752-.326 1.497-.651 2.229-.996.085-.039.17-.085.262-.124.653-.312 1.3-.631 1.941-.963.19-.098.373-.195.562-.293.713-.378 1.412-.762 2.105-1.159.314-.182.621-.3641.928-.5463.248-.1498.484-.306.732-.4622.288-.1757.575-.358.85-.5337.412-.2669.81-.5402 1.209-.8136.255-.1758.51-.345.752-.5207.425-.3059.83-.6119 1.235-.9243.196-.1497.405-.2994.595-.4491.588-.4621 1.157-.9308 1.693-1.4059.274-.2408.549-.4817.81-.729.079-.0716.144-.1432.223-.2148.163-.1497.32-.3059.477-.4556.216-.2083.431-.4166.64-.6314.157-.1562.308-.3124.458-.4686.203-.2148.399-.4296.595-.6444.144-.1562.281-.3124.425-.4686.189-.2213.379-.4426.562-.6639.13-.1563.255-.306.379-.4622.046-.0586.091-.1106.137-.1692.216-.2734.418-.5402.621-.8136.02-.026.039-.0456.052-.0716.262-.358.517-.7225.759-1.087.072-.1041.137-.2148.209-.3189.176-.2669.346-.5403.503-.8136.065-.1107.137-.2278.203-.3385.039-.0716.085-.1432.124-.2083.163-.2929.327-.5858.477-.8787.007-.0195.02-.039.026-.0586.183-.3514.353-.7094.51-1.0609.046-.1041.092-.2018.137-.3059.144-.3255.275-.6509.406-.9764.019-.0585.045-.1106.065-.1692.006-.0195.013-.039.02-.0521.019-.0585.032-.1106.058-.1692.164-.4491.314-.9047.451-1.3603.046-.1563.092-.3125.131-.4687.111-.41.209-.8136.301-1.2236.019-.0912.046-.1823.065-.2734.013-.0586.02-.1107.033-.1693.019-.0976.033-.1887.052-.2863.059-.3125.105-.6314.15-.9438.014-.0912.027-.1823.04-.2734.045-.384.085-.7746.111-1.1586 0-.0781.006-.1627.013-.2408.013-.1953.026-.384.026-.5793 0-.1888.007-.384.007-.5793l.013-5.5846.058-20.9456z" fill="#000" stroke="#fff"/><path d="m145.763 39.4414c0 .0716-.013.1432-.019.2083-.046.5142-.111 1.0349-.196 1.5491-.013.0586-.02.1237-.033.1823-.092.5272-.196 1.0479-.327 1.5751-.013.0456-.026.0912-.039.1432-.137.5338-.294 1.0675-.471 1.6012-.013.0326-.026.0651-.032.0976-.19.5468-.393 1.0935-.621 1.6403 0 0 0 .013-.007.013-.229.5402-.484 1.074-.752 1.6077-.019.0325-.032.0716-.052.1041-.261.5012-.542 1.0024-.837 1.4971-.045.0781-.091.1562-.137.2343-.294.4816-.608.9633-.941 1.4384-.065.0912-.124.1823-.19.2669-.34.4752-.693.9438-1.065 1.4124-.072.0912-.144.1758-.216.2604-.333.4035-.673.8071-1.033 1.2041-.098.1107-.196.2213-.294.332-.425.4621-.863.9177-1.327 1.3734-.085.0781-.17.1627-.255.2408-.444.4296-.908.8592-1.385 1.2822-.039.0326-.079.0716-.118.1042-.529.4621-1.085.9177-1.654 1.3734-.052.0455-.111.0846-.163.1301-.569.4426-1.15.8787-1.758 1.3148-.066.0456-.138.0977-.203.1432-.601.4231-1.229.8462-1.863 1.2562-.078.0521-.157.1042-.242.1562-.693.4426-1.398.8722-2.131 1.2953-3.039 1.7574-6.314 3.3-9.765 4.6213l-.078 26.5302c3.451-1.3278 6.726-2.8639 9.765-4.6213.261-.1497.516-.3059.778-.4556.464-.2799.915-.5598 1.359-.8397.079-.0521.164-.1041.242-.1562.641-.4101 1.262-.8331 1.863-1.2562.072-.0521.137-.0976.203-.1497.608-.4296 1.189-.8722 1.758-1.3148.052-.0456.105-.0846.163-.1302.569-.4491 1.125-.9112 1.654-1.3734.039-.0325.079-.0716.118-.1041.229-.2018.457-.4036.673-.6053.242-.2278.477-.4556.713-.6835.085-.0781.17-.1627.255-.2408.464-.4556.902-.9112 1.326-1.3734.098-.1106.197-.2213.295-.3319.359-.3971.705-.8006 1.032-1.2107.072-.0846.144-.1757.216-.2603.033-.0391.065-.0781.098-.1237.34-.4296.654-.8592.961-1.2953.065-.0911.124-.1757.189-.2668.334-.4752.648-.9568.942-1.4385.045-.0781.091-.1562.137-.2343.111-.1822.222-.3645.327-.5467.176-.319.346-.6314.516-.9503.02-.0326.033-.0716.052-.1042.275-.5337.523-1.0674.752-1.6077 0 0 0-.013.007-.013.13-.3059.248-.6053.366-.9112.091-.2409.176-.4817.255-.7225.013-.0326.026-.0651.032-.0977.177-.5337.334-1.0674.471-1.6011.013-.0456.026-.0912.039-.1432.085-.332.157-.6639.229-.9959.039-.1953.072-.384.105-.5793.013-.0586.019-.1236.032-.1822.085-.5142.151-1.0349.196-1.5491 0-.0716.013-.1432.02-.2083.033-.371.052-.7355.065-1.1065 0-.1823.007-.371.007-.5533l.078-26.5302c0 .5533-.026 1.1066-.072 1.6598z" fill="#000" stroke="#494949"/><path d="m127.095 11.7072c24.871 14.3 25.002 37.4846.294 51.7846-3.039 1.7574-6.314 3.3-9.765 4.6213 10.877-9.49 13.249-21.284 7.131-31.8089-2.915-4.5627-6.02-7.8171-10.033-10.7917-1.471-1.2953-3.177-2.532-5.151-3.6645-.726-.4166-1.484-.8006-2.242-1.1781-.412-.2018-.837-.4036-1.261-.5923-.687-.2994-1.092-.4752-1.504-.6509-.111-.0456-.229-.0911-.34-.1367-.314-.1237-.634-.2473-.948-.3645-14.9941-5.6171-35.2178-4.6473-48.3037 2.929-3.1114 1.7965-5.5691 3.8337-7.3928 6.0012-.4183.5207-.8105 1.0349-1.17 1.5621-.1961.2864-.3595.5403-.5098.7941-.6667 1.113-1.1374 2.1609-1.4838 3.2284-.1111.3385-.1699.5467-.2222.7681-.0262.0976-.0458.1887-.0719.2863-.0458.1953-.085.3906-.1242.5858-.0262.1172-.0458.2409-.0719.3645-.0262.1823-.0588.358-.0785.5403-.0196.1497-.0326.2994-.0457.4556s-.0327.3059-.0327.4556c-.0196.2994-.0196.5988-.0131.8982 0 .0912 0 .1888.0131.2799.0065.2278.0262.4556.0458.6835.0065.0976.0196.2017.0326.2994.0262.2278.0589.4621.0981.6899.0196.0846.0327.1757.0523.2604.0457.2603.1046.5272.1765.7875 1.1112 4.1787 4.1048 8.071 9.0137 11.3385.621.4166 1.2681.8266 1.9609 1.2237 11.9944 6.8929 29.8388 8.3183 44.2124 4.2763-1.6994 2.0308-3.961 3.9444-6.7979 5.6627-2.9087 1.5882-3.0132 1.6337-3.1178 1.6858s-.2092.1041-.3203.1497c-.1242.0586-.2288.1042-.3334.1562-13.0205 6.0272-31.2376 6.4568-45.049 1.3148-2.1244-.9438-4.1768-1.9787-6.1312-3.1047-.6863-.3906-1.3465-.7941-1.9936-1.2042-.1046-.065-.2026-.1301-.3072-.1952-.2419-.1562-.4772-.3059-.7125-.4556-.1438-.0977-.2876-.1953-.4314-.2929-.4183-.2799-.8301-.5663-1.2289-.8592-.1568-.1172-.3202-.2278-.4706-.3385-17.0078-12.6858-17.9621-29.8627-3.1375-42.7893 1.4184-1.2367 2.9806-2.4343 4.6932-3.5864.3464-.2343.6602-.4361.9805-.6444.4183-.2734.732-.4621 1.0327-.6509.5425-.3254.9151-.5532 1.2877-.768s.7713-.4361 1.1569-.6509c.1308-.0716.2615-.1432.3922-.2148.2549-.1367.5164-.2799.7779-.4166.1634-.0846.3202-.1627.4771-.2408.2419-.1237.4772-.24733.719-.371.1765-.08461.3465-.16923.5229-.25384.2354-.11065.4576-.22131.6929-.33196.183-.08461.366-.16923.5491-.25384.2287-.10414.4575-.20829.6797-.31243.1896-.08461.3857-.16923.5818-.25384.2222-.09764.4445-.20178.6732-.2929.1961-.08462.3922-.16273.5949-.24734.2222-.09763.451-.18876.6732-.27988.2026-.08462.4053-.16272.6079-.24083.2222-.09113.451-.18225.6733-.26686.2091-.08462.4183-.15622.6274-.23432.2223-.08462.4511-.16273.6798-.24734.2092-.07811.4249-.15621.6406-.22781.2288-.07811.451-.16272.6798-.23432.2222-.0716.4379-.14971.6536-.2213.2288-.0716.4511-.14971.6798-.22781.2223-.0716.451-.1432.6667-.2148.2288-.07159.4576-.14319.6798-.20828.2288-.0716.4576-.13669.6798-.20828.2288-.0716.4576-.13669.6798-.20178.2353-.06509.4641-.13018.6994-.19527.2222-.06508.451-.13017.6798-.18875.2353-.06509.4706-.13018.7125-.18876.2222-.05858.451-.11716.6798-.17574.2418-.06509.4771-.12367.7255-.18225.2222-.05207.451-.11065.6798-.16272.2484-.05207.4837-.11065.7321-.16923.2222-.05207.451-.10414.6798-.15621.2418-.05207.4967-.11065.7451-.16273.2222-.05207.451-.09763.6733-.14319.2549-.05207.5098-.10414.7647-.15621.2223-.04557.438-.08462.6667-.13018.255-.04556.5164-.09763.7779-.1432.2157-.03905.4379-.0781.6536-.11716.268-.04556.5295-.09112.7909-.13668.2157-.03906.4314-.0716.6537-.11065.268-.03906.536-.08462.8039-.12367.2158-.03255.4249-.06509.6406-.09764.2811-.03905.5556-.0781.8301-.11715.2092-.02604.4184-.05208.621-.08462.2811-.03905.5687-.0716.8497-.11065.2092-.02604.4053-.04556.6079-.0716.2876-.03905.5752-.0716.8759-.09763.1961-.01953.3922-.04556.5883-.05858.3007-.03255.6013-.06509.8955-.09113.1895-.01952.3726-.03254.5621-.05207.3072-.02603.621-.05207.9282-.08461.1765-.01302.353-.02604.5294-.03906.3269-.02603.6406-.04556.9674-.07159.1634-.01302.3269-.01953.4837-.03255.3399-.01952.6667-.03905 1.0066-.05858.1504-.00651.2942-.01952.4445-.01952.353-.01953.7059-.03906 1.0589-.05207.7452-.02604 1.1243-.03906 1.4969-.04557.6863-.01952 1.0981-.02603 1.5033-.02603 5.5299-.058582 10.9224.27337 16.1908 1.00236.4771.06509.9347.13018 1.3988.20178.5229.07811.9608.1497 1.4053.22781.5486.09112.9866.16272 1.4186.24734.568.09763.993.18225 1.412.26686.581.11065.993.20178 1.412.28639.581.12367.993.21479 1.398.30592.589.13668.994.22781 1.399.32544.595.1432.981.24734 1.379.34497.595.15622.994.26036 1.38.3645.588.16272.98.27337 1.366.39053.581.17574.967.28639 1.353.41006.581.18225.961.30592 1.346.42959.569.18875.948.31242 1.327.44911.556.19526.935.33195 1.307.46864.549.20177.929.34497 1.301.48816.53.20829.909.35799 1.281.5142.523.2148.896.37101 1.275.52722.49.2148.869.38403 1.248.54675.477.2213.85.39053 1.229.57278.458.2213.837.40355 1.209.59231.432.21479.811.41009 1.19.61179.712.371 1.412.7551 2.092 1.1456z" fill="#000" stroke="#494949"/><path d="m109.315 21.9977c6.706 3.8532 11.609 8.3509 14.72 13.1479 6.837 11.6834 4.464 23.4775-6.425 32.974-2.282 1.9982-4.948 3.8923-7.994 5.6562-24.7146 14.3-64.9136 14.3-89.7847 0-24.87115-14.3-25.00188-37.4846-.2942-51.7846 3.046-1.7639 6.3273-3.3065 9.7851-4.6343-14.8247 12.9266-13.8703 30.1035 2.8106 42.5485 1.4772 1.3213 3.2225 2.571 5.2357 3.7295 14.0991 8.1036 36.2837 8.6568 51.4025 1.6598.1241-.0586.2287-.1106.3333-.1562.1242-.0586.2288-.1107.3334-.1627.1046-.0521.2091-.1042.3137-.1562 17.2436-10.258 16.9686-24.0959 2.0394-32.6811-11.9944-6.8994-29.8453-8.3248-44.2189-4.2828 1.8236-2.1675 4.2813-4.2048 7.3927-6.0012 13.0859-7.5763 33.3096-8.5462 48.3044-2.929 2.098.9373 4.118 1.9592 6.046 3.0657z" fill="#000" stroke="#fff"/></g></svg>