<svg fill="none" height="142" viewBox="0 0 113 142" width="113" xmlns="http://www.w3.org/2000/svg"><g fill="#000" stroke-miterlimit="10"><path d="m29.8978 97.7188c.5868-.1154 1.1837-.2308 1.7806-.3411.0401-.005.0752-.0151.1154-.0201.5617-.1053 1.1235-.2056 1.6953-.3059.0903-.0151.1755-.0301.2658-.0452.5518-.0953 1.1135-.1906 1.6753-.2859.1154-.02.2307-.0401.3461-.0552.5618-.0953 1.1285-.1855 1.7004-.2758.03 0 .0551-.0101.0852-.0151.5166-.0802 1.0433-.1605 1.5649-.2357.1254-.0201.2558-.0401.3812-.0552.5317-.0802 1.0634-.1555 1.5951-.2307.0652-.01.1304-.0201.1956-.0251.4313-.0602.8677-.1204 1.3041-.1806.1605-.02.316-.0401.4765-.0652.321-.0401.642-.0852.968-.1254.1555-.02.311-.0401.4665-.0602.4213-.0551.8427-.1053 1.269-.1554.0502-.0051.1003-.0101.1505-.0201.1304-.0151.2608-.0301.3962-.0451.2709-.0301.5467-.0653.8176-.0954.1454-.015.2909-.0351.4364-.0501.2558-.0301.5116-.0602.7674-.0853.1655-.02.331-.0351.4965-.0551.2408-.0251.4816-.0552.7273-.0803.1204-.015.2408-.0251.3662-.0401.2909-.0301.5768-.0602.8677-.0903.0803-.01.1605-.0151.2408-.0251.3711-.0351.7373-.0752 1.1085-.1103.0652-.0051.1304-.0151.1956-.0201.321-.0301.642-.0602.963-.0903.0803-.01.1605-.015.2408-.0251.3661-.0351.7273-.0652 1.0934-.1003.0502 0 .1053-.01.1555-.015.3712-.0351.7423-.0652 1.1135-.0953.0502 0 .1003-.0101.1505-.0151.3711-.0301.7373-.0602 1.1085-.0903.0551 0 .1053-.01.1605-.015.3711-.0301.7473-.0602 1.1185-.0853.0401 0 .0802-.005.1204-.01.3812-.0301.7674-.0552 1.1486-.0853.0301 0 .0602 0 .0953-.005.8226-.0602 1.6452-.1154 2.4627-.1655.0301 0 .0552 0 .0853-.005.3963-.0251.7975-.0502 1.1938-.0702h.0301c.3962-.0251.7874-.0452 1.1787-.0653h.0752c.3611-.02.7173-.0351 1.0784-.0551.0853 0 .1705-.0101.2508-.0151.1906-.01.3812-.02.5718-.0251.2608-.01.5166-.025.7774-.0351.1856-.01.3712-.015.5568-.025.2508-.0101.5016-.0201.7524-.0301.1053 0 .2106-.0101.316-.0101 1.3091-.0501 2.6132-.0903 3.9022-.1204.0753 0 .1505.0001.2257-.005.4565-.01.9079-.02 1.3593-.025h.0602.0351c.3511-.0051.7022-.0101 1.0533-.0151h.306c.2759 0 .5517-.005.8226-.01h.2859 1.0383.1354 1.0834.0351c.3561 0 .7072 0 1.0583.005h.1204c.3411 0 .6771.005 1.0182.01h.1856c.3361 0 .6671.0101 1.0032.0151h.1655c.3461.005.6871.015 1.0282.02.3311.0101.6571.0151.9831.0251.0803 0 .1605 0 .2408.005.2809.0101.5617.0201.8426.0301.0652 0 .1304 0 .1956.005.3361.0101.6722.0251 1.0032.0402.0853 0 .1705.01.2558.01.2408.01.4765.0201.7122.0351.1555.01.311.0151.4665.0251.1756.01.3561.0201.5317.0301.2859.015.5668.0301.8527.0501.1103.0051.2257.0151.336.0201.3913.0251.7775.0502 1.1587.0752.0351 0 .0752.0051.1103.0101.4565.0301.9079.0652 1.3543.1053.0953.01.1906.0151.2859.0251.5016.0401.9931.0853 1.4796.1354.0853.01.1656.0151.2508.0251.5568.0552 1.1085.1153 1.6452.1755.0752.0101.1505.0151.2257.0251.5417.0652 1.0734.1304 1.59.2007.0702.01.1455.02.2157.03.5066.0703 1.0032.1405 1.4893.2157.216.0351.427.0652.637.1003.417.0703.813.1405 1.204.2107.065.01.131.0251.196.0351.366.0702.722.1405 1.063.2107.045.01.09.02.136.0301.351.0752.692.1504 1.023.2307.03.005.055.015.08.0201.341.0802.667.1655.983.2507.341.0903.667.1856.978.2809.045.0151.085.0301.131.0452.26.0802.516.1655.757.2457.105.0352.201.0753.301.1104.171.0602.346.1254.507.1906.105.0401.195.0853.295.1254.146.0602.291.1204.427.1856.09.0401.165.0852.251.1254.135.0652.27.1304.391.2006.17.0953.331.1906.481.2859.02.015.046.0251.066.0401.145.0953.285.1956.411.2909.02.0151.045.0352.065.0502.125.1003.236.2006.341.3009.015.0151.03.0352.05.0502.106.1053.201.2107.281.316 0 0 .005.01.01.01.075.1003.141.2057.196.306.01.0201.025.0451.035.0652.055.1053.095.2107.13.316.005.015.01.0351.015.0502.031.1103.056.2257.061.336l-1.184-15.6392c-.01-.1154-.03-.2257-.06-.3361 0-.015-.01-.0351-.015-.0501 0-.0151-.005-.0251-.01-.0402-.03-.0953-.071-.1855-.121-.2808-.01-.0251-.025-.0452-.035-.0703-.02-.0401-.04-.0752-.06-.1153-.04-.0652-.085-.1304-.136-.1906 0 0-.005-.0101-.01-.0101-.055-.0702-.11-.1404-.175-.2106-.03-.0351-.07-.0702-.105-.1053-.015-.0151-.031-.0352-.051-.0502-.08-.0803-.165-.1555-.26-.2358-.025-.02-.056-.0401-.081-.0652-.02-.015-.04-.0351-.065-.0501-.11-.0853-.226-.1706-.351-.2558-.02-.0151-.04-.0251-.06-.0401-.02-.0151-.045-.0251-.065-.0402-.141-.0903-.286-.1805-.447-.2658-.01-.005-.025-.01-.035-.0151-.125-.0652-.261-.1354-.396-.2006-.075-.0401-.146-.0752-.226-.1153-.01 0-.015-.0051-.025-.0101-.135-.0652-.286-.1254-.431-.1856-.091-.0401-.176-.0802-.271-.1153-.005 0-.01 0-.02-.005-.161-.0653-.341-.1305-.512-.1906-.095-.0352-.18-.0703-.281-.1054h-.01c-.25-.0903-.516-.1755-.792-.2608-.035-.01-.065-.0201-.096-.0301-.31-.0953-.637-.1906-.978-.2809 0 0-.005 0-.01 0-.311-.0852-.637-.1655-.973-.2458-.03-.005-.055-.015-.085-.02-.02 0-.035-.01-.05-.0151-.311-.0752-.637-.1454-.968-.2156-.045-.0101-.09-.0201-.136-.0301-.035-.0101-.07-.0151-.105-.0251-.311-.0652-.627-.1254-.953-.1856-.065-.01-.13-.0251-.201-.0351-.075-.0151-.15-.0301-.225-.0401-.316-.0552-.642-.1154-.9783-.1706-.1806-.0301-.3662-.0602-.5518-.0903-.0301 0-.0551-.01-.0852-.01-.4866-.0752-.9831-.1505-1.4897-.2157-.0401-.005-.0752-.01-.1154-.015-.0301 0-.0652-.01-.0953-.01-.5216-.0703-1.0533-.1355-1.595-.2007-.0401 0-.0802-.01-.1204-.015-.0351 0-.0702-.005-.1003-.0101-.5417-.0601-1.0884-.1203-1.6502-.1755-.0451 0-.0853-.01-.1254-.0151-.0401 0-.0802-.005-.1204-.01-.4865-.0451-.978-.0903-1.4796-.1304-.0351 0-.0702-.005-.1104-.01-.0602 0-.1204-.0101-.1805-.0151-.4464-.0351-.8979-.0702-1.3593-.1053-.0251 0-.0502 0-.0753-.005-.01 0-.015 0-.025 0-.3812-.0251-.7725-.0502-1.1587-.0753-.0251 0-.0501 0-.0752 0-.0853-.005-.1756-.01-.2608-.015-.2809-.0151-.5668-.0351-.8527-.0502-.0552 0-.1154-.005-.1706-.01-.1203-.005-.2407-.01-.3611-.0201-.1555-.01-.311-.015-.4665-.025-.0602 0-.1203-.0051-.1855-.0101-.1706-.01-.3411-.015-.5167-.025-.0903 0-.1856-.0101-.2758-.0101-.0251 0-.0502 0-.0803 0-.2909-.01-.5818-.0251-.8778-.0351-.015 0-.03 0-.0401 0-.0652 0-.1254 0-.1906-.005-.2157-.01-.4364-.0151-.6571-.0251-.0652 0-.1254 0-.1906-.005-.0802 0-.1605 0-.2407-.005-.1053 0-.2057-.005-.311-.01-.2207-.0051-.4414-.0101-.6671-.0201-.01 0-.0201 0-.0301 0-.2106-.005-.4263-.01-.637-.0151-.1204 0-.2357 0-.3561-.005-.0602 0-.1204 0-.1856 0-.0451 0-.0903 0-.1354 0-.2257 0-.4514-.01-.6822-.01-.0602 0-.1203 0-.1805 0s-.1204 0-.1856 0c-.1003 0-.2057 0-.306 0-.2157 0-.4263 0-.642-.005-.0201 0-.0451 0-.0652 0-.0401 0-.0752 0-.1154 0-.1555 0-.311 0-.4664 0-.1906 0-.3863 0-.5769 0-.02 0-.0401 0-.0601 0-.0051 0-.0101 0-.0151 0-.2157 0-.4364 0-.652 0-.1305 0-.2609 0-.3913 0-.0551 0-.1053 0-.1605 0-.0351 0-.0702 0-.1053 0-.2558 0-.5166 0-.7775 0-.0501 0-.1003 0-.1504 0-.0953 0-.1957 0-.2909 0-.1455 0-.291 0-.4414 0-.1254 0-.2508 0-.3762 0-.1003 0-.2057 0-.306 0-.0652 0-.1354 0-.2006 0-.2809 0-.5668.01-.8477.015-.01 0-.0251 0-.0351 0 0 0-.005 0-.01 0-.0151 0-.0351 0-.0502 0-.4514.0101-.9028.0151-1.3542.0251-.0502 0-.1004 0-.1505 0-.0301 0-.0602 0-.0903 0-1.2891.0301-2.5882.0702-3.8973.1204-.0301 0-.0652 0-.0953 0-.0752 0-.1504.005-.2307.01-.2458.01-.4966.0201-.7423.0301-.1254.005-.2558.01-.3812.0151-.0602 0-.1204.005-.1806.01-.2608.01-.5166.0251-.7775.0351-.1354.005-.2658.01-.4012.0201-.0552 0-.1154.005-.1706.01-.0852 0-.1705.01-.2507.015-.1254.0051-.2508.0101-.3812.0201-.2207.01-.4414.0251-.6621.0351-.0151 0-.0301 0-.0402 0-.015 0-.0351 0-.0501 0-.1906.01-.3812.0201-.5718.0301-.2057.01-.4163.0251-.622.0351-.01 0-.02 0-.0301 0h-.01c-.2207.0151-.4464.0251-.6671.0401-.1705.0101-.3411.0201-.5116.0301-.0301 0-.0552 0-.0853.0051-.0251 0-.0451 0-.0702 0-.2006.01-.3962.025-.5969.0401-.1906.01-.3812.0251-.5718.0401-.1906.0151-.3812.0251-.5718.0401-.1906.0151-.3812.0251-.5718.0402-.0251 0-.0501 0-.0802.005-.0301 0-.0602 0-.0953.005-.1355.01-.2659.0201-.4013.0301-.1906.015-.3812.0301-.5718.0401-.0552 0-.1154.01-.1705.0151-.0401 0-.0803.005-.1204.01-.0953.005-.1856.015-.2809.0201-.2056.015-.4113.0301-.6169.0501-.0753.005-.1505.01-.2207.0201-.0552 0-.1054.01-.1605.015-.0853.005-.1655.0151-.2508.0201-.2107.015-.4213.0351-.632.0501-.0752.0051-.1505.0151-.2257.0201-.0502 0-.1003.01-.1505.0151-.0853.005-.1705.015-.2558.02-.2107.0201-.4213.0351-.632.0552-.0752.005-.1505.015-.2257.0201-.0502 0-.0953.01-.1455.015-.0852.01-.1755.0151-.2608.0251-.2307.02-.4664.0401-.6972.0652-.0451 0-.0953.01-.1404.015-.0803.005-.1605.0151-.2408.0251-.1504.0151-.2959.0251-.4464.0401-.1755.0151-.3461.0352-.5216.0502-.0652.005-.1304.015-.1956.0201-.0351 0-.0753.005-.1104.01-.2758.0251-.5517.0552-.8276.0802-.0552.0051-.1153.0101-.1705.0151-.0803.01-.1605.015-.2408.0251-.1404.015-.2758.0301-.4163.0451-.1555.0151-.306.0301-.4614.0502-.1154.01-.2308.0251-.3511.0351-.0602.005-.1154.01-.1756.02-.1906.0201-.3812.0402-.5718.0652-.1605.0201-.321.0352-.4815.0552-.0351 0-.0753.0101-.1104.0101-.2207.025-.4414.0501-.662.0752-.1455.015-.291.0351-.4364.0502-.0201 0-.0452-.0001-.0652.01-.2558.0301-.5066.0602-.7574.0903-.1304.015-.2608.0301-.3862.0451-.0101 0-.0151 0-.0251 0-.0451.005-.0853.01-.1304.0151-.4213.0501-.8427.1053-1.264.1554-.0502.0051-.1053.0151-.1555.0201-.1003.0151-.2056.0251-.3059.0401-.3211.0402-.6471.0853-.9681.1254-.0903.0101-.1806.0251-.2708.0351-.0703.0101-.1355.0201-.2057.0301-.4313.0602-.8627.1154-1.2891.1756-.0601.01-.1203.015-.1755.0251-.0151 0-.0251 0-.0401.005-.5317.0752-1.0584.1505-1.585.2307-.0602.01-.1204.0151-.1806.0251-.0702.01-.1404.0201-.2106.0301-.5167.0752-1.0333.1555-1.5449.2357-.0251 0-.0552.0101-.0803.0101-.005 0-.015 0-.02 0-.5668.0902-1.1336.1805-1.6903.2708-.0653.01-.1355.0201-.2007.0301-.0552.01-.1053.0201-.1555.0251-.5617.0953-1.1185.1856-1.6702.2859-.0301.005-.0652.01-.0953.015-.0552.0101-.1154.0201-.1706.0301-.5667.1003-1.1335.2007-1.6953.306-.0301.005-.0602.01-.0853.015-.01 0-.02 0-.025.0051-.6019.1103-1.1938.2257-1.7807.341-.0551.0101-.1153.0201-.1755.0351-.0351.0051-.0702.0151-.1053.0201-.5869.1154-1.1737.2357-1.7505.3561-.0502.0101-.1054.0201-.1555.0301-.1756.0351-.3461.0752-.5167.1104-.4915.1053-.973.2106-1.4445.316-.0452.01-.0903.02-.1354.0301-.2057.0451-.4063.0902-.6069.1404-.1254.0301-.2508.0552-.3762.0853-.3762.0852-.7474.1755-1.1085.2608-.0753.02-.1455.0351-.2207.0552-.311.0752-.617.1504-.9179.2257-.1455.0351-.2859.0752-.4314.1103-.2156.0552-.4363.1104-.647.1655-.005 0-.015 0-.0201.005-.3962.1054-.7824.2107-1.1586.311-.1104.0301-.2107.0602-.321.0903-.2659.0752-.5317.1505-.7925.2257-.0401.0101-.0853.0251-.1254.0351-.0652.0201-.1254.0402-.1906.0552-.3561.1053-.7022.2107-1.0433.316-.0953.0301-.1906.0552-.2809.0853-.4012.1254-.7925.2508-1.1737.3812-.025.01-.0501.015-.0702.025-.0602.0201-.1204.0402-.1806.0602-.2758.0953-.5517.1856-.8125.2809-.1003.0351-.2006.0702-.301.1054-.2909.1053-.5768.2106-.8577.3159-.0401.0151-.0852.0301-.1254.0452-.3109.1204-.6119.2407-.9078.3611-.0803.0351-.1605.0652-.2408.1003-.2207.0903-.4313.1856-.642.2759-.0802.0351-.1555.0702-.2357.1053-.2659.1204-.5267.2408-.77247.3612-.01003 0-.02006.01-.02508.015-.23574.1154-.46145.2358-.68214.3511-.06521.0351-.13042.0703-.19562.1054-.17054.0903-.33104.1855-.48653.2758-.05518.0301-.11035.0652-.16051.0953-.20063.1204-.39123.2408-.56678.3612-.0301.02-.05517.0401-.08527.0602-.15047.1003-.29092.2006-.42133.3009-.04514.0351-.0953.0702-.14044.1053-.12038.0953-.23574.1906-.34107.2859-.0301.0251-.06019.0552-.09029.0803-.13041.1204-.25079.2357-.36113.3561-.02508.0251-.04514.0552-.07022.0803-.08527.0902-.16051.1855-.23073.2758-.02508.0351-.05517.0703-.07524.1054-.07022.1003-.13542.2006-.1906.3009-.01003.0201-.02006.0351-.03009.0552-.06019.1153-.11035.2307-.15047.3461-.01004.0301-.02007.0602-.0301.0903-.02508.0852-.04514.1755-.06019.2608-.00501.0351-.01003.0652-.01505.1003-.01504.1103-.02006.2257-.01003.3361l1.18373 15.6394c-.01003-.111 0-.226.01003-.336 0-.035.01003-.065.01505-.101.01504-.085.03511-.175.06019-.26.01003-.031.01504-.061.03009-.091.04013-.115.09029-.23.15047-.346.01004-.015.02007-.035.0301-.055.05517-.1.12038-.201.1906-.301.02508-.035.05016-.07.08025-.105.07022-.091.14546-.186.23073-.276.02508-.025.04514-.055.07022-.08.11035-.116.23073-.236.36114-.351.03009-.026.06019-.056.09028-.081.10533-.095.2207-.19.34107-.286.04515-.035.09029-.07.14045-.105.13542-.1.27085-.201.42132-.301.0301-.02.05518-.04.08527-.06.18057-.12.36615-.241.56678-.361.05016-.03.11035-.065.16051-.096.15549-.09.321-.185.4865-.275.0652-.035.1254-.071.1956-.106.2157-.115.4414-.23.6822-.351.01 0 .0201-.01.0301-.015.2458-.12.5066-.241.7724-.361.0753-.035.1555-.07.2358-.105.2056-.091.4213-.186.642-.276.0802-.035.1555-.065.2407-.101.291-.12.5919-.24.9079-.361.0401-.015.0853-.03.1254-.045.2759-.105.5618-.21.8577-.316.1003-.035.2006-.07.3009-.105.2659-.095.5367-.186.8126-.281.0853-.03.1655-.055.2508-.085.3812-.126.7724-.251 1.1737-.381.0903-.031.1856-.061.2809-.086.341-.105.6871-.21 1.0433-.316.1053-.03.2106-.06.3159-.095.2609-.075.5267-.151.7925-.226.1054-.03.2107-.06.321-.09.3812-.1054.7675-.2107 1.1587-.311.2207-.0552.4464-.1154.6671-.1706.1455-.0351.2859-.0752.4314-.1103.3009-.0752.6069-.1505.9178-.2257.0753-.0201.1455-.0351.2207-.0552.3662-.0903.7374-.1755 1.1135-.2658.1254-.0301.2508-.0552.3762-.0853.2458-.0552.4916-.1103.7424-.1705.4714-.1054.953-.2107 1.4445-.316.2207-.0452.4464-.0953.6721-.1405.5768-.1204 1.1587-.2407 1.7505-.3561.0903-.0201.1856-.0351.2759-.0552z" stroke="#494949"/><path d="m59.9317 113.131c29.0394-2.199 52.2563-8.265 51.8563-13.5491-.4-5.2842-24.2658-7.7854-53.3052-5.5866-29.0394 2.1987-52.25611 8.2647-51.85601 13.5487s24.26551 7.786 53.30491 5.587z" stroke="#494949"/><path d="m110 50.6556c0 .0502-.01.1003-.025.1505 0 .015-.01.0301-.015.0451-.015.0351-.03.0703-.05.1054-.01.015-.02.0351-.03.0501-.025.0351-.055.0753-.086.1104-.01.015-.02.025-.03.0401-.045.0451-.09.0903-.145.1404-.005.0051-.015.0101-.025.0201-.05.0401-.106.0803-.161.1204-.025.015-.055.0351-.08.0501-.04.0251-.085.0552-.13.0803-.03.0201-.066.0351-.101.0552-.045.025-.095.0501-.145.0752-.035.0201-.075.0351-.116.0552-.05.0251-.1.0451-.155.0702-.045.0201-.085.0351-.13.0552-.056.025-.116.0451-.176.0702-.05.02-.095.0351-.145.0552-.061.02-.121.0451-.186.0652-.055.02-.105.0351-.16.0551-.066.0201-.136.0452-.206.0652-.055.0201-.116.0352-.176.0552-.07.0201-.14.0401-.21.0652-.061.0201-.126.0351-.191.0552-.075.0201-.15.0401-.231.0602-.065.0201-.135.0351-.205.0552-.081.02-.161.0401-.241.0601-.075.0201-.146.0352-.221.0552-.085.0201-.175.0402-.261.0602-.075.0201-.155.0351-.23.0552-.091.0201-.186.0401-.281.0602-.08.015-.161.0351-.246.0501-.1.0201-.201.0402-.306.0602-.085.0151-.165.0351-.251.0502-.125.0251-.256.0501-.386.0702-.07.01-.135.0251-.201.0351-.18.0301-.366.0652-.551.0953-.025 0-.045.01-.071.01-.215.0352-.436.0703-.662.1054-.075.01-.155.0251-.23.0351-.151.0251-.306.0451-.462.0702-.085.01-.175.0251-.261.0351-.155.0251-.316.0452-.476.0652-.1.0151-.206.0301-.311.0402-.151.02-.306.0401-.462.0601-.105.0151-.21.0251-.316.0402-.18.025-.3657.0451-.5513.0652-.1053.015-.2157.0251-.326.0401-.1956.0251-.3913.0451-.5919.0702-.1003.0101-.2006.0251-.3009.0351-.316.0351-.6421.0703-.9731.1054-.0201 0-.0351 0-.0552.005-.316.0301-.637.0652-.963.0953-.0803.01-.1655.015-.2508.0251-.4665.0451-.943.0852-1.4345.1304-.5467.0451-1.1085.0903-1.6753.1354-.1454.01-.2909.0251-.4414.0351-.5868.0451-1.1837.0853-1.7906.1254-.1003.005-.2057.015-.311.0201-.5216.0351-1.0533.0652-1.585.1003-.1605.01-.316.02-.4765.0301-.316.02-.642.0351-.963.0501-.5016.0251-1.0082.0552-1.5248.0803-.3361.015-.6771.0301-1.0182.0451-.4013.0201-.8025.0351-1.2088.0502-.3712.015-.7474.0301-1.1185.0451-.3662.0151-.7323.0251-1.1035.0401-.3963.0151-.7975.0251-1.1988.0402-.3461.01-.6871.02-1.0332.0301-.3762.01-.7524.02-1.1336.0301-.4615.01-.9229.025-1.3894.0351-.3461.01-.6922.015-1.0433.02-.5718.0101-1.1536.0201-1.7304.0301-.326.0051-.6471.0101-.9731.0151-.642.01-1.289.015-1.9411.02-.3009 0-.5969.0051-.8928.0101-.0602 0-.1204 0-.1856 0-.3411 0-.6871 0-1.0332 0-.8728 0-1.7505.005-2.6283 0-.306 0-.6119 0-.9179 0-.2458 0-.4915 0-.7423 0-.5518 0-1.1035-.005-1.6552-.0101-.2157 0-.4264 0-.6421 0-.7222-.005-1.4395-.015-2.1618-.025-.1203 0-.2457 0-.3661-.005-.7173-.0101-1.4345-.0201-2.1518-.0352-.0602 0-.1204 0-.1806 0-.7473-.015-1.4896-.0301-2.237-.0451-.1505 0-.301-.005-.4514-.01-.7323-.0151-1.4696-.0351-2.202-.0552-.1454 0-.2959-.01-.4413-.0151-.617-.02-1.2339-.0351-1.8459-.0551-.2006-.005-.3962-.0151-.5968-.0201-.627-.0201-1.254-.0451-1.881-.0652-.1504-.005-.3009-.01-.4514-.015-.7574-.0301-1.5147-.0602-2.2621-.0903-.2959-.0151-.5919-.0251-.8878-.0402-.4915-.02-.9831-.0451-1.4696-.0652-.3411-.015-.6822-.0351-1.0232-.0501-.4464-.0201-.8878-.0452-1.3292-.0702-.3812-.0201-.7624-.0402-1.1436-.0652-.4113-.0251-.8226-.0452-1.2289-.0703-.3962-.025-.7925-.0501-1.1837-.0702-.3963-.0251-.7875-.0501-1.1787-.0752-.4013-.0251-.7975-.0552-1.1938-.0803-.3812-.0251-.7624-.0501-1.1436-.0802-.4213-.0301-.8326-.0602-1.2489-.0903-.3611-.0251-.7223-.0552-1.0784-.0803-.4514-.0351-.8978-.0702-1.3442-.1103-.321-.0251-.6471-.0502-.9681-.0803-.5216-.0451-1.0332-.0903-1.5499-.1354-.2658-.0251-.5316-.0451-.7925-.0702-.0802-.01-.1605-.0151-.2407-.0251-.5969-.0552-1.1888-.1154-1.7706-.1705-.0802-.0101-.1655-.0151-.2458-.0251-.6069-.0602-1.2037-.1254-1.7956-.1906-.1455-.0151-.2859-.0301-.4264-.0451-.5868-.0653-1.1686-.1305-1.7404-.2007-.311-.0351-.617-.0752-.9229-.1153-.1054-.0151-.2107-.0251-.316-.0402-.1956-.025-.3862-.0501-.5768-.0752-.1305-.0151-.2609-.0351-.3913-.0502-.1655-.02-.331-.0451-.4965-.0652-.1254-.015-.2508-.0351-.3762-.0501-.1605-.0201-.321-.0452-.4765-.0652-.1254-.0201-.2508-.0351-.3712-.0552-.1505-.0201-.306-.0452-.4564-.0652-.1204-.0201-.2458-.0351-.3662-.0552s-.2407-.0351-.3561-.0552c-.3862-.0601-.7674-.1203-1.1336-.1805-.0602-.0101-.1153-.0201-.1755-.0301-.3461-.0602-.6822-.1154-1.0082-.1756-.0401-.005-.0803-.015-.1204-.02-.3411-.0602-.6721-.1254-.9931-.1856-.0652-.0151-.1354-.0251-.2006-.0401-.316-.0602-.622-.1254-.9129-.1856-.0401-.0101-.0803-.0201-.1204-.0251-.2759-.0602-.54169-.1204-.7975-.1806-.04012-.01-.08025-.02-.11536-.0251-.26584-.0652-.52164-.1254-.76742-.1906-.05015-.015-.10031-.025-.15549-.0401-.24075-.0652-.4765-.1304-.69719-.1906-.02508-.005-.05016-.015-.07524-.02-.20565-.0602-.40126-.1204-.59186-.1856-.0301-.0101-.06521-.0201-.0953-.0301-.1906-.0652-.37619-.1304-.54672-.1906-.03511-.0151-.07022-.0251-.10533-.0402-.17054-.0652-.33105-.1304-.48152-.1956-.01505-.005-.02508-.01-.03511-.015-.14044-.0602-.26584-.1254-.38621-.1856-.02007-.01-.04515-.0251-.06521-.0351-.12038-.0652-.22571-.1304-.32603-.1906-.02006-.0151-.04012-.0251-.06019-.0401-.0953-.0652-.18558-.1304-.26082-.1957 0 0-.00501-.005-.01003-.01-.07022-.0652-.13041-.1254-.18057-.1906-.01003-.01-.02006-.0251-.03009-.0351-.04514-.0652-.08025-.1254-.10533-.1906 0-.015-.01003-.0251-.01003-.0351-.02007-.0652-.03512-.1304-.03512-.1956l-.30094 15.8649c0 .0652.01504.1304.03511.1956 0 .0151.01003.0251.01003.0351.02508.0652.06019.1254.10533.1906.01003.0101.02006.0251.0301.0352.05015.0652.10533.1253.18056.1906 0 0 .00502.005.01004.01.07523.0652.1605.1304.26082.1956.02006.015.04012.0251.06019.0401.10031.0652.20564.1304.32602.1906.02007.0101.04514.0251.06521.0351.12038.0602.24577.1254.38621.1856.01505.005.02508.0101.04013.0151.14546.0652.31098.1304.48152.1956.03511.015.07022.0251.10533.0401.17053.0652.3511.1304.54672.1906.03009.01.0652.0201.0953.0301.18558.0602.38621.1204.59186.1856.02508.005.05016.015.07524.02.22069.0653.45643.1305.69719.1907.05016.015.10032.025.15549.0401.24578.0652.50158.1254.76742.1906.04012.01.08025.02.11536.0251.25581.0602.52164.1203.79753.1805.0401.0101.0802.0201.1204.0251.2959.0652.6019.1254.9128.1856.0652.015.1355.0251.2007.0401.321.0602.652.1254.9931.1856.0401.005.0802.015.1204.0201.326.0602.6621.1153 1.0081.1755.0602.01.1154.0201.1756.0301.3661.0602.7423.1204 1.1336.1806.0351.005.0702.01.1053.015.0802.0151.1655.0251.2508.0351.1204.0201.2407.0352.3661.0552.1505.0201.301.0451.4515.0652.1254.0201.2507.0351.3761.0552.1555.0201.316.0451.4715.0652.1254.0201.2508.0351.3812.0552.1605.02.3261.0451.4916.0652.1304.015.2608.0351.3962.0501.0301 0 .0602.0101.0903.0101.1605.02.321.0401.4865.0602.1054.015.2107.025.321.0401.301.0401.607.0752.923.1153.3862.0452.7724.0903 1.1686.1355.1856.02.3812.0401.5718.0652.1405.015.2859.0301.4314.0501.5517.0602 1.1035.1204 1.6702.1756.0402 0 .0803.01.1254.01.0803.01.1656.0151.2458.0251.5818.0602 1.1737.1154 1.7706.1705.0802.0101.1605.0151.2458.0251.0451 0 .0902.01.1354.0151.2157.02.4364.0401.6571.0601.5116.0452 1.0282.0903 1.5498.1355.0703.005.1355.01.2057.02.2508.0201.5116.0402.7674.0602.4464.0351.8928.0753 1.3442.1104.0953.01.1906.015.2909.0251.2609.02.5267.0401.7875.0601.4163.0301.8276.0602 1.249.0903.1153.0101.2257.0151.341.0251.2659.0201.5367.0351.8026.0552.3962.0251.7924.0551 1.1937.0802.1204.0101.2408.0151.3611.0251.2709.0151.5518.0351.8226.0502.3913.025.7825.0501 1.1737.0702.1254.005.2458.015.3662.02.2909.0151.5818.0301.8777.0502.3762.0201.7524.0401 1.1286.0602.1154.005.2257.015.3411.0201.326.015.657.0351.9881.0501.3411.0151.6821.0351 1.0232.0502.0903 0 .1756.01.2658.015.4013.0201.8026.0351 1.2038.0552.296.015.5919.0251.8878.0401.0502 0 .1003 0 .1555.005.6721.0301 1.3493.0552 2.0264.0803h.0853c.1504.005.3009.01.4464.015.4915.0201.9881.0352 1.4846.0552.1304 0 .2659.01.4013.0151.2006.005.3962.015.5969.02.2508.0101.4965.0151.7473.0251.3662.01.7323.0201 1.1035.0301.1455 0 .2909.01.4364.015.0602 0 .1254 0 .1856.0051.5316.015 1.0683.0301 1.6.0401.1404 0 .2809.005.4213.01.1455 0 .2909.005.4364.0101.2207 0 .4364.01.6571.015.5066.01 1.0081.0201 1.5147.0301h.0703.1805c.4163.005.8377.015 1.254.0201.3009 0 .5969.01.8978.015.1204 0 .2458 0 .3661.005h.2358c.5267.005 1.0583.01 1.585.0151h.3411.642c.2909 0 .5818 0 .8727.005h.7875.7423.4264.4915 2.6283.4966.5367.1805.2709c.2106 0 .4163 0 .6219-.005.6471-.0051 1.2941-.0101 1.9361-.0201.3261 0 .6471-.01.9731-.015.5818-.0101 1.1586-.0201 1.7304-.0301.1756 0 .3511-.0051.5267-.0101.1705 0 .3411-.01.5166-.01.4665-.01.9279-.0201 1.3894-.0351.2157-.005.4364-.01.652-.0151.1605 0 .316-.01.4766-.015.346-.01.6921-.0201 1.0332-.0301.2257-.005.4564-.015.6822-.0201.1755-.005.341-.015.5166-.02.3711-.0151.7373-.0251 1.1034-.0402.2057-.01.4113-.015.617-.02.1705-.005.336-.0151.5016-.0201.4062-.015.8075-.0351 1.2088-.0501.2006-.0101.4113-.0151.6119-.0251.1354-.005.2709-.0151.4063-.0201.5116-.0251 1.0182-.0501 1.5248-.0802.2006-.0101.4113-.0201.6119-.0301.1204-.005.2357-.0151.3561-.0201.1605-.01.321-.0201.4765-.0301.5367-.0301 1.0634-.0652 1.585-.1003.1003-.005.2057-.015.311-.0201.0401 0 .0853-.005.1254-.01.5618-.0401 1.1185-.0752 1.6652-.1204.1455-.01.2909-.02.4414-.0351.2358-.02.4765-.0351.7072-.0552.3261-.025.6471-.0501.9631-.0802.4915-.0401.968-.0853 1.4345-.1304.0451 0 .0953-.0101.1455-.0151.0351 0 .0702-.005.1053-.01.326-.0301.647-.0602.963-.0953.0201 0 .0351 0 .0552-.005.331-.0351.6571-.0702.973-.1054.0301 0 .0602-.005.0903-.01.0703-.01.1405-.015.2107-.0251.2006-.02.3962-.0451.5919-.0702.1103-.015.2156-.0251.326-.0401.1856-.0201.3661-.0451.5517-.0652.0655-.01.1305-.0151.1905-.0251.04-.005.08-.01.121-.015.155-.0201.31-.0402.461-.0602.105-.0151.211-.0301.311-.0402.16-.02.316-.0451.471-.0652.076-.01.151-.02.226-.0301.015 0 .03 0 .05-.005.156-.02.306-.0451.452-.0702.08-.01.16-.0251.24-.0351.226-.0351.447-.0702.663-.1053.025 0 .045-.0101.07-.0101.185-.0301.371-.0652.552-.0953.07-.01.135-.025.2-.0351.131-.0251.261-.0501.386-.0702.01 0 .02 0 .03-.005.076-.0151.146-.0301.221-.0452.1-.02.206-.0401.306-.0601.085-.0151.161-.0352.246-.0502.095-.0201.19-.0401.281-.0602.015 0 .03-.005.04-.01.065-.0151.125-.0301.19-.0452.091-.02.176-.0401.261-.0602.076-.02.146-.0351.221-.0551.08-.0201.166-.0402.246-.0602.015 0 .035-.0101.05-.0101.055-.015.1-.03.155-.0401.076-.02.156-.0401.231-.0602.065-.02.126-.0351.191-.0551.07-.0201.145-.0402.215-.0652.015-.0051.036-.0101.056-.0151.04-.015.08-.0251.12-.0401.07-.0201.14-.0452.206-.0652.055-.0201.105-.0351.16-.0552.065-.0201.126-.0451.186-.0652.02-.005.04-.015.06-.0201.03-.01.055-.02.085-.0351.06-.0251.116-.0451.176-.0702.045-.0201.09-.0351.13-.0552.055-.0251.105-.0451.156-.0702.02-.01.045-.0201.07-.0301.015-.01.03-.015.05-.0251.05-.025.1-.0501.145-.0752.036-.0201.066-.0351.101-.0552.045-.0251.09-.0501.13-.0802.02-.0151.045-.0251.065-.0402.005 0 .01-.01.015-.01.061-.0401.116-.0802.166-.1204.005-.005.015-.01.02-.015.055-.0452.105-.0903.145-.1405 0 0 .005-.005.011-.01.01-.01.015-.02.02-.0301.03-.0351.06-.0752.085-.1103.01-.0151.02-.0351.03-.0502.02-.0351.035-.0702.05-.1053 0-.01.01-.0201.015-.0301 0-.005 0-.01 0-.0151.015-.0501.025-.1003.025-.1504l.301-15.865z" stroke="#fff"/><path d="m110.006 50.6638c.058-2.9912-23.4996-5.8693-52.6168-6.4284-29.1171-.559-52.76781 1.4126-52.82525 4.4038-.05743 2.9912 23.50015 5.8693 52.61725 6.4283 29.1172.5591 52.7678-1.4125 52.8248-4.4037z" stroke="#fff"/><g stroke="#494949"><path d="m107.135 17.3457s0-.005.005-.01c0-.01 0-.015.005-.0251.01-.0301.015-.0551.02-.0802 0-.0151 0-.0251 0-.0401 0-.0251 0-.0502 0-.0753 0-.005 0-.015 0-.0251 0-.01 0-.015 0-.025l-3.897-15.4399s.015.05143.02.06647v.07524.04013c0 .02508-.01.05517-.02.08025 0 .01003-.005.02508-.01.03511-.01.03009-.03.06019-.045.09028 0 .01004-.01.01505-.015.02508-.025.04013-.055.08026-.09.1254-.01.01003-.02.02508-.03.03511-.025.03009-.051.06019-.081.09028-.015.01505-.035.03511-.05.05016-.03.0301-.055.05517-.09.08527-.02.02006-.045.04013-.065.06019-.03.02508-.061.05517-.096.08025-.025.02006-.05.04013-.08.06019-.035.02508-.07.05517-.11.08025-.03.02007-.06.04515-.09.06521-.036.02508-.076.05517-.116.08025-.035.02508-.07.04514-.105.07022-.04.0301-.085.05518-.131.08527-.035.02508-.075.04514-.11.07022-.045.0301-.095.06019-.145.09029-.041.02507-.081.05015-.121.07523-.05.0301-.105.06019-.16.0953-.045.02508-.086.05016-.131.07524-.055.03009-.115.0652-.175.0953-.045.02508-.096.05016-.141.07524-.065.03511-.13.07022-.195.10031-.045.02508-.091.05016-.141.07524-.08.04013-.16.08025-.241.12038-.04.02006-.08.04012-.125.06019-.095.04514-.196.0953-.296.14545-.03.01505-.06.0301-.0951.04515-.1355.0652-.2759.13041-.4163.19561-.0301.01505-.0652.0301-.0953.04514-.1154.05016-.2258.10534-.3461.15549-.0502.02508-.1054.04515-.1555.07023-.1054.04514-.2107.0953-.316.14044-.0652.03009-.1354.05517-.2006.08527-.1004.04012-.1957.08526-.296.13041-.0702.03009-.1454.06019-.2157.09028-.1053.04514-.2106.09028-.321.13543-.0752.03009-.1555.0652-.2307.0953-.1053.04514-.2157.09028-.326.13542-.0803.0301-.1605.06521-.2408.0953-.1304.05016-.2558.10533-.3912.15549-.0803.0301-.1555.06019-.2358.0953-.1454.05518-.2959.11537-.4464.17555-.0652.02508-.1354.05016-.2006.08026-.2257.09028-.4614.17555-.6972.26583-.0401.01505-.0853.0301-.1304.05016-.1956.07524-.3962.15048-.5969.22571-.0802.0301-.1655.06019-.2458.09029-.1855.07022-.3761.14044-.5667.21066-.0903.03009-.1756.0652-.2659.0953-.2257.08025-.4564.16552-.6871.25079-.0602.02006-.1204.04514-.1806.0652-.4966.17556-1.0032.35613-1.5198.53669-.1003.03511-.1956.07022-.2959.10533-.5066.17556-1.0232.35111-1.5499.53168-.0953.03009-.1906.0652-.2809.0953-.5116.17555-1.0332.34609-1.5649.52164-.0401.01505-.0853.0301-.1254.04013-.5016.16552-1.0132.33104-1.5298.49656-.3361.11035-.6772.21568-1.0182.32603-.3511.11033-.6972.22073-1.0533.33603-.2057.0652-.4113.1304-.617.1956-.4564.1455-.9179.2859-1.3843.4314-.1605.0502-.316.1003-.4815.1505-.6019.1856-1.2139.3711-1.8308.5567-.1104.0351-.2257.0702-.3361.1003-.642.1957-1.294.3913-1.9511.5869h-.01c-.6621.1956-1.3292.3912-2.0064.5918-.1053.0301-.2106.0602-.3109.0903-.6421.1856-1.2941.3762-1.9512.5618-.2809.0803-.5618.1605-.8477.2408-.4263.1203-.8576.2457-1.289.3661-.637.1806-1.279.3611-1.9261.5367-.2156.0602-.4313.1204-.647.1806-.8577.2407-1.7254.4765-2.5982.7122-.7022.1906-1.4094.3812-2.1166.5718-.1555.0401-.311.0803-.4615.1254-.6872.1856-1.3743.3662-2.0665.5467-.0401.0101-.0853.0201-.1254.0351-.7473.1957-1.4947.3913-2.2471.5869-.0702.02-.1404.0351-.2106.0552-.7775.2006-1.5549.4012-2.3324.6019-.005 0-.01 0-.015 0-.7725.1956-1.5499.3962-2.3273.5918-.0753.0201-.1555.0401-.2308.0602-.7523.1906-1.5047.3762-2.2571.5618-.0451.01-.0852.02-.1304.0301-.7473.1856-1.4947.3661-2.242.5517-.0853.0201-.1706.0401-.2558.0602-.7023.1705-1.4045.3411-2.1017.5066-.1605.0401-.321.0752-.4815.1154-.7223.1705-1.4495.346-2.1668.5116-.0903.02-.1856.0451-.2759.0652-.6219.1454-1.2439.2909-1.8658.4313-.2559.0602-.5117.1204-.7675.1756-.5015.1153-.9981.2257-1.4947.3411-.2608.0601-.5216.1203-.7774.1755-.4966.1104-.9931.2207-1.4847.331-.2608.0602-.5266.1154-.7875.1756-.5467.1204-1.0934.2408-1.6351.3561-.2057.0452-.4163.0903-.6169.1354-.7524.1606-1.4998.3211-2.2371.4765-.1755.0352-.3461.0703-.5166.1104-.5768.1204-1.1587.2408-1.7305.3611-.3059.0652-.6069.1254-.9128.1856-.4364.0903-.8778.1806-1.3142.2659-.5266.1053-1.0433.2056-1.5599.3109-.2307.0452-.4665.0953-.6972.1355-.7724.1504-1.5348.2959-2.2922.4363-.6771.1254-1.3492.2508-2.0113.3712-.2809.0502-.5568.1003-.8326.1505-.306.0551-.612.1103-.9129.1605-.1254.02-.2508.0451-.3762.0652-.4163.0702-.8326.1454-1.2339.2106-.321.0552-.642.1054-.953.1606-.0953.015-.1856.03-.2759.0451-.2207.0351-.4413.0702-.657.1053-.1104.0201-.2207.0351-.3311.0502-.2006.0301-.3962.0602-.5918.0903-.1054.015-.2107.0351-.316.0501-.2157.0351-.4264.0652-.637.0953-.0703.0101-.1455.0201-.2207.0351-.2809.0402-.5568.0803-.8326.1204-.0502.005-.1054.0151-.1555.0201-.2207.0301-.4364.0602-.6471.0903-.0852.01-.1705.025-.2558.0351-.1755.025-.3511.0451-.5216.0702-.0903.01-.1806.0251-.2659.0351-.1755.0201-.35106.0451-.5216.0652-.07022.01-.14044.0201-.21066.0251-.23574.0301-.46647.0552-.6972.0802-.04514 0-.08526.0101-.12539.0151-.18559.0201-.36615.0401-.54672.0602-.07022.01-.14546.015-.21568.02-.14546.0151-.29092.0301-.43637.0452-.07524.005-.14546.015-.2207.02-.14546.0151-.29091.0251-.43136.0402-.06019 0-.12038.01-.17555.015-.19562.0151-.38622.0301-.5718.0452-.02508 0-.05016 0-.07524.005-.1605.01-.31097.02-.46646.0301-.06019 0-.11537.005-.17054.01-.12038.005-.23574.0151-.34609.0201-.06019 0-.11536.005-.17054.01-.11536 0-.22571.01-.33605.01-.04515 0-.0953 0-.14045 0-.15047 0-.30094.005-.44139.0101-.01504 0-.03511 0-.05015 0-.1254 0-.24578 0-.36114 0-.04013 0-.08527 0-.1254 0-.09028 0-.17555 0-.26082-.0051-.04012 0-.08526 0-.12539 0-.08527 0-.16552-.01-.24577-.015-.03512 0-.07023 0-.10032-.005-.10533-.01-.21066-.0151-.31098-.0301-.01003 0-.01505 0-.02508 0-.09028-.01-.17054-.0201-.25079-.0351-.03009 0-.05517-.0101-.08025-.0151-.06019-.01-.11536-.02-.16552-.0301-.02508-.005-.05518-.01-.08025-.02-.05016-.0101-.10032-.0251-.14546-.0402-.02007-.005-.04013-.01-.06019-.015-.06521-.0201-.1254-.0401-.17555-.0652 0 0 0 0-.00502 0-.05016-.0201-.0953-.0451-.13543-.0702-.01504-.0101-.02508-.0151-.04012-.0251-.0301-.0201-.05518-.0351-.07524-.0552-.01003-.01-.02508-.02-.03511-.0301-.02006-.02-.04013-.0401-.05517-.0602-.00502-.01-.01505-.02-.02007-.0301-.02006-.0301-.03511-.0652-.04012-.1003l3.88222 15.4186c.01003.0351.02508.0652.04012.1003.00502.01.01505.02.02007.0301.01504.02.03511.0401.05517.0602.01003.01.02006.02.03511.0301.02508.02.05016.0401.07524.0551.01504.0101.02508.0151.04012.0251.04013.0251.08527.0452.13543.0702h.01003c.05518.0201.11537.0452.17555.0652.02007.005.04013.0101.06019.0201.04515.015.0953.0251.14546.0401.02508.005.05518.0101.08025.0201.05518.01.11035.02.16553.0301.02507 0 .05517.01.08025.015.08025.0101.1605.0251.24577.0351h.0301c.0953.0101.20063.0201.31098.0301.03511 0 .0652 0 .10031.005.08025.0051.16051.0101.24076.0151.04012 0 .08527 0 .12539.005.08527 0 .17054.005.25581.005h.13041.35612.05016c.14044 0 .2859 0 .44139-.01h.14545c.11035 0 .2207-.005.33105-.01.05517 0 .11536-.0051.17555-.0101.11035-.005.22571-.01.34609-.02.05517 0 .11536-.005.17054-.0101.14545-.01.30094-.02.45142-.0301.03009 0 .06019 0 .09029-.005.1856-.015.3762-.0301.5718-.0451.0552 0 .1103-.01.1705-.0151.1455-.01.2909-.025.4364-.0401.0702-.005.1404-.015.2157-.02.1454-.0151.2909-.0301.4414-.0452.0702-.005.1404-.015.2106-.0201.1856-.02.3712-.0401.5618-.0601.0351 0 .0702-.0101.1103-.0101.2308-.0251.4665-.0552.7023-.0802.0652-.0101.1304-.0151.1956-.0251.1755-.0201.3561-.0452.5417-.0652.0852-.01.1755-.0201.2608-.0351.1705-.0201.3461-.0452.5216-.0702.0853-.0101.1756-.0251.2609-.0352.2106-.0301.4263-.0601.647-.0902.0502-.0051.1003-.0151.1555-.0201.2708-.0401.5467-.0803.8276-.1204.0702-.01.1455-.02.2157-.0301.1555-.0251.3059-.0451.4614-.0702.0602-.01.1204-.0201.1856-.0301.1003-.015.2057-.0301.306-.0451.1956-.0301.3962-.0602.6019-.0953.1053-.0151.2156-.0351.321-.0502.2207-.0351.4414-.0702.6671-.1053.0903-.0151.1805-.0301.2708-.0452.306-.0501.622-.1003.938-.1555h.015c.4063-.0702.8176-.1404 1.2339-.2106.1254-.0201.2508-.0452.3762-.0652.3009-.0502.6069-.1054.9129-.1605.0702-.0151.1404-.0251.2157-.0402.2056-.0351.4112-.0752.6169-.1103.632-.1154 1.274-.2307 1.9261-.3561.03-.005.0551-.0101.0852-.0151.7524-.1404 1.5198-.2859 2.2922-.4363.0101 0 .0251 0 .0351-.0051.2107-.0401.4214-.0852.632-.1254.5267-.1053 1.0534-.2056 1.59-.3159.0301-.0051.0552-.0101.0853-.0151.3812-.0752.7724-.1555 1.1587-.2357.326-.0652.652-.1305.978-.2007.0201 0 .0452-.01.0652-.015.5668-.1154 1.1386-.2358 1.7154-.3561.1555-.0301.306-.0652.4565-.0953.01 0 .015 0 .0251-.0051.7072-.1504 1.4244-.3009 2.1417-.4564.0251-.005.0502-.01.0803-.015.1956-.0402.3912-.0853.5868-.1305.4815-.1053.968-.2106 1.4546-.3159.0702-.0151.1404-.0301.2106-.0452.2659-.0602.5317-.1204.7925-.1755.3612-.0803.7223-.1605 1.0834-.2408.1305-.0301.2609-.0602.3863-.0903.2658-.0602.5316-.1204.7975-.1806.2658-.0601.5316-.1203.7975-.1805.2257-.0502.4564-.1053.6871-.1555.2559-.0602.5066-.1154.7624-.1756.1656-.0401.3261-.0752.4866-.1103.4614-.1053.9229-.2157 1.3894-.326.0902-.0201.1805-.0402.2708-.0652.0251-.0051.0552-.0101.0803-.0201.5467-.1304 1.0934-.2558 1.6451-.3862.1505-.0351.301-.0702.4515-.1104.1554-.0351.316-.0752.4714-.1103.2057-.0502.4164-.1003.622-.1505.4314-.1053.8677-.2106 1.3041-.316.0602-.015.1254-.0301.1856-.0451.0802-.0201.1605-.0402.2407-.0602.291-.0702.5819-.1405.8728-.2107.4113-.1003.8226-.2006 1.2339-.3009.0451-.0101.0903-.0201.1304-.0351.0552-.0151.1053-.0251.1605-.0402.2558-.0652.5116-.1254.7674-.1906.3511-.0852.7022-.1755 1.0533-.2658.1405-.0351.2809-.0702.4163-.1053.0753-.0201.1555-.0402.2308-.0602.1354-.0351.2708-.0652.4012-.1003.3311-.0853.6671-.1706.9982-.2508.3109-.0803.6169-.1555.9279-.2358h.015.0101c.316-.0802.637-.1605.953-.2457.316-.0853.632-.1656.9479-.2458.1405-.0351.2809-.0753.4264-.1104.0652-.015.1304-.0351.1956-.0501.1254-.0351.2558-.0652.3812-.1003.3561-.0903.7072-.1856 1.0634-.2759.2708-.0702.5366-.1404.8075-.2107.0451-.01.0853-.025.1304-.0351.0401-.01.0803-.02.1254-.0301.3511-.0953.7072-.1856 1.0583-.2809.2959-.0802.5919-.1605.8878-.2357.1505-.0401.301-.0802.4514-.1204.0903-.0251.1806-.0501.2709-.0752.5868-.1555 1.1687-.316 1.7555-.4765.0301-.01.0652-.0201.0953-.0251.8728-.2357 1.7405-.4765 2.5982-.7122.2157-.0602.4314-.1204.647-.1806.6471-.1806 1.2891-.3611 1.9261-.5417.0953-.0251.1906-.0552.2859-.0803.331-.0953.652-.1855.9781-.2808.2909-.0853.5818-.1656.8727-.2508.0753-.0201.1505-.0402.2207-.0652.4966-.1455.9931-.2859 1.4847-.4314.0802-.0251.1555-.0451.2357-.0702.1054-.0301.2057-.0602.311-.0903.2508-.0752.5066-.1455.7574-.2207.4113-.1204.8226-.2408 1.2289-.3611.015 0 .0301-.0101.0451-.0151h.01c.4314-.1254.8577-.2558 1.2791-.3812.2207-.0652.4363-.1304.657-.1956.1104-.0351.2257-.0702.3361-.1003.0903-.0251.1806-.0552.2708-.0803.4515-.1354.8979-.2708 1.3393-.4113.0702-.02.1404-.0451.2156-.0652.1655-.0501.3311-.1003.4966-.1555.2759-.0852.5568-.1705.8326-.2558.1806-.0551.3561-.1153.5367-.1705.2107-.0652.4163-.1304.622-.1956.1404-.0452.2859-.0903.4263-.1354.2107-.0652.4113-.1305.6169-.1957.3411-.1103.6822-.2206 1.0233-.326.1203-.0401.2407-.0752.3611-.1153.3912-.1254.7775-.2558 1.1637-.3812.0451-.0151.0903-.0301.1404-.0452.2959-.0953.5869-.1956.8728-.2909.2307-.0752.4514-.1505.6771-.2307.0953-.0301.1956-.0652.2909-.0953.4364-.1455.8677-.296 1.2891-.4414.0852-.0301.1705-.0602.2558-.0903.1053-.0351.2056-.0702.3059-.1053.5167-.1806 1.0233-.3562 1.5148-.5367 0 0 .0401-.0151.0602-.0201.0351-.01.0652-.0251.1003-.0351.2408-.0853.4815-.1755.7123-.2608.0852-.0301.1705-.0602.2507-.0903.2007-.0752.3963-.1455.5869-.2157.0501-.02.1003-.0351.1505-.0552.0301-.01.0551-.02.0802-.03.2107-.0803.4163-.1555.622-.2358.0351-.015.0752-.0251.1103-.0401.2408-.0903.4715-.1806.7022-.2709.0151-.005.0301-.01.0452-.015.0551-.0201.1053-.0401.1555-.0602.1504-.0602.3009-.1154.4462-.1756.08-.0301.161-.0652.236-.0953.13-.0501.261-.1053.386-.1554.04-.0151.085-.0352.126-.0502.04-.0151.075-.0301.115-.0451.11-.0452.216-.0903.326-.1355.075-.0301.155-.0652.231-.0953.11-.0451.215-.0903.321-.1354.05-.0201.105-.0451.155-.0652.02-.01.04-.0151.06-.0251.106-.0451.206-.0903.306-.1304.065-.0251.126-.0552.191-.0802.11-.0502.216-.0953.321-.1405.045-.0201.09-.0401.135-.0602.005 0 .015-.005.02-.01.116-.0502.231-.1053.341-.1555.031-.015.066-.0301.101-.0451.145-.0652.281-.1305.416-.1957h.005c.035-.015.065-.0301.1-.0451.096-.0451.196-.0953.286-.1404.05-.0251.091-.0452.141-.0703.075-.0401.15-.0752.225-.1153.005 0 .016-.005.021-.0101.045-.02.085-.0451.125-.0652.065-.0351.13-.0652.191-.1003.05-.0251.095-.0501.14-.0752.06-.0301.115-.0652.176-.0953.01-.005.02-.01.03-.0151.035-.02.065-.0351.095-.0551.055-.0301.11-.0652.165-.0953.041-.0251.081-.0502.121-.0703.05-.0301.1-.0601.145-.0902.015-.0101.025-.0151.04-.0251.025-.0151.046-.0301.071-.0452.045-.0301.09-.0602.135-.0852.035-.0251.07-.0452.1-.0703.04-.025.081-.0551.121-.0802.015-.01.03-.0201.045-.0301s.03-.0251.045-.0351c.04-.0301.075-.0552.11-.0803.025-.02.056-.0401.081-.0602.035-.025.065-.0551.095-.0802.015-.01.03-.0251.045-.0351.01-.005.015-.0151.02-.0201.03-.0301.06-.0552.09-.0852.015-.0151.036-.0352.051-.0502.03-.0301.055-.0602.08-.0903.01-.01.02-.0201.03-.0351 0 0 0 0 0-.005.035-.0401.065-.0853.085-.1204.005-.01.01-.015.015-.0251.02-.0301.035-.0602.045-.0903z"/><path d="m92.1735 7.26904c-17.5854 6.30486-49.7617 14.66116-71.8662 18.66876-22.10462 4.0076-25.77116 2.1468-8.1858-4.1581 17.5853-6.3048 49.7666-14.66615 71.8662-18.66875 22.0993-4.002594 25.7713-2.146753 8.1808 4.15809z"/><path d="m58.5762 124.879c29.1143-.691 52.6818-2.713 52.6388-4.516-.043-1.802-23.6795-2.704-52.7938-2.012-29.1143.691-52.68142 2.713-52.63862 4.515.0428 1.803 23.67932 2.705 52.79362 2.013z"/><path d="m111.213 120.41s-.015.04-.025.055c-.005.01-.01.025-.02.035-.015.021-.035.041-.055.066-.01.01-.015.02-.03.03-.02.02-.046.04-.076.055-.015.01-.025.02-.04.03-.035.025-.08.05-.12.07-.01.005-.015.01-.025.015-.055.03-.116.061-.181.086-.015.01-.04.015-.055.025-.05.02-.1.04-.155.065-.051.02-.106.035-.156.055-.03.01-.055.02-.085.03-.06.02-.131.04-.196.06-.025.01-.05.015-.075.025-.095.031-.196.056-.301.086-.03.01-.065.015-.095.025-.076.02-.156.04-.236.06-.04.01-.085.02-.125.03-.076.02-.156.035-.236.055-.05.01-.101.02-.151.035-.08.015-.155.035-.235.05-.056.011-.116.026-.171.036-.08.015-.16.03-.241.05-.06.01-.125.025-.19.035-.086.015-.166.03-.251.045-.07.015-.141.025-.211.04-.085.015-.17.03-.261.045-.075.015-.15.025-.225.04-.091.015-.181.03-.271.046-.08.015-.166.025-.251.04-.09.015-.181.03-.276.045-.085.015-.175.025-.266.04-.095.015-.19.03-.291.045-.1.015-.2.03-.301.045-.095.015-.19.025-.29.04-.106.015-.211.03-.316.045-.101.016-.201.026-.301.041-.116.015-.236.03-.351.045-.101.015-.201.025-.306.04-.121.015-.246.03-.367.045-.105.015-.205.025-.311.04-.165.02-.336.04-.506.06-.075.01-.151.02-.226.025-.251.031-.501.061-.762.086-.03 0-.06.005-.091.01-.24.025-.486.055-.737.08-.09.01-.18.02-.276.03-.19.02-.381.04-.5716.06-.1103.01-.2206.02-.331.035-.2056.02-.4163.041-.627.061-.1053.01-.2056.02-.3109.03-.2659.025-.5317.05-.8026.075-.0551 0-.1053.01-.1555.015-.336.03-.6821.06-1.0282.095-.1003.01-.2006.02-.301.025-.2558.02-.5166.045-.7824.066-.1154.01-.2358.02-.3561.03-.316.025-.637.055-.958.08-.0502 0-.1054.01-.1555.015-.3712.03-.7474.06-1.1286.09-.1304.01-.2658.02-.4012.03-.2207.015-.4465.035-.6722.05-.1454.01-.2909.021-.4363.031-.2308.015-.4665.035-.7023.05-.1253.01-.2457.02-.3711.025-.6019.04-1.2138.085-1.8358.125-.0802.005-.1605.01-.2408.015-.5617.035-1.1335.075-1.7053.111-.1154.005-.2307.015-.3411.02-.4564.03-.9129.055-1.3793.085-.0402 0-.0853 0-.1254.005-.4314.025-.8678.05-1.3092.075-.1404.01-.2808.015-.4213.025-.3411.02-.6821.04-1.0282.055-.1204.005-.2358.015-.3561.02-.4464.026-.8979.051-1.3543.071-.0702 0-.1404.005-.2056.01-.4164.02-.8427.045-1.264.065-.1405.005-.2759.015-.4163.02-.5618.025-1.1286.055-1.7004.08-.0802 0-.1655.01-.2458.01-.4815.02-.973.045-1.4596.065-.1354.006-.2708.011-.4062.021-.5518.025-1.1035.045-1.6603.07-.1103 0-.2156.01-.326.015-.5417.02-1.0884.045-1.6351.065-.0803 0-.1605.005-.2458.01-.9279.035-1.8609.07-2.8088.105-.0953 0-.1856.005-.2809.01-.4163.015-.8377.031-1.259.041-.1906.005-.3812.01-.5718.02-.2408.01-.4815.015-.7223.025-.2157.005-.4313.015-.647.02-.2358.005-.4715.015-.7072.02-.2358.005-.4765.015-.7123.02-.1705 0-.3461.01-.5216.015-.2608.005-.5267.015-.7875.02-.1555 0-.306.01-.4614.015-.306.01-.617.015-.923.025-.1153 0-.2257.005-.341.01-.4314.01-.8577.02-1.2891.03-.4313.01-.8577.02-1.284.03-.1455 0-.2859.005-.4314.01-.2909.005-.5818.015-.8727.02-.1555 0-.306.005-.4565.01-.2708.005-.5467.01-.8175.016-.2107 0-.4164.01-.622.01-.2207 0-.4414.01-.6621.01-.2809.005-.5668.01-.8477.015-.1906 0-.3812.005-.5718.01-.2909 0-.5768.01-.8677.015-.1705 0-.3461.005-.5166.01-.5016.005-.9982.015-1.4897.02-.1003 0-.2006 0-.301 0-.4464.005-.8928.01-1.3392.015-.1504 0-.3009 0-.4514 0-.5567.005-1.1085.01-1.6552.015-.637.005-1.264.01-1.8909.015-.1104 0-.2207 0-.3311 0-.622 0-1.2339.005-1.8458.005-.1103 0-.2157 0-.326 0-.6571 0-1.3142 0-1.9612 0-.0752 0-.1505 0-.2257 0-.6922 0-1.3794 0-2.0565-.005-.0501 0-.0953 0-.1454 0-.7123 0-1.4195-.005-2.1167-.015-.0351 0-.0652 0-.1003 0-.7424-.005-1.4747-.015-2.1919-.02-.0401 0-.0803 0-.1154 0-.7273-.01-1.4445-.02-2.1518-.03-.1304 0-.2608 0-.3912-.005-.2307 0-.4564-.01-.6821-.01-.1555 0-.316-.005-.4715-.01-.2107 0-.4213-.01-.627-.01-.1505 0-.3009-.005-.4514-.01-.2558-.005-.5066-.01-.7574-.015-.1354 0-.2658-.005-.4013-.01-.2959-.006-.5918-.016-.8827-.021-.0753 0-.1555 0-.2308-.005-.3912-.01-.7824-.02-1.1636-.035-.1054 0-.2107-.005-.316-.01-.2859-.01-.5718-.02-.8577-.025-.1054 0-.2107-.005-.316-.01-.4163-.015-.8326-.03-1.2389-.045-.0652 0-.1304-.005-.1906-.01-.3612-.015-.7123-.03-1.0583-.045-.0953 0-.1957-.01-.291-.01-.1304-.005-.2608-.01-.3912-.015-.1455-.005-.2959-.015-.4414-.02-.1354-.005-.2708-.015-.4063-.02-.1354-.005-.2758-.015-.4113-.02-.1354-.005-.2658-.015-.3962-.02s-.2608-.016-.3912-.021-.2609-.015-.3913-.02c-.1354-.01-.2708-.015-.4012-.025-.0903-.005-.1806-.01-.2659-.015-.1504-.01-.2959-.02-.4414-.025-.0852-.005-.1705-.01-.2558-.015-.1655-.01-.326-.02-.4865-.03-.0602 0-.1254-.01-.1856-.01-.2157-.015-.4313-.03-.642-.045-.0502 0-.1003-.01-.1555-.01-.1605-.01-.321-.025-.4765-.035-.0752-.005-.1454-.01-.2207-.015-.1304-.01-.2608-.02-.3862-.03-.0752-.005-.1505-.01-.2257-.02-.1254-.01-.2558-.021-.3762-.031-.0652-.005-.1354-.01-.2006-.02-.1505-.015-.301-.03-.4514-.04-.0352 0-.0703-.005-.1054-.01-.1805-.015-.3561-.035-.5266-.05-.0502-.005-.1003-.01-.1505-.015-.1204-.015-.2408-.025-.3611-.04-.0602-.005-.1154-.015-.1756-.02-.1053-.01-.2107-.025-.316-.035-.0602-.005-.11535-.015-.17053-.02-.10533-.015-.20564-.025-.30596-.04-.05016-.005-.10031-.016-.15047-.021-.14546-.02-.2859-.04-.42133-.06-.01003 0-.02006 0-.02508 0-.13041-.02-.25079-.035-.37618-.055-.04013-.005-.08025-.015-.12038-.02-.08527-.015-.17054-.03-.25581-.04-.04514-.01-.08526-.015-.13041-.025-.07523-.015-.15047-.025-.22571-.04-.04012-.01-.08025-.015-.12038-.025-.08025-.015-.15549-.03-.23072-.046-.0301-.005-.06019-.01-.08527-.02-.10032-.02-.19562-.045-.29092-.065-.02006 0-.03511-.01-.05517-.015-.07022-.02-.14044-.035-.20565-.055-.03009-.01-.05517-.015-.08527-.025-.05517-.015-.10533-.03-.15549-.045-.02507-.01-.05517-.015-.08025-.025-.04514-.015-.09028-.03-.13542-.045-.02508-.01-.04515-.015-.07023-.026-.05015-.02-.0953-.04-.14044-.06-.01003 0-.02006-.01-.03009-.015-.05518-.025-.10032-.05-.14546-.07-.01003-.005-.02006-.015-.03511-.02-.0301-.02-.06019-.035-.08025-.055-.01003-.01-.02508-.02-.03511-.025-.02007-.015-.04013-.035-.05518-.05-.01003-.01-.02006-.021-.02508-.031-.01504-.015-.02508-.035-.03511-.05 0-.01-.01003-.015-.01504-.025-.01004-.025-.02007-.05-.02007-.075l.3812 15.915c0 .025.01003.05.02007.075 0 .01.01003.015.01504.025.01003.015.02007.036.03511.051.01004.01.01505.02.02508.025.01505.015.03511.035.05518.05.01003.01.02006.02.03511.025.02508.02.05517.035.08025.055.01003.005.02006.015.03511.02.04514.025.09028.05.14546.07.01003 0 .02006.01.03009.015.04514.02.09029.04.14044.061.02007.01.04515.015.06521.025.04514.015.09028.03.13543.045.02507.01.05517.015.08025.025.05016.015.10031.03.15549.045.03009.01.05517.015.08527.025.0652.02.14044.035.21066.055.01505 0 .03511.01.05016.015.09028.02.1906.045.29091.066.02508.005.05518.01.08527.015.07524.015.15549.03.23574.045.04013.01.08026.015.12038.025.07524.015.15048.03.22571.04.04515.01.08527.015.13041.025.08527.015.17054.03.25581.04.04012.005.08025.015.12038.02.12539.02.2558.04.39123.06h.00502c.14044.02.28088.04.42634.061.04514.005.09028.01.13542.02.10534.015.21064.025.31604.04.0551.005.1103.015.1655.02.1053.01.2106.025.316.035.0551.005.1153.015.1755.02.1204.015.2458.025.3712.04.0451 0 .0903.01.1354.015.1756.02.3511.035.5317.055.0251 0 .0552 0 .0802.005.1555.015.311.03.4715.045.0652.005.1304.011.1906.016.1304.01.2609.025.3913.035l.2106.015c.1355.01.2659.02.4063.03.0702.005.1404.01.2107.015.1605.01.331.025.4965.035.0452 0 .0853.005.1254.01.2157.015.4314.03.6521.045.0501 0 .1003.005.1505.01.1705.01.346.025.5216.035.0752 0 .1555.01.2307.015.1555.01.311.02.4715.03.0803 0 .1605.01.2458.015.0552 0 .1103.005.1705.01.0351 0 .0753 0 .1154.005.4414.026.8978.051 1.3643.071.0652 0 .1304.005.1956.01.4715.025.958.045 1.4546.065h.0702c.0501 0 .1053 0 .1555.005.3511.015.7072.03 1.0683.045.0652 0 .1254.005.1906.01.4013.015.8126.03 1.2289.045h.1304c.0702 0 .1455 0 .2157.005.2708.01.5417.02.8176.025.1153 0 .2307.005.3461.01.3812.01.7624.02 1.1536.036h.0301.1856c.3009.01.6019.015.9078.025.1254 0 .2508.005.3812.01.2558.005.5116.01.7725.015h.2156.2157c.2157 0 .4364.01.6571.015.1505 0 .3009.005.4514.01.2157 0 .4364.01.6571.01.1153 0 .2257 0 .341.005h.0853c.6972.01 1.4044.02 2.1267.03h.0953.0502c.7172.01 1.4445.015 2.1818.02h.0703.0301c.6871.005 1.3843.01 2.0915.015h.1204.0552c.6671 0 1.3442 0 2.0264.005h.1655.0953 1.9461.1806.1505c.6119 0 1.2238 0 1.8458-.005h.1304.2056c.617 0 1.2389-.005 1.8659-.01h.0201.03c.5367 0 1.0784-.01 1.6202-.015h.2156.2558c.4364 0 .8778-.01 1.3192-.015h.2307.0753c.4965-.005.9931-.015 1.4896-.02h.0753c.1454 0 .2909 0 .4364-.005.2859 0 .5768-.01.8677-.015h.1505c.1404 0 .2808 0 .4213-.005.2809 0 .5618-.01.8477-.015h.2006c.1454 0 .2959-.005.4414-.01.2207 0 .4363-.01.657-.01h.2207c.1806 0 .3662-.005.5468-.01.1655 0 .326-.005.4915-.01h.1756c.2307 0 .4614-.01.6971-.015.1455 0 .286-.006.4314-.011h.0953c.3963-.01.7875-.02 1.1837-.03h.0402c.3862-.01.7724-.02 1.1536-.03h.0953c.1254 0 .2508-.005.3712-.01.2257-.005.4564-.01.6821-.02.0652 0 .1304 0 .1956-.005.1655 0 .3311-.01.4966-.015.1505 0 .3009-.01.4514-.01.1053 0 .2107-.005.321-.01.1756 0 .3461-.01.5217-.015.1203 0 .2457-.005.3661-.01.1154 0 .2257-.005.3361-.01.2457-.005.4965-.015.7423-.02.1053 0 .2107-.005.316-.01.0953 0 .1906-.005.2809-.01.2508-.01.5016-.015.7524-.025.1153 0 .2307-.005.346-.01.0703 0 .1455 0 .2157-.005.4214-.015.8427-.03 1.259-.04.0802 0 .1605-.005.2407-.01h.0402c.9429-.036 1.8809-.066 2.8088-.106h.0602c.0602 0 .1204 0 .1806-.005.5567-.02 1.1135-.045 1.6652-.065.0652 0 .1254 0 .1906-.01h.0953c.5668-.025 1.1286-.045 1.6903-.07.1204-.005.2458-.01.3662-.015.5116-.02 1.0182-.045 1.5198-.071.0501 0 .1003 0 .1504-.005h.0502c.5818-.025 1.1536-.055 1.7254-.08.0602 0 .1204-.005.1806-.01.0702 0 .1354-.005.2006-.01.4314-.02.8628-.045 1.2841-.065.0501 0 .1053-.005.1555-.01h.0451c.4615-.025.9129-.05 1.3693-.07h.0853c.0752 0 .1505-.01.2257-.015.3561-.02.7072-.04 1.0633-.061.0753 0 .1505-.01.2207-.01.0652 0 .1304-.01.1956-.01.4414-.025.8778-.05 1.3092-.075.0351 0 .0702 0 .1053-.005h.0201c.4714-.03.9329-.055 1.3944-.085.0551 0 .1103-.005.1605-.01.0501 0 .1003-.005.1554-.01.5869-.035 1.1637-.075 1.7305-.111.0301 0 .0602 0 .0903-.005.0451 0 .0852-.005.1254-.01.6269-.04 1.2489-.085 1.8558-.125.0301 0 .0552 0 .0853-.005.0853-.005.1655-.01.2508-.02.2508-.02.4965-.035.7423-.055.1354-.01.2709-.02.4013-.03.2407-.02.4765-.035.7122-.056.0853-.005.1706-.015.2508-.02.0401 0 .0752-.005.1104-.01.3862-.03.7724-.06 1.1486-.09.0351 0 .0702-.005.1053-.01.3411-.025.6771-.055 1.0082-.085.0451 0 .0953-.01.1404-.01.0652-.005.1254-.01.1856-.015.2658-.025.5317-.045.7975-.07.1003-.011.2006-.016.301-.026.346-.03.6921-.06 1.0282-.095h.0251c.0451 0 .0852-.01.1304-.01.2708-.025.5367-.05.8025-.075.1053-.01.2057-.02.311-.03.2157-.02.4313-.04.642-.065.0605-.005.1205-.01.1805-.02.045 0 .085-.011.13-.016.196-.02.392-.04.587-.06.091-.01.181-.02.271-.03.251-.025.497-.055.738-.08.025 0 .055-.005.08-.01h.01c.256-.03.511-.055.762-.085.075-.01.151-.02.226-.025.17-.021.341-.041.507-.061.02 0 .045-.005.065-.01.085-.01.165-.02.25-.03.126-.015.246-.03.367-.045.1-.015.2-.025.306-.04.12-.015.235-.03.356-.045.03 0 .06-.01.085-.01.07-.01.14-.02.211-.03.105-.015.215-.03.316-.045.095-.015.19-.026.286-.041.105-.015.205-.03.311-.045.03 0 .06-.01.09-.015.065-.01.125-.02.19-.03.091-.015.186-.03.276-.04.091-.015.181-.03.271-.045.085-.015.171-.025.256-.04.025 0 .05-.01.075-.01.065-.01.126-.02.191-.03.08-.015.155-.025.236-.041.085-.015.165-.03.245-.045.076-.015.151-.025.226-.04.015 0 .035-.005.05-.01.065-.01.126-.025.191-.035.065-.015.135-.025.195-.04.081-.015.156-.03.236-.045.06-.01.121-.025.181-.035.01 0 .02 0 .03-.005.07-.015.13-.03.2-.045.051-.01.106-.026.156-.036.075-.015.15-.035.226-.055l.135-.03h.01c.075-.02.146-.035.216-.055.035-.01.07-.02.105-.025.1-.025.196-.055.286-.08.05-.015.09-.03.135-.045.051-.016.101-.031.151-.046.035-.01.065-.025.1-.035.045-.015.095-.03.141-.05.06-.025.12-.045.175-.07.015-.005.03-.01.04-.015.066-.03.126-.06.181-.085.01 0 .015-.01.025-.015.045-.026.085-.051.125-.076.015-.01.025-.02.04-.03.026-.02.051-.04.076-.055 0 0 .005 0 .005-.005.01-.01.015-.015.02-.025.02-.02.04-.04.055-.065.01-.01.015-.025.02-.035.01-.02.02-.041.025-.056 0-.005.005-.01.005-.015 0-.015 0-.03 0-.05l-.381-15.915s0 .045-.01.065z"/></g></g></svg>