<?xml version="1.0" encoding="utf-8"?>
<!-- Generator: Adobe Illustrator 24.0.2, SVG Export Plug-In . SVG Version: 6.00 Build 0)  -->
<svg version="1.1" id="Layer_1" xmlns="http://www.w3.org/2000/svg" xmlns:xlink="http://www.w3.org/1999/xlink" x="0px" y="0px"
	 viewBox="0 0 595.3 841.9" style="enable-background:new 0 0 595.3 841.9;" xml:space="preserve">
<style type="text/css">
	.st0{fill:#FFFFFF;}
</style>
<g>
	<path class="st0" d="M-483,534.8c2.1-10.3,8.7-17.6,15.9-24.6c14.4-14,28.5-28.3,42.6-42.6c2.8-2.8,5.6-4.1,8.9-1.8
		c5.5-5.5,10.8-10.9,16.5-16.6c-1.1-1.7-2.7-4-4.1-6.3c-35.5-59.6-35.4-119.1,0.1-178.6c1.6-2.6,3.5-4.7,6.9-4
		c4.2,0.9,5.6,5.3,2.9,9.5c-7.8,12.1-13.8,25-18.1,38.8c-20.4,65,6,137.5,63.5,174.1c61.4,39.2,139.8,31.1,191.6-20.1
		c27.1-26.8,42-59.6,44.8-97.7c5.6-75.1-44.1-143.8-117.5-160.3c-57.6-13-107.4,2.9-148.6,45.4c-0.3,0.4-0.7,0.7-1,1.1
		c-2.8,2.9-6.1,3.3-8.6,1.1c-2.6-2.3-2.6-5.6,0.2-8.6c4-4.3,8.1-8.5,12.4-12.4c24.6-22.1,53.3-35.8,86-40.4
		c89.3-12.8,167.3,46.2,185.1,127.8c17.7,81.4-27.6,163.5-106.2,190.6c-51.9,17.9-101.5,11.2-147.6-19c-1-0.7-2.1-1.4-2.8-1.8
		c-5.5,5.5-10.9,10.9-16.5,16.4c2.4,3.5,0.8,6.4-2.2,9.4c-5.9,5.7-11.7,11.6-17.5,17.4c-3.2,3.2-6.7,3.5-9.1,0.9
		c-2.3-2.5-1.9-5.7,1.2-8.9c4.8-4.9,9.7-9.7,14.5-14.6c0.2-0.2,0.2-0.4,0.2-0.4c-9.9-9.9-19.8-19.8-29.8-29.8
		c-0.3,0.2-0.8,0.5-1.2,0.9c-15.1,15.1-30.3,30-45.2,45.3c-9.5,9.8-7.7,25,3.5,32.5c8.3,5.5,19,4.6,26.5-2.5c4.6-4.4,9-9,13.5-13.4
		c3.2-3.1,6.3-3.5,8.9-1c2.4,2.4,2.2,5.8-0.8,8.9c-2.3,2.3-4.7,4.5-6.9,6.9c-6.8,7.5-14.3,13.8-24.6,16c-3.2,0-6.5,0-9.7,0
		c-0.8-0.3-1.6-0.6-2.4-0.8c-12-3.2-20-10.5-23.9-22.3c-0.5-1.5-0.9-3-1.4-4.6C-483,541.2-483,538-483,534.8z M-385.6,495.9
		c5.4-5.3,10.4-10.3,14.5-14.4c-7-7.1-14.2-14.4-20.8-21.1c-4.5,4.5-9.5,9.4-14.5,14.5c0.4,0.4,1,1.1,1.7,1.8
		C-398.3,483.1-391.9,489.5-385.6,495.9z"/>
	<path class="st0" d="M-483,544.5c0.5,1.5,0.9,3,1.4,4.6c3.8,11.8,11.9,19.2,23.9,22.3c0.8,0.2,1.6,0.5,2.4,0.8
		c-9.2,0-18.5,0-27.7,0C-483,562.9-483,553.7-483,544.5z"/>
	<path class="st0" d="M-131.5,353.8c-2.3,53.5-26.1,93.7-74,119c-1.8,1-4.8,1.3-6.6,0.5c-4.2-1.8-3.8-7.3,0.4-9.8
		c4.1-2.4,8.4-4.3,12.3-7c41.1-28,60.6-66.9,55.4-116.4c-5.6-54-44.9-95.4-98.1-105.9c-65.9-13-131,32-142.3,98.4
		c-11.5,67.6,33.2,130.4,100.7,141.4c16.7,2.7,33.3,1.8,49.7-2.3c1.8-0.4,4.1-1,5.4-0.2c1.6,1,3.2,3.2,3.5,5.1
		c0.4,2.9-1.8,4.9-4.6,5.5c-6.8,1.4-13.6,3.3-20.6,3.8c-54.7,4.1-98-16.3-127.5-62.6c-44.3-69.6-11.8-164.4,65.4-193.6
		c70-26.4,146.3,8.2,172.5,78.2C-134.2,322.6-131.6,337.9-131.5,353.8z"/>
	<path class="st0" d="M-209.2,316.6c20.7,0.2,37.1,16.9,36.9,37.6c-0.2,20.3-17.2,37-37.5,36.7c-20.6-0.3-36.9-17.2-36.7-37.9
		C-246.2,332.8-229.5,316.4-209.2,316.6z M-235.3,353.7c0,14.3,11.5,26,25.8,26c14.2,0.1,25.9-11.6,26-25.9
		c0-14.3-11.4-25.9-25.8-25.9C-223.7,327.9-235.2,339.3-235.3,353.7z"/>
	<path class="st0" d="M-325.3,316.6c7.6,0,14.4,2.7,20.5,7.1c3.1,2.2,3.8,5.4,1.9,8.1c-1.8,2.7-5.1,3.2-8.2,1.1
		c-5.1-3.4-10.6-5.8-16.8-4.7c-2.5,0.4-5.1,1.5-7,3.1c-3.9,3.5-2.7,9.1,2.1,11.2c5.3,2.2,10.7,4.2,15.9,6.5c3.2,1.4,6.4,2.9,9.1,5
		c10.9,8.5,10.7,22.8-0.3,31.3c-10.1,7.8-25.7,7.3-37.4-1.3c-1.6-1.2-3.1-2.5-4.5-3.9c-2.5-2.6-2.6-5.7-0.5-8c2.2-2.5,5.6-2.6,8.3,0
		c4.3,4.2,9.3,6.6,15.2,7.3c5.1,0.6,9.7-0.4,13.4-4.3c3.7-3.9,3.5-8.7-0.8-12.1c-1.9-1.5-4.2-2.6-6.5-3.6
		c-5.3-2.3-10.6-4.4-15.9-6.5c-6.8-2.6-10.8-7.5-11.5-14.8c-0.8-7.8,2.4-14.1,9.1-17.9c4.1-2.3,9-3.2,13.5-4.7
		C-325.5,316-325.4,316.3-325.3,316.6z"/>
	<path class="st0" d="M-278.3,328.1c0,6.7,0,13,0,20.1c4,0,8.1,0,12.1,0c2.1,0,4.2-0.1,6.4,0c3.3,0.2,5.6,2.3,5.8,5.2
		c0.2,3-2.1,5.7-5.5,5.9c-3.6,0.2-7.2,0.1-10.8,0.1c-2.5,0-5,0-7.8,0c0,6.6,0,13,0,19.9c5.4,0,10.7,0,16,0c1.7,0,3.5-0.1,5.2,0.2
		c3.2,0.5,4.8,2.5,4.7,5.7c-0.1,3-1.9,5.1-4.9,5.2c-9.2,0.2-18.5,0.2-27.7,0c-3.3-0.1-4.9-2.6-4.9-6.7c0-14.2,0-28.4,0-42.7
		c0-5.7,0-11.5,0-17.2c0-4.9,2-6.9,6.8-6.9c8.1,0,16.2,0,24.3,0c4.1,0,6.5,2.2,6.4,5.6c0,3.4-2.4,5.5-6.6,5.6
		C-265.3,328.2-271.7,328.1-278.3,328.1z"/>
	<path class="st0" d="M-385.6,495.9c-6.3-6.3-12.7-12.8-19.1-19.2c-0.7-0.7-1.4-1.4-1.7-1.8c5.1-5,10-10,14.5-14.5
		c6.6,6.7,13.8,14,20.8,21.1C-375.2,485.6-380.2,490.5-385.6,495.9z"/>
</g>
</svg>
