<?xml version="1.0" encoding="utf-8"?>
<!-- Generator: Adobe Illustrator 24.0.2, SVG Export Plug-In . SVG Version: 6.00 Build 0)  -->
<svg version="1.1" id="Layer_1" xmlns="http://www.w3.org/2000/svg" xmlns:xlink="http://www.w3.org/1999/xlink" x="0px" y="0px"
	 viewBox="0 0 322 206" style="enable-background:new 0 0 322 206;" xml:space="preserve">
<style type="text/css">
	.st0{fill:#FFFFFF;stroke:#141414;stroke-width:3;}
	.st1{fill:#FFFFFF;filter:url(#Adobe_OpacityMaskFilter);stroke:#141414;stroke-width:3;}
	.st2{mask:url(#a_1_);}
	.st3{fill:#141414;}
	.st4{stroke:#FFFFFF;stroke-width:1.0322;stroke-miterlimit:10;}
	.st5{font-family:'CoolveticaRg-Regular';}
	.st6{font-size:46.2239px;}
</style>
<path class="st0" d="M1.5,1.5h319v203H1.5V1.5z"/>
<defs>
	<filter id="Adobe_OpacityMaskFilter" filterUnits="userSpaceOnUse" x="-273.1" y="75.1" width="828.5" height="250.2">
		<feColorMatrix  type="matrix" values="1 0 0 0 0  0 1 0 0 0  0 0 1 0 0  0 0 0 1 0"/>
	</filter>
</defs>
<mask maskUnits="userSpaceOnUse" x="-273.1" y="75.1" width="828.5" height="250.2" id="a_1_">
	<path class="st1" d="M1.5,1.5h319v203H1.5V1.5z"/>
</mask>
<g class="st2">
	<path class="st3" d="M-271.7,75.4h4.4l7.9,28.2l8.3-28.2h4.2l8,28.2l7.9-28.2h4.3l-9.8,33.6h-5l-7.7-26.6l-7.6,26.6h-5L-271.7,75.4
		z M-225.7,96.8c0-2.5,0.5-4.7,1.4-6.6c1-1.9,2.4-3.3,4.1-4.4c1.8-1.1,3.8-1.6,6-1.6c2.2,0,4.2,0.5,6,1.4s3.1,2.3,4.1,4
		s1.5,3.8,1.6,6.2c0,0.4,0,0.9-0.1,1.7h-19v0.3c0.1,2.4,0.8,4.3,2.2,5.8s3.2,2.2,5.5,2.2c1.8,0,3.2-0.4,4.5-1.3
		c1.2-0.9,2.1-2.1,2.5-3.7h4c-0.5,2.5-1.7,4.5-3.6,6.1c-1.9,1.6-4.3,2.4-7.1,2.4c-2.4,0-4.6-0.5-6.4-1.5c-1.8-1.1-3.2-2.5-4.3-4.4
		C-225.2,101.4-225.7,99.2-225.7,96.8z M-206.6,94.3c-0.2-2.1-1-3.7-2.4-4.8c-1.3-1.2-3.1-1.7-5.1-1.7c-1.9,0-3.5,0.6-4.9,1.8
		s-2.2,2.8-2.4,4.8H-206.6z M-173.1,84.2c2.3,0,4.3,0.5,6,1.5c1.8,1,3.2,2.4,4.2,4.3c1,1.9,1.5,4.1,1.5,6.7c0,2.5-0.5,4.6-1.5,6.5
		c-1,1.9-2.4,3.4-4.2,4.4s-3.8,1.6-6,1.6c-2,0-3.7-0.4-5.1-1.1c-1.4-0.7-2.5-1.7-3.3-3l-0.5,3.7h-3.4V75.4h3.9v13.1
		C-179.4,85.6-176.6,84.2-173.1,84.2z M-173.5,105.8c2.4,0,4.4-0.8,5.9-2.5c1.5-1.7,2.3-3.9,2.3-6.5s-0.8-4.8-2.3-6.5
		c-1.5-1.7-3.4-2.5-5.9-2.5c-1.6,0-3,0.4-4.2,1.2c-1.2,0.7-2.2,1.8-2.8,3.2c-0.7,1.3-1,2.9-1,4.6c0,1.8,0.3,3.3,1,4.8
		c0.7,1.4,1.6,2.4,2.8,3.2C-176.4,105.4-175,105.8-173.5,105.8z M-157.7,96.8c0-2.5,0.5-4.7,1.4-6.6c1-1.9,2.4-3.3,4.1-4.4
		c1.8-1.1,3.8-1.6,6-1.6c2.2,0,4.2,0.5,6,1.4s3.1,2.3,4.1,4s1.5,3.8,1.6,6.2c0,0.4,0,0.9-0.1,1.7h-19v0.3c0.1,2.4,0.8,4.3,2.2,5.8
		s3.2,2.2,5.5,2.2c1.8,0,3.2-0.4,4.5-1.3c1.2-0.9,2.1-2.1,2.5-3.7h4c-0.5,2.5-1.7,4.5-3.6,6.1c-1.9,1.6-4.3,2.4-7.1,2.4
		c-2.4,0-4.6-0.5-6.4-1.5c-1.8-1.1-3.2-2.5-4.3-4.4C-157.2,101.4-157.7,99.2-157.7,96.8z M-138.5,94.3c-0.2-2.1-1-3.7-2.4-4.8
		c-1.3-1.2-3.1-1.7-5.1-1.7c-1.9,0-3.5,0.6-4.9,1.8s-2.2,2.8-2.4,4.8H-138.5z M-130,75.4h3.9V109h-3.9V75.4z M-118.7,75.1
		c0.7,0,1.3,0.2,1.8,0.7s0.7,1.1,0.7,1.8s-0.2,1.3-0.7,1.8s-1.1,0.7-1.8,0.7s-1.3-0.2-1.8-0.7s-0.7-1.1-0.7-1.8s0.2-1.3,0.7-1.8
		S-119.4,75.1-118.7,75.1z M-120.6,84.5h3.9V109h-3.9V84.5z M-112.2,96.8c0-2.5,0.5-4.7,1.4-6.6c1-1.9,2.4-3.3,4.1-4.4
		c1.8-1.1,3.8-1.6,6-1.6c2.2,0,4.2,0.5,6,1.4s3.1,2.3,4.1,4s1.5,3.8,1.6,6.2c0,0.4,0,0.9-0.1,1.7h-19v0.3c0.1,2.4,0.8,4.3,2.2,5.8
		s3.2,2.2,5.5,2.2c1.8,0,3.2-0.4,4.5-1.3c1.2-0.9,2.1-2.1,2.5-3.7h4c-0.5,2.5-1.7,4.5-3.6,6.1c-1.9,1.6-4.3,2.4-7.1,2.4
		c-2.4,0-4.6-0.5-6.4-1.5c-1.8-1.1-3.2-2.5-4.3-4.4C-111.7,101.4-112.2,99.2-112.2,96.8z M-93,94.3c-0.2-2.1-1-3.7-2.4-4.8
		c-1.3-1.2-3.1-1.7-5.1-1.7c-1.9,0-3.5,0.6-4.9,1.8s-2.2,2.8-2.4,4.8H-93z M-87.8,84.5h4.2l7.4,20l7.3-20h4.1l-9.2,24.5h-4.8
		L-87.8,84.5z M-63.6,96.8c0-2.5,0.5-4.7,1.4-6.6c1-1.9,2.4-3.3,4.1-4.4c1.8-1.1,3.8-1.6,6-1.6c2.2,0,4.2,0.5,6,1.4s3.1,2.3,4.1,4
		s1.5,3.8,1.6,6.2c0,0.4,0,0.9-0.1,1.7h-19v0.3c0.1,2.4,0.8,4.3,2.2,5.8s3.2,2.2,5.5,2.2c1.8,0,3.2-0.4,4.5-1.3
		c1.2-0.9,2.1-2.1,2.5-3.7h4c-0.5,2.5-1.7,4.5-3.6,6.1c-1.9,1.6-4.3,2.4-7.1,2.4c-2.4,0-4.6-0.5-6.4-1.5c-1.8-1.1-3.2-2.5-4.3-4.4
		C-63.1,101.4-63.6,99.2-63.6,96.8z M-44.5,94.3c-0.2-2.1-1-3.7-2.4-4.8c-1.3-1.2-3.1-1.7-5.1-1.7c-1.9,0-3.5,0.6-4.9,1.8
		s-2.2,2.8-2.4,4.8H-44.5z M-21.7,88.1h-4.4v-3.6h4.4v-6.9h3.9v6.9h6.2v3.6h-6.2v14.4c0,1,0.2,1.8,0.6,2.2c0.4,0.4,1.1,0.6,2.1,0.6
		h4.3v3.6h-4.5c-2.3,0-4-0.5-4.9-1.5c-1-1-1.4-2.6-1.4-4.8V88.1z M4,84.2c3,0,5.4,0.9,7.2,2.7s2.7,4.6,2.7,8.4V109H10V95.6
		c0-2.5-0.6-4.4-1.7-5.8c-1.2-1.3-2.8-2-4.9-2c-2.3,0-4.1,0.8-5.4,2.4c-1.3,1.6-2,3.8-2,6.5V109H-8V75.4h3.9v13.2
		c0.8-1.3,1.9-2.3,3.2-3.1C0.4,84.6,2.1,84.2,4,84.2z M41.8,105.4v3.6h-2.2c-1.6,0-2.7-0.3-3.4-1s-1-1.6-1.1-2.8
		c-1.9,2.7-4.6,4.1-8.2,4.1c-2.7,0-4.9-0.6-6.6-1.9c-1.6-1.3-2.4-3-2.4-5.2c0-2.5,0.8-4.4,2.5-5.7c1.7-1.3,4.1-2,7.3-2h7.2v-1.7
		c0-1.6-0.5-2.8-1.6-3.7c-1.1-0.9-2.5-1.3-4.5-1.3c-1.7,0-3.1,0.4-4.2,1.2c-1.1,0.7-1.8,1.7-2,3h-3.9c0.3-2.4,1.3-4.3,3.2-5.6
		c1.9-1.3,4.3-2,7.2-2c3.1,0,5.6,0.8,7.2,2.3c1.7,1.5,2.6,3.7,2.6,6.5v10.6c0,1.2,0.5,1.8,1.6,1.8L41.8,105.4z M35.1,97.8h-7.6
		c-3.6,0-5.5,1.4-5.5,4.1c0,1.2,0.5,2.2,1.4,2.9s2.3,1.1,3.9,1.1c2.4,0,4.3-0.6,5.7-1.9c1.4-1.3,2.1-3,2.1-5V97.8z M46.5,88.1h-4.4
		v-3.6h4.4v-6.9h3.9v6.9h6.2v3.6h-6.2v14.4c0,1,0.2,1.8,0.6,2.2c0.4,0.4,1.1,0.6,2.1,0.6h4.3v3.6h-4.5c-2.3,0-4-0.5-4.9-1.5
		c-1-1-1.4-2.6-1.4-4.8V88.1z M96,84.5v23.3c0,7.4-4,11.1-12.1,11.1c-3.2,0-5.8-0.7-7.8-2.2c-2-1.4-3.1-3.5-3.5-6.1h4
		c0.3,1.5,1.1,2.7,2.4,3.6s3,1.2,5,1.2c5.3,0,7.9-2.6,7.9-7.7v-2.9c-1.8,3-4.6,4.5-8.4,4.5c-2.3,0-4.3-0.5-6.1-1.5
		c-1.8-1-3.2-2.4-4.2-4.3c-1-1.9-1.5-4.1-1.5-6.7c0-2.5,0.5-4.6,1.5-6.5c1-1.9,2.4-3.4,4.2-4.4s3.8-1.6,6-1.6c2,0,3.7,0.4,5.1,1.2
		c1.4,0.8,2.5,1.9,3.3,3.3l0.5-4.2H96z M84,105.8c1.6,0,3-0.4,4.2-1.1c1.2-0.8,2.2-1.8,2.9-3.2c0.7-1.4,1-2.9,1-4.7
		c0-1.8-0.3-3.3-1-4.7c-0.7-1.4-1.6-2.5-2.9-3.3c-1.2-0.8-2.6-1.2-4.2-1.2c-2.4,0-4.4,0.8-5.9,2.5c-1.5,1.7-2.2,3.8-2.2,6.5
		s0.7,4.8,2.2,6.5C79.6,105,81.6,105.8,84,105.8z M112.6,109.3c-2.4,0-4.5-0.5-6.3-1.6c-1.8-1.1-3.2-2.5-4.3-4.4s-1.5-4.1-1.5-6.5
		s0.5-4.6,1.5-6.5s2.4-3.4,4.3-4.4c1.9-1.1,4-1.6,6.3-1.6s4.5,0.5,6.3,1.6c1.9,1.1,3.3,2.5,4.3,4.4s1.5,4.1,1.5,6.5
		s-0.5,4.6-1.5,6.5s-2.5,3.4-4.3,4.4C117.1,108.8,115,109.3,112.6,109.3z M112.6,105.8c1.6,0,3-0.4,4.2-1.2c1.2-0.8,2.2-1.8,2.9-3.2
		s1-2.9,1-4.7s-0.3-3.3-1-4.7s-1.6-2.4-2.9-3.2c-1.2-0.8-2.6-1.2-4.2-1.2s-3,0.4-4.3,1.2c-1.2,0.8-2.2,1.8-2.8,3.2s-1,2.9-1,4.7
		s0.3,3.3,1,4.7s1.6,2.4,2.8,3.2C109.6,105.4,111,105.8,112.6,105.8z M140.6,109.3c-2.4,0-4.5-0.5-6.3-1.6c-1.8-1.1-3.2-2.5-4.3-4.4
		s-1.5-4.1-1.5-6.5s0.5-4.6,1.5-6.5s2.4-3.4,4.3-4.4c1.9-1.1,4-1.6,6.3-1.6s4.5,0.5,6.3,1.6c1.9,1.1,3.3,2.5,4.3,4.4
		s1.5,4.1,1.5,6.5s-0.5,4.6-1.5,6.5s-2.5,3.4-4.3,4.4C145,108.8,142.9,109.3,140.6,109.3z M140.6,105.8c1.6,0,3-0.4,4.2-1.2
		c1.2-0.8,2.2-1.8,2.9-3.2s1-2.9,1-4.7s-0.3-3.3-1-4.7s-1.6-2.4-2.9-3.2c-1.2-0.8-2.6-1.2-4.2-1.2s-3,0.4-4.3,1.2
		c-1.2,0.8-2.2,1.8-2.8,3.2s-1,2.9-1,4.7s0.3,3.3,1,4.7s1.6,2.4,2.8,3.2C137.6,105.4,139,105.8,140.6,105.8z M180.5,75.4V109h-3.4
		l-0.5-3.9c-2,2.8-4.8,4.2-8.4,4.2c-2.3,0-4.3-0.5-6.1-1.5c-1.8-1-3.2-2.4-4.2-4.3c-1-1.9-1.5-4.1-1.5-6.7c0-2.5,0.5-4.6,1.5-6.5
		c1-1.9,2.4-3.4,4.2-4.4s3.8-1.6,6-1.6c2,0,3.7,0.4,5.1,1.1c1.4,0.7,2.5,1.7,3.3,2.9V75.4H180.5z M168.5,105.8c1.6,0,3-0.4,4.2-1.1
		c1.2-0.8,2.2-1.8,2.9-3.2c0.7-1.4,1-2.9,1-4.7c0-1.8-0.3-3.3-1-4.7c-0.7-1.4-1.6-2.5-2.9-3.3c-1.2-0.8-2.6-1.2-4.2-1.2
		c-2.4,0-4.4,0.8-5.9,2.5c-1.5,1.7-2.2,3.8-2.2,6.5s0.7,4.8,2.2,6.5C164.1,105,166.1,105.8,168.5,105.8z M210.7,84.2
		c2.3,0,4.3,0.5,6,1.5c1.8,1,3.2,2.4,4.2,4.3c1,1.9,1.5,4.1,1.5,6.7c0,2.5-0.5,4.6-1.5,6.5c-1,1.9-2.4,3.4-4.2,4.4s-3.8,1.6-6,1.6
		c-2,0-3.7-0.4-5.1-1.1c-1.4-0.7-2.5-1.7-3.3-3l-0.5,3.7h-3.4V75.4h3.9v13.1C204.4,85.6,207.2,84.2,210.7,84.2z M210.3,105.8
		c2.4,0,4.4-0.8,5.9-2.5c1.5-1.7,2.3-3.9,2.3-6.5s-0.8-4.8-2.3-6.5c-1.5-1.7-3.4-2.5-5.9-2.5c-1.6,0-3,0.4-4.2,1.2
		c-1.2,0.7-2.2,1.8-2.8,3.2c-0.7,1.3-1,2.9-1,4.6c0,1.8,0.3,3.3,1,4.8c0.7,1.4,1.6,2.4,2.8,3.2C207.4,105.4,208.8,105.8,210.3,105.8
		z M239.4,84.5v3.8h-2c-2.3,0-4,0.8-5,2.4c-1,1.6-1.5,3.5-1.5,5.8V109H227V84.5h3.4l0.5,3.7c0.7-1.1,1.6-2,2.7-2.7s2.7-1,4.7-1
		L239.4,84.5z M264.7,105.4v3.6h-2.2c-1.6,0-2.7-0.3-3.4-1s-1-1.6-1.1-2.8c-1.9,2.7-4.6,4.1-8.2,4.1c-2.7,0-4.9-0.6-6.6-1.9
		c-1.6-1.3-2.4-3-2.4-5.2c0-2.5,0.8-4.4,2.5-5.7c1.7-1.3,4.1-2,7.3-2h7.2v-1.7c0-1.6-0.5-2.8-1.6-3.7c-1.1-0.9-2.5-1.3-4.5-1.3
		c-1.7,0-3.1,0.4-4.2,1.2c-1.1,0.7-1.8,1.7-2,3h-3.9c0.3-2.4,1.3-4.3,3.2-5.6c1.9-1.3,4.3-2,7.2-2c3.1,0,5.6,0.8,7.2,2.3
		c1.7,1.5,2.6,3.7,2.6,6.5v10.6c0,1.2,0.5,1.8,1.6,1.8L264.7,105.4z M258,97.8h-7.6c-3.6,0-5.5,1.4-5.5,4.1c0,1.2,0.5,2.2,1.4,2.9
		s2.3,1.1,3.9,1.1c2.4,0,4.3-0.6,5.7-1.9c1.4-1.3,2.1-3,2.1-5V97.8z M279.8,84.2c3,0,5.4,0.9,7.2,2.7c1.8,1.8,2.7,4.6,2.7,8.4V109
		h-3.9V95.6c0-2.5-0.6-4.4-1.7-5.8c-1.1-1.3-2.8-2-4.9-2c-2.3,0-4.1,0.8-5.4,2.4s-2,3.8-2,6.5V109h-3.9V84.5h3.4l0.5,3.3
		C273.6,85.4,276.2,84.2,279.8,84.2z M317.9,75.4V109h-3.4l-0.5-3.9c-2,2.8-4.8,4.2-8.4,4.2c-2.3,0-4.3-0.5-6.1-1.5
		c-1.8-1-3.2-2.4-4.2-4.3c-1-1.9-1.5-4.1-1.5-6.7c0-2.5,0.5-4.6,1.5-6.5c1-1.9,2.4-3.4,4.2-4.4s3.8-1.6,6-1.6c2,0,3.7,0.4,5.1,1.1
		c1.4,0.7,2.5,1.7,3.3,2.9V75.4H317.9z M306,105.8c1.6,0,3-0.4,4.2-1.1c1.2-0.8,2.2-1.8,2.9-3.2c0.7-1.4,1-2.9,1-4.7
		c0-1.8-0.3-3.3-1-4.7c-0.7-1.4-1.6-2.5-2.9-3.3c-1.2-0.8-2.6-1.2-4.2-1.2c-2.4,0-4.4,0.8-5.9,2.5c-1.5,1.7-2.2,3.8-2.2,6.5
		s0.7,4.8,2.2,6.5C301.6,105,303.5,105.8,306,105.8z M326.3,100.9c0.1,1.5,0.7,2.7,1.9,3.6c1.2,0.9,2.8,1.4,4.8,1.4
		c1.7,0,3.1-0.3,4.2-1c1.1-0.7,1.6-1.6,1.6-2.7c0-1-0.3-1.7-0.8-2.2s-1.2-0.9-2-1.1c-0.8-0.2-2-0.4-3.5-0.6c-2.1-0.3-3.8-0.6-5.2-1
		s-2.4-1.1-3.3-2c-0.8-0.9-1.2-2.2-1.2-3.8c0-1.4,0.4-2.7,1.2-3.8c0.8-1.1,2-2,3.4-2.6c1.4-0.6,3-1,4.8-1c2.9,0,5.2,0.7,7,2
		c1.8,1.3,2.8,3.3,3,5.8h-3.9c-0.2-1.3-0.8-2.3-1.9-3.2s-2.4-1.2-4.1-1.2c-1.7,0-3,0.4-4,1.1c-1,0.7-1.5,1.6-1.5,2.7
		c0,0.8,0.2,1.5,0.7,1.9s1.1,0.8,1.8,0.9c0.8,0.2,1.9,0.3,3.5,0.5c2.1,0.3,3.9,0.6,5.3,1.1c1.4,0.4,2.5,1.2,3.4,2.2
		c0.9,1,1.3,2.3,1.3,4c0,1.5-0.4,2.8-1.3,3.9s-2,2-3.5,2.6s-3.1,0.9-4.9,0.9c-3.2,0-5.8-0.7-7.7-2.2c-1.9-1.5-2.9-3.5-2.9-6.1
		L326.3,100.9z M371.8,84.2c3,0,5.4,0.9,7.2,2.7c1.8,1.8,2.7,4.6,2.7,8.4V109h-3.9V95.6c0-2.5-0.6-4.4-1.7-5.8c-1.1-1.3-2.8-2-4.9-2
		c-2.3,0-4.1,0.8-5.4,2.4s-2,3.8-2,6.5V109h-3.9V84.5h3.4l0.5,3.3C365.6,85.4,368.3,84.2,371.8,84.2z M385.8,96.8
		c0-2.5,0.5-4.7,1.4-6.6c1-1.9,2.4-3.3,4.1-4.4c1.8-1.1,3.8-1.6,6-1.6c2.2,0,4.2,0.5,6,1.4s3.1,2.3,4.1,4s1.5,3.8,1.6,6.2
		c0,0.4,0,0.9-0.1,1.7h-19v0.3c0.1,2.4,0.8,4.3,2.2,5.8s3.2,2.2,5.5,2.2c1.8,0,3.2-0.4,4.5-1.3c1.2-0.9,2.1-2.1,2.5-3.7h4
		c-0.5,2.5-1.7,4.5-3.6,6.1c-1.9,1.6-4.3,2.4-7.1,2.4c-2.4,0-4.6-0.5-6.4-1.5c-1.8-1.1-3.2-2.5-4.3-4.4
		C386.3,101.4,385.8,99.2,385.8,96.8L385.8,96.8z M405,94.3c-0.2-2.1-1-3.7-2.4-4.8c-1.3-1.2-3.1-1.7-5.1-1.7
		c-1.9,0-3.5,0.6-4.9,1.8s-2.2,2.8-2.4,4.8H405z M412.7,96.8c0-2.5,0.5-4.7,1.4-6.6c1-1.9,2.4-3.3,4.1-4.4c1.8-1.1,3.8-1.6,6-1.6
		c2.2,0,4.2,0.5,6,1.4s3.1,2.3,4.1,4s1.5,3.8,1.6,6.2c0,0.4,0,0.9-0.1,1.7h-19v0.3c0.1,2.4,0.8,4.3,2.2,5.8s3.2,2.2,5.5,2.2
		c1.8,0,3.2-0.4,4.5-1.3c1.2-0.9,2.1-2.1,2.5-3.7h4c-0.5,2.5-1.7,4.5-3.6,6.1c-1.9,1.6-4.3,2.4-7.1,2.4c-2.4,0-4.6-0.5-6.4-1.5
		c-1.8-1.1-3.2-2.5-4.3-4.4C413.2,101.4,412.7,99.2,412.7,96.8L412.7,96.8z M431.8,94.3c-0.2-2.1-1-3.7-2.4-4.8
		c-1.3-1.2-3.1-1.7-5.1-1.7c-1.9,0-3.5,0.6-4.9,1.8s-2.2,2.8-2.4,4.8H431.8z M463.6,75.4V109h-3.4l-0.5-3.9c-2,2.8-4.8,4.2-8.4,4.2
		c-2.3,0-4.3-0.5-6.1-1.5c-1.8-1-3.2-2.4-4.2-4.3c-1-1.9-1.5-4.1-1.5-6.7c0-2.5,0.5-4.6,1.5-6.5c1-1.9,2.4-3.4,4.2-4.4
		s3.8-1.6,6-1.6c2,0,3.7,0.4,5.1,1.1c1.4,0.7,2.5,1.7,3.3,2.9V75.4H463.6z M451.7,105.8c1.6,0,3-0.4,4.2-1.1
		c1.2-0.8,2.2-1.8,2.9-3.2c0.7-1.4,1-2.9,1-4.7c0-1.8-0.3-3.3-1-4.7c-0.7-1.4-1.6-2.5-2.9-3.3c-1.2-0.8-2.6-1.2-4.2-1.2
		c-2.4,0-4.4,0.8-5.9,2.5c-1.5,1.7-2.2,3.8-2.2,6.5s0.7,4.8,2.2,6.5C447.3,105,449.3,105.8,451.7,105.8z M493.6,84.2
		c3,0,5.4,0.9,7.2,2.7c1.8,1.8,2.7,4.6,2.7,8.4V109h-3.9V95.6c0-2.5-0.6-4.4-1.7-5.8c-1.1-1.3-2.8-2-4.9-2c-2.3,0-4.1,0.8-5.4,2.4
		s-2,3.8-2,6.5V109h-3.9V84.5h3.4l0.5,3.3C487.4,85.4,490,84.2,493.6,84.2z M519.7,109.3c-2.4,0-4.5-0.5-6.3-1.6
		c-1.8-1.1-3.2-2.5-4.3-4.4s-1.5-4.1-1.5-6.5s0.5-4.6,1.5-6.5s2.4-3.4,4.3-4.4c1.9-1.1,4-1.6,6.3-1.6s4.5,0.5,6.3,1.6
		c1.9,1.1,3.3,2.5,4.3,4.4s1.5,4.1,1.5,6.5s-0.5,4.6-1.5,6.5s-2.5,3.4-4.3,4.4C524.2,108.8,522.1,109.3,519.7,109.3z M519.7,105.8
		c1.6,0,3-0.4,4.2-1.2c1.2-0.8,2.2-1.8,2.9-3.2s1-2.9,1-4.7s-0.3-3.3-1-4.7s-1.6-2.4-2.9-3.2c-1.2-0.8-2.6-1.2-4.2-1.2
		s-3,0.4-4.3,1.2c-1.2,0.8-2.2,1.8-2.8,3.2s-1,2.9-1,4.7s0.3,3.3,1,4.7s1.6,2.4,2.8,3.2C516.7,105.4,518.1,105.8,519.7,105.8z
		 M-268.3,147.1c0.7,0,1.3,0.2,1.8,0.7s0.7,1.1,0.7,1.8s-0.2,1.3-0.7,1.8s-1.1,0.7-1.8,0.7s-1.3-0.2-1.8-0.7s-0.7-1.1-0.7-1.8
		s0.2-1.3,0.7-1.8S-269.1,147.1-268.3,147.1z M-270.3,156.5h3.9V181h-3.9V156.5z M-249,156.2c3,0,5.4,0.9,7.2,2.7
		c1.8,1.8,2.7,4.6,2.7,8.4V181h-3.9v-13.4c0-2.5-0.6-4.4-1.7-5.8c-1.1-1.3-2.8-2-4.9-2c-2.3,0-4.1,0.8-5.4,2.4s-2,3.8-2,6.5V181
		h-3.9v-24.5h3.4l0.5,3.3C-255.2,157.4-252.5,156.2-249,156.2z M-232.4,160.1h-4.4v-3.6h4.4v-6.9h3.9v6.9h6.2v3.6h-6.2v14.4
		c0,1,0.2,1.8,0.6,2.2c0.4,0.4,1.1,0.6,2.1,0.6h4.3v3.6h-4.5c-2.3,0-4-0.5-4.9-1.5c-1-1-1.4-2.6-1.4-4.8L-232.4,160.1z
		 M-206.3,156.5v3.8h-2c-2.3,0-4,0.8-5,2.4c-1,1.6-1.5,3.5-1.5,5.8V181h-3.9v-24.5h3.4l0.5,3.7c0.7-1.1,1.6-2,2.7-2.7s2.7-1,4.7-1
		H-206.3z M-192.8,181.3c-2.4,0-4.5-0.5-6.3-1.6c-1.8-1.1-3.2-2.5-4.3-4.4s-1.5-4.1-1.5-6.5s0.5-4.6,1.5-6.5s2.4-3.4,4.3-4.4
		c1.9-1.1,4-1.6,6.3-1.6s4.5,0.5,6.3,1.6c1.9,1.1,3.3,2.5,4.3,4.4s1.5,4.1,1.5,6.5s-0.5,4.6-1.5,6.5s-2.5,3.4-4.3,4.4
		C-188.4,180.8-190.5,181.3-192.8,181.3z M-192.8,177.8c1.6,0,3-0.4,4.2-1.2c1.2-0.8,2.2-1.8,2.9-3.2s1-2.9,1-4.7s-0.3-3.3-1-4.7
		s-1.6-2.4-2.9-3.2c-1.2-0.8-2.6-1.2-4.2-1.2s-3,0.4-4.3,1.2c-1.2,0.8-2.2,1.8-2.8,3.2s-1,2.9-1,4.7s0.3,3.3,1,4.7s1.6,2.4,2.8,3.2
		C-195.9,177.4-194.4,177.8-192.8,177.8z M-153,147.4V181h-3.4l-0.5-3.9c-2,2.8-4.8,4.2-8.4,4.2c-2.3,0-4.3-0.5-6.1-1.5
		c-1.8-1-3.2-2.4-4.2-4.3c-1-1.9-1.5-4.1-1.5-6.7c0-2.5,0.5-4.6,1.5-6.5c1-1.9,2.4-3.4,4.2-4.4s3.8-1.6,6-1.6c2,0,3.7,0.4,5.1,1.1
		c1.4,0.7,2.5,1.7,3.3,2.9v-12.9L-153,147.4z M-164.9,177.8c1.6,0,3-0.4,4.2-1.1c1.2-0.8,2.2-1.8,2.9-3.2c0.7-1.4,1-2.9,1-4.7
		c0-1.8-0.3-3.3-1-4.7c-0.7-1.4-1.6-2.5-2.9-3.3c-1.2-0.8-2.6-1.2-4.2-1.2c-2.4,0-4.4,0.8-5.9,2.5c-1.5,1.7-2.2,3.8-2.2,6.5
		s0.7,4.8,2.2,6.5C-169.3,177-167.3,177.8-164.9,177.8L-164.9,177.8z M-126.5,156.5V181h-3.4l-0.5-3.3c-1.9,2.4-4.5,3.6-7.8,3.6
		c-2.9,0-5.2-0.9-7-2.7s-2.6-4.6-2.6-8.4v-13.6h3.9v13.4c0,2.5,0.5,4.5,1.6,5.8c1.1,1.3,2.7,2,4.8,2c2.2,0,4-0.8,5.2-2.4
		c1.3-1.6,1.9-3.8,1.9-6.5v-12.2H-126.5z M-99.3,172.6c-0.5,2.7-1.7,4.9-3.6,6.4c-1.9,1.5-4.3,2.3-7.2,2.3c-2.4,0-4.4-0.5-6.2-1.6
		s-3.2-2.5-4.2-4.4c-1-1.9-1.5-4.1-1.5-6.6s0.5-4.6,1.5-6.5c1-1.9,2.4-3.3,4.3-4.4c1.8-1.1,3.9-1.6,6.3-1.6c2.9,0,5.2,0.8,7.1,2.3
		c1.9,1.5,3.1,3.6,3.6,6.3h-4c-0.4-1.6-1.2-2.8-2.4-3.7s-2.7-1.4-4.4-1.4c-2.3,0-4.2,0.8-5.7,2.5c-1.4,1.7-2.2,3.8-2.2,6.5
		c0,2.7,0.7,4.9,2.2,6.6c1.5,1.7,3.4,2.5,5.7,2.5c1.8,0,3.3-0.5,4.5-1.4s2-2.2,2.4-3.8L-99.3,172.6z M-93.1,160.1h-4.4v-3.6h4.4
		v-6.9h3.9v6.9h6.2v3.6h-6.2v14.4c0,1,0.2,1.8,0.6,2.2c0.4,0.4,1.1,0.6,2.1,0.6h4.3v3.6h-4.5c-2.3,0-4-0.5-4.9-1.5
		c-1-1-1.4-2.6-1.4-4.8L-93.1,160.1z M-77.5,147.1c0.7,0,1.3,0.2,1.8,0.7s0.7,1.1,0.7,1.8s-0.2,1.3-0.7,1.8s-1.1,0.7-1.8,0.7
		s-1.3-0.2-1.8-0.7s-0.7-1.1-0.7-1.8s0.2-1.3,0.7-1.8S-78.2,147.1-77.5,147.1z M-79.4,156.5h3.9V181h-3.9V156.5z M-58.8,181.3
		c-2.4,0-4.5-0.5-6.3-1.6c-1.8-1.1-3.2-2.5-4.3-4.4s-1.5-4.1-1.5-6.5s0.5-4.6,1.5-6.5s2.4-3.4,4.3-4.4c1.9-1.1,4-1.6,6.3-1.6
		s4.5,0.5,6.3,1.6c1.9,1.1,3.3,2.5,4.3,4.4s1.5,4.1,1.5,6.5s-0.5,4.6-1.5,6.5s-2.5,3.4-4.3,4.4C-54.4,180.8-56.5,181.3-58.8,181.3z
		 M-58.8,177.8c1.6,0,3-0.4,4.2-1.2c1.2-0.8,2.2-1.8,2.9-3.2s1-2.9,1-4.7s-0.3-3.3-1-4.7s-1.6-2.4-2.9-3.2c-1.2-0.8-2.6-1.2-4.2-1.2
		s-3,0.4-4.3,1.2c-1.2,0.8-2.2,1.8-2.8,3.2s-1,2.9-1,4.7s0.3,3.3,1,4.7s1.6,2.4,2.8,3.2C-61.9,177.4-60.4,177.8-58.8,177.8z
		 M-30.2,156.2c3,0,5.4,0.9,7.2,2.7c1.8,1.8,2.7,4.6,2.7,8.4V181h-3.9v-13.4c0-2.5-0.6-4.4-1.7-5.8c-1.1-1.3-2.8-2-4.9-2
		c-2.3,0-4.1,0.8-5.4,2.4s-2,3.8-2,6.5V181h-3.9v-24.5h3.4l0.5,3.3C-36.4,157.4-33.7,156.2-30.2,156.2z M-13.4,171l-0.6-23.6h4.2
		l-0.6,23.6H-13.4z M-14.7,178.6c0-0.8,0.3-1.4,0.8-1.9c0.5-0.5,1.2-0.8,2-0.8s1.5,0.3,2,0.8c0.5,0.5,0.8,1.1,0.8,1.9
		s-0.3,1.5-0.8,2c-0.5,0.5-1.2,0.7-2,0.7s-1.5-0.2-2-0.7C-14.4,180.1-14.7,179.4-14.7,178.6z M209.3,156.5h4.1l6.1,19.9l6.4-19.9
		h3.6l6.1,19.9l6.4-19.9h4l-8.2,24.5h-4.3l-5.9-18.2l-6.1,18.2l-4.3,0L209.3,156.5z M271.1,177.4v3.6H269c-1.6,0-2.7-0.3-3.4-1
		s-1-1.6-1.1-2.8c-1.9,2.7-4.6,4.1-8.2,4.1c-2.7,0-4.9-0.6-6.6-1.9c-1.6-1.3-2.4-3-2.4-5.2c0-2.5,0.8-4.4,2.5-5.7
		c1.7-1.3,4.1-2,7.3-2h7.2v-1.7c0-1.6-0.5-2.8-1.6-3.7c-1.1-0.9-2.5-1.3-4.5-1.3c-1.7,0-3.1,0.4-4.2,1.2c-1.1,0.7-1.8,1.7-2,3h-3.9
		c0.3-2.4,1.3-4.3,3.2-5.6c1.9-1.3,4.3-2,7.2-2c3.1,0,5.6,0.8,7.2,2.3c1.7,1.5,2.6,3.7,2.6,6.5v10.6c0,1.2,0.5,1.8,1.6,1.8H271.1z
		 M264.3,169.8h-7.6c-3.6,0-5.5,1.4-5.5,4.1c0,1.2,0.5,2.2,1.4,2.9s2.3,1.1,3.9,1.1c2.4,0,4.3-0.6,5.7-1.9c1.4-1.3,2.1-3,2.1-5
		L264.3,169.8z M277.2,172.9c0.1,1.5,0.7,2.7,1.9,3.6c1.2,0.9,2.8,1.4,4.8,1.4c1.7,0,3.1-0.3,4.2-1c1.1-0.7,1.6-1.6,1.6-2.7
		c0-1-0.3-1.7-0.8-2.2s-1.2-0.9-2-1.1c-0.8-0.2-2-0.4-3.5-0.6c-2.1-0.3-3.8-0.6-5.2-1s-2.4-1.1-3.3-2c-0.8-0.9-1.2-2.2-1.2-3.8
		c0-1.4,0.4-2.7,1.2-3.8c0.8-1.1,2-2,3.4-2.6c1.4-0.6,3-1,4.8-1c2.9,0,5.2,0.7,7,2c1.8,1.3,2.8,3.3,3,5.8h-3.9
		c-0.2-1.3-0.8-2.3-1.9-3.2s-2.4-1.2-4.1-1.2c-1.7,0-3,0.4-4,1.1c-1,0.7-1.5,1.6-1.5,2.7c0,0.8,0.2,1.5,0.7,1.9s1.1,0.8,1.8,0.9
		c0.8,0.2,1.9,0.3,3.5,0.5c2.1,0.3,3.9,0.6,5.3,1.1c1.4,0.4,2.5,1.2,3.4,2.2c0.9,1,1.3,2.3,1.3,4c0,1.5-0.4,2.8-1.3,3.9
		s-2,2-3.5,2.6s-3.1,0.9-4.9,0.9c-3.2,0-5.8-0.7-7.7-2.2c-1.9-1.5-2.9-3.5-2.9-6.1L277.2,172.9z M323,156.2c2.3,0,4.3,0.5,6,1.5
		c1.8,1,3.2,2.4,4.2,4.3c1,1.9,1.5,4.1,1.5,6.7c0,2.5-0.5,4.6-1.5,6.5c-1,1.9-2.4,3.4-4.2,4.4s-3.8,1.6-6,1.6c-2,0-3.7-0.4-5.1-1.1
		c-1.4-0.7-2.5-1.7-3.3-3l-0.5,3.7h-3.4v-33.6h3.9v13.1C316.6,157.6,319.4,156.2,323,156.2L323,156.2z M322.6,177.8
		c2.4,0,4.4-0.8,5.9-2.5c1.5-1.7,2.3-3.9,2.3-6.5s-0.8-4.8-2.3-6.5c-1.5-1.7-3.4-2.5-5.9-2.5c-1.6,0-3,0.4-4.2,1.2
		c-1.2,0.7-2.2,1.8-2.8,3.2c-0.7,1.3-1,2.9-1,4.6c0,1.8,0.3,3.3,1,4.8c0.7,1.4,1.6,2.4,2.8,3.2C319.6,177.4,321,177.8,322.6,177.8
		L322.6,177.8z M350.5,181.3c-2.4,0-4.5-0.5-6.3-1.6c-1.8-1.1-3.2-2.5-4.3-4.4s-1.5-4.1-1.5-6.5s0.5-4.6,1.5-6.5s2.4-3.4,4.3-4.4
		c1.9-1.1,4-1.6,6.3-1.6s4.5,0.5,6.3,1.6c1.9,1.1,3.3,2.5,4.3,4.4s1.5,4.1,1.5,6.5s-0.5,4.6-1.5,6.5s-2.5,3.4-4.3,4.4
		C355,180.8,352.9,181.3,350.5,181.3z M350.5,177.8c1.6,0,3-0.4,4.2-1.2c1.2-0.8,2.2-1.8,2.9-3.2s1-2.9,1-4.7s-0.3-3.3-1-4.7
		s-1.6-2.4-2.9-3.2c-1.2-0.8-2.6-1.2-4.2-1.2s-3,0.4-4.3,1.2c-1.2,0.8-2.2,1.8-2.8,3.2s-1,2.9-1,4.7s0.3,3.3,1,4.7s1.6,2.4,2.8,3.2
		C347.5,177.4,348.9,177.8,350.5,177.8z M379.6,156.5v3.8h-2c-2.3,0-4,0.8-5,2.4c-1,1.6-1.5,3.5-1.5,5.8V181h-3.9v-24.5h3.4l0.5,3.7
		c0.7-1.1,1.6-2,2.7-2.7s2.7-1,4.7-1H379.6z M395.2,156.2c3,0,5.4,0.9,7.2,2.7c1.8,1.8,2.7,4.6,2.7,8.4V181h-3.9v-13.4
		c0-2.5-0.6-4.4-1.7-5.8c-1.1-1.3-2.8-2-4.9-2c-2.3,0-4.1,0.8-5.4,2.4s-2,3.8-2,6.5V181h-3.9v-24.5h3.4l0.5,3.3
		C389,157.4,391.7,156.2,395.2,156.2z M424.3,156.5v-2.7c0-2.2,0.5-3.8,1.5-4.8c1-1.1,2.7-1.6,4.9-1.6h4.5v3.6h-4.3
		c-1,0-1.6,0.2-2.1,0.6s-0.6,1.1-0.6,2.1v2.8h6.9v3.6h-6.9V181h-3.9v-20.9h-4.4v-3.6H424.3z M450.3,156.5v3.8h-2c-2.3,0-4,0.8-5,2.4
		c-1,1.6-1.5,3.5-1.5,5.8V181h-3.9v-24.5h3.4l0.5,3.7c0.7-1.1,1.6-2,2.7-2.7s2.7-1,4.7-1H450.3z M463.7,181.3
		c-2.4,0-4.5-0.5-6.3-1.6c-1.8-1.1-3.2-2.5-4.3-4.4s-1.5-4.1-1.5-6.5s0.5-4.6,1.5-6.5s2.4-3.4,4.3-4.4c1.9-1.1,4-1.6,6.3-1.6
		s4.5,0.5,6.3,1.6c1.9,1.1,3.3,2.5,4.3,4.4s1.5,4.1,1.5,6.5s-0.5,4.6-1.5,6.5s-2.5,3.4-4.3,4.4C468.2,180.8,466.1,181.3,463.7,181.3
		z M463.7,177.8c1.6,0,3-0.4,4.2-1.2c1.2-0.8,2.2-1.8,2.9-3.2s1-2.9,1-4.7s-0.3-3.3-1-4.7s-1.6-2.4-2.9-3.2
		c-1.2-0.8-2.6-1.2-4.2-1.2s-3,0.4-4.3,1.2c-1.2,0.8-2.2,1.8-2.8,3.2s-1,2.9-1,4.7s0.3,3.3,1,4.7s1.6,2.4,2.8,3.2
		C460.7,177.4,462.1,177.8,463.7,177.8z M507.7,156.2c2.8,0,5,0.9,6.7,2.6c1.7,1.7,2.6,4.4,2.6,8.1V181H513v-13.9
		c0-2.4-0.5-4.2-1.5-5.4c-1-1.2-2.4-1.9-4.3-1.9c-2,0-3.7,0.7-4.8,2.2c-1.2,1.4-1.7,3.4-1.7,5.9V181h-3.9v-13.9
		c0-2.4-0.5-4.2-1.5-5.4s-2.5-1.9-4.4-1.9c-2,0-3.6,0.8-4.8,2.3c-1.2,1.5-1.7,3.5-1.7,6V181h-3.9v-24.5h3.4l0.5,3.4
		c1.8-2.4,4.1-3.6,7.2-3.6c1.8,0,3.3,0.4,4.7,1.2c1.4,0.8,2.4,1.9,3.1,3.5C501,157.8,503.8,156.2,507.7,156.2L507.7,156.2z
		 M-268.7,232.1h-4.4v-3.6h4.4v-6.9h3.9v6.9h6.2v3.6h-6.2v14.4c0,1,0.2,1.8,0.6,2.2c0.4,0.4,1.1,0.6,2.1,0.6h4.3v3.6h-4.5
		c-2.3,0-4-0.5-4.9-1.5c-1-1-1.4-2.6-1.4-4.8V232.1z M-243,228.2c3,0,5.4,0.9,7.2,2.7s2.7,4.6,2.7,8.4V253h-3.9v-13.4
		c0-2.5-0.6-4.4-1.7-5.8c-1.2-1.3-2.8-2-4.9-2c-2.3,0-4.1,0.8-5.4,2.4c-1.3,1.6-2,3.8-2,6.5V253h-3.9v-33.6h3.9v13.2
		c0.8-1.3,1.9-2.3,3.2-3.1C-246.5,228.6-244.9,228.2-243,228.2L-243,228.2z M-228.9,240.8c0-2.5,0.5-4.7,1.4-6.6
		c1-1.9,2.4-3.3,4.1-4.4c1.8-1.1,3.8-1.6,6-1.6c2.2,0,4.2,0.5,6,1.4s3.1,2.3,4.1,4s1.5,3.8,1.6,6.2c0,0.4,0,0.9-0.1,1.7h-19v0.3
		c0.1,2.4,0.8,4.3,2.2,5.8s3.2,2.2,5.5,2.2c1.8,0,3.2-0.4,4.5-1.3c1.2-0.9,2.1-2.1,2.5-3.7h4c-0.5,2.5-1.7,4.5-3.6,6.1
		c-1.9,1.6-4.3,2.4-7.1,2.4c-2.4,0-4.6-0.5-6.4-1.5c-1.8-1.1-3.2-2.5-4.3-4.4C-228.4,245.4-228.9,243.2-228.9,240.8L-228.9,240.8z
		 M-209.7,238.3c-0.2-2.1-1-3.7-2.4-4.8c-1.3-1.2-3.1-1.7-5.1-1.7c-1.9,0-3.5,0.6-4.9,1.8s-2.2,2.8-2.4,4.8H-209.7z M-165.4,219.4
		V253h-3.4l-0.5-3.9c-2,2.8-4.8,4.2-8.4,4.2c-2.3,0-4.3-0.5-6.1-1.5c-1.8-1-3.2-2.4-4.2-4.3c-1-1.9-1.5-4.1-1.5-6.7
		c0-2.5,0.5-4.6,1.5-6.5c1-1.9,2.4-3.4,4.2-4.4s3.8-1.6,6-1.6c2,0,3.7,0.4,5.1,1.1c1.4,0.7,2.5,1.7,3.3,2.9v-12.9L-165.4,219.4z
		 M-177.3,249.8c1.6,0,3-0.4,4.2-1.1c1.2-0.8,2.2-1.8,2.9-3.2c0.7-1.4,1-2.9,1-4.7c0-1.8-0.3-3.3-1-4.7c-0.7-1.4-1.6-2.5-2.9-3.3
		c-1.2-0.8-2.6-1.2-4.2-1.2c-2.4,0-4.4,0.8-5.9,2.5c-1.5,1.7-2.2,3.8-2.2,6.5s0.7,4.8,2.2,6.5C-181.7,249-179.8,249.8-177.3,249.8
		L-177.3,249.8z M-160.9,240.8c0-2.5,0.5-4.7,1.4-6.6c1-1.9,2.4-3.3,4.1-4.4c1.8-1.1,3.8-1.6,6-1.6c2.2,0,4.2,0.5,6,1.4
		s3.1,2.3,4.1,4s1.5,3.8,1.6,6.2c0,0.4,0,0.9-0.1,1.7h-19v0.3c0.1,2.4,0.8,4.3,2.2,5.8s3.2,2.2,5.5,2.2c1.8,0,3.2-0.4,4.5-1.3
		c1.2-0.9,2.1-2.1,2.5-3.7h4c-0.5,2.5-1.7,4.5-3.6,6.1c-1.9,1.6-4.3,2.4-7.1,2.4c-2.4,0-4.6-0.5-6.4-1.5c-1.8-1.1-3.2-2.5-4.3-4.4
		C-160.4,245.4-160.9,243.2-160.9,240.8L-160.9,240.8z M-141.7,238.3c-0.2-2.1-1-3.7-2.4-4.8c-1.3-1.2-3.1-1.7-5.1-1.7
		c-1.9,0-3.5,0.6-4.9,1.8s-2.2,2.8-2.4,4.8H-141.7z M-130.2,244.9c0.1,1.5,0.7,2.7,1.9,3.6c1.2,0.9,2.8,1.4,4.8,1.4
		c1.7,0,3.1-0.3,4.2-1c1.1-0.7,1.6-1.6,1.6-2.7c0-1-0.3-1.7-0.8-2.2s-1.2-0.9-2-1.1c-0.8-0.2-2-0.4-3.5-0.6c-2.1-0.3-3.8-0.6-5.2-1
		c-1.3-0.4-2.4-1.1-3.3-2c-0.8-0.9-1.2-2.2-1.2-3.8c0-1.4,0.4-2.7,1.2-3.8c0.8-1.1,2-2,3.4-2.6c1.4-0.6,3-1,4.8-1c2.9,0,5.2,0.7,7,2
		c1.8,1.3,2.8,3.3,3,5.8h-3.9c-0.2-1.3-0.8-2.3-1.9-3.2s-2.4-1.2-4.1-1.2c-1.7,0-3,0.4-4,1.1c-1,0.7-1.5,1.6-1.5,2.7
		c0,0.8,0.2,1.5,0.7,1.9s1.1,0.8,1.8,0.9c0.8,0.2,1.9,0.3,3.5,0.5c2.1,0.3,3.9,0.6,5.3,1.1c1.4,0.4,2.5,1.2,3.4,2.2
		c0.9,1,1.3,2.3,1.3,4c0,1.5-0.4,2.8-1.3,3.9s-2,2-3.5,2.6s-3.1,0.9-4.9,0.9c-3.2,0-5.8-0.7-7.7-2.2c-1.9-1.5-2.9-3.5-2.9-6.1
		L-130.2,244.9z M-107.3,219.1c0.7,0,1.3,0.2,1.8,0.7s0.7,1.1,0.7,1.8s-0.2,1.3-0.7,1.8s-1.1,0.7-1.8,0.7s-1.3-0.2-1.8-0.7
		s-0.7-1.1-0.7-1.8s0.2-1.3,0.7-1.8S-108.1,219.1-107.3,219.1z M-109.3,228.5h3.9V253h-3.9V228.5z M-87.5,228.5v3.8h-2
		c-2.3,0-4,0.8-5,2.4c-1,1.6-1.5,3.5-1.5,5.8V253h-3.9v-24.5h3.4l0.5,3.7c0.7-1.1,1.6-2,2.7-2.7s2.7-1,4.7-1H-87.5z M-86.2,240.8
		c0-2.5,0.5-4.7,1.4-6.6c1-1.9,2.4-3.3,4.1-4.4c1.8-1.1,3.8-1.6,6-1.6c2.2,0,4.2,0.5,6,1.4s3.1,2.3,4.1,4s1.5,3.8,1.6,6.2
		c0,0.4,0,0.9-0.1,1.7h-19v0.3c0.1,2.4,0.8,4.3,2.2,5.8s3.2,2.2,5.5,2.2c1.8,0,3.2-0.4,4.5-1.3c1.2-0.9,2.1-2.1,2.5-3.7h4
		c-0.5,2.5-1.7,4.5-3.6,6.1c-1.9,1.6-4.3,2.4-7.1,2.4c-2.4,0-4.6-0.5-6.4-1.5c-1.8-1.1-3.2-2.5-4.3-4.4
		C-85.7,245.4-86.2,243.2-86.2,240.8L-86.2,240.8z M-67.1,238.3c-0.2-2.1-1-3.7-2.4-4.8c-1.3-1.2-3.1-1.7-5.1-1.7
		c-1.9,0-3.5,0.6-4.9,1.8s-2.2,2.8-2.4,4.8H-67.1z M-34.6,253.3c-2.4,0-4.5-0.5-6.3-1.6c-1.8-1.1-3.2-2.5-4.3-4.4s-1.5-4.1-1.5-6.5
		s0.5-4.6,1.5-6.5s2.4-3.4,4.3-4.4c1.9-1.1,4-1.6,6.3-1.6s4.5,0.5,6.3,1.6c1.9,1.1,3.3,2.5,4.3,4.4s1.5,4.1,1.5,6.5
		s-0.5,4.6-1.5,6.5s-2.5,3.4-4.3,4.4C-30.2,252.8-32.3,253.3-34.6,253.3z M-34.6,249.8c1.6,0,3-0.4,4.2-1.2c1.2-0.8,2.2-1.8,2.9-3.2
		s1-2.9,1-4.7s-0.3-3.3-1-4.7s-1.6-2.4-2.9-3.2c-1.2-0.8-2.6-1.2-4.2-1.2s-3,0.4-4.3,1.2c-1.2,0.8-2.2,1.8-2.8,3.2s-1,2.9-1,4.7
		s0.3,3.3,1,4.7s1.6,2.4,2.8,3.2C-37.7,249.4-36.2,249.8-34.6,249.8z M-16.6,228.5v-2.7c0-2.2,0.5-3.8,1.5-4.8
		c1-1.1,2.7-1.6,4.9-1.6h4.5v3.6H-10c-1,0-1.6,0.2-2.1,0.6s-0.6,1.1-0.6,2.1v2.8h6.9v3.6h-6.9V253h-3.9v-20.9H-21v-3.6H-16.6z
		 M31.3,244.6c-0.5,2.7-1.7,4.9-3.6,6.4c-1.9,1.5-4.3,2.3-7.2,2.3c-2.4,0-4.4-0.5-6.2-1.6s-3.2-2.5-4.2-4.4c-1-1.9-1.5-4.1-1.5-6.6
		s0.5-4.6,1.5-6.5c1-1.9,2.4-3.3,4.3-4.4c1.8-1.1,3.9-1.6,6.3-1.6c2.9,0,5.2,0.8,7.1,2.3c1.9,1.5,3.1,3.6,3.6,6.3h-4
		c-0.4-1.6-1.2-2.8-2.4-3.7s-2.7-1.4-4.4-1.4c-2.3,0-4.2,0.8-5.7,2.5c-1.4,1.7-2.2,3.8-2.2,6.5c0,2.7,0.7,4.9,2.2,6.6
		c1.5,1.7,3.4,2.5,5.7,2.5c1.8,0,3.3-0.5,4.5-1.4s2-2.2,2.4-3.8L31.3,244.6z M46.6,253.3c-2.4,0-4.5-0.5-6.3-1.6
		c-1.8-1.1-3.2-2.5-4.3-4.4s-1.5-4.1-1.5-6.5s0.5-4.6,1.5-6.5s2.4-3.4,4.3-4.4c1.9-1.1,4-1.6,6.3-1.6s4.5,0.5,6.3,1.6
		c1.9,1.1,3.3,2.5,4.3,4.4s1.5,4.1,1.5,6.5s-0.5,4.6-1.5,6.5s-2.5,3.4-4.3,4.4C51.1,252.8,49,253.3,46.6,253.3z M46.6,249.8
		c1.6,0,3-0.4,4.2-1.2c1.2-0.8,2.2-1.8,2.9-3.2s1-2.9,1-4.7s-0.3-3.3-1-4.7s-1.6-2.4-2.9-3.2c-1.2-0.8-2.6-1.2-4.2-1.2
		s-3,0.4-4.3,1.2c-1.2,0.8-2.2,1.8-2.8,3.2s-1,2.9-1,4.7s0.3,3.3,1,4.7s1.6,2.4,2.8,3.2C43.6,249.4,45,249.8,46.6,249.8z
		 M90.6,228.2c2.8,0,5,0.9,6.7,2.6c1.7,1.7,2.6,4.4,2.6,8.1V253h-3.9v-13.9c0-2.4-0.5-4.2-1.5-5.4c-1-1.2-2.4-1.9-4.3-1.9
		c-2,0-3.7,0.7-4.8,2.2c-1.2,1.4-1.7,3.4-1.7,5.9V253h-3.9v-13.9c0-2.4-0.5-4.2-1.5-5.4s-2.5-1.9-4.4-1.9c-2,0-3.6,0.8-4.8,2.3
		c-1.2,1.5-1.7,3.5-1.7,6V253h-3.9v-24.5h3.4l0.5,3.4c1.8-2.4,4.1-3.6,7.2-3.6c1.8,0,3.3,0.4,4.7,1.2c1.4,0.8,2.4,1.9,3.1,3.5
		C83.8,229.8,86.7,228.2,90.6,228.2L90.6,228.2z M117.2,228.2c2.3,0,4.3,0.5,6,1.5c1.8,1,3.2,2.4,4.2,4.3c1,1.9,1.5,4.1,1.5,6.7
		c0,2.5-0.5,4.6-1.5,6.5c-1,1.9-2.4,3.4-4.2,4.4s-3.8,1.6-6,1.6c-2,0-3.7-0.4-5.1-1.1c-1.4-0.7-2.5-1.7-3.3-3v13.3h-3.9v-34.1h3.4
		l0.5,3.9C110.9,229.6,113.7,228.2,117.2,228.2L117.2,228.2z M116.8,249.8c2.4,0,4.4-0.8,5.9-2.5c1.5-1.7,2.3-3.9,2.3-6.5
		s-0.8-4.8-2.3-6.5c-1.5-1.7-3.4-2.5-5.9-2.5c-1.6,0-3,0.4-4.2,1.2c-1.2,0.7-2.2,1.8-2.8,3.2c-0.7,1.3-1,2.9-1,4.6
		c0,1.8,0.3,3.3,1,4.8c0.7,1.4,1.6,2.4,2.8,3.2C113.9,249.4,115.3,249.8,116.8,249.8L116.8,249.8z M156.4,249.4v3.6h-2.2
		c-1.6,0-2.7-0.3-3.4-1s-1-1.6-1.1-2.8c-1.9,2.7-4.6,4.1-8.2,4.1c-2.7,0-4.9-0.6-6.6-1.9c-1.6-1.3-2.4-3-2.4-5.2
		c0-2.5,0.8-4.4,2.5-5.7c1.7-1.3,4.1-2,7.3-2h7.2v-1.7c0-1.6-0.5-2.8-1.6-3.7c-1.1-0.9-2.5-1.3-4.5-1.3c-1.7,0-3.1,0.4-4.2,1.2
		c-1.1,0.7-1.8,1.7-2,3h-3.9c0.3-2.4,1.3-4.3,3.2-5.6c1.9-1.3,4.3-2,7.2-2c3.1,0,5.6,0.8,7.2,2.3c1.7,1.5,2.6,3.7,2.6,6.5v10.6
		c0,1.2,0.5,1.8,1.6,1.8H156.4z M149.6,241.8H142c-3.6,0-5.5,1.4-5.5,4.1c0,1.2,0.5,2.2,1.4,2.9s2.3,1.1,3.9,1.1
		c2.4,0,4.3-0.6,5.7-1.9c1.4-1.3,2.1-3,2.1-5V241.8z M171.4,228.2c3,0,5.4,0.9,7.2,2.7c1.8,1.8,2.7,4.6,2.7,8.4V253h-3.9v-13.4
		c0-2.5-0.6-4.4-1.7-5.8c-1.1-1.3-2.8-2-4.9-2c-2.3,0-4.1,0.8-5.4,2.4s-2,3.8-2,6.5V253h-3.9v-24.5h3.4l0.5,3.3
		C165.2,229.4,167.9,228.2,171.4,228.2L171.4,228.2z M188.3,219.1c0.7,0,1.3,0.2,1.8,0.7s0.7,1.1,0.7,1.8s-0.2,1.3-0.7,1.8
		s-1.1,0.7-1.8,0.7s-1.3-0.2-1.8-0.7s-0.7-1.1-0.7-1.8s0.2-1.3,0.7-1.8S187.5,219.1,188.3,219.1z M186.3,228.5h3.9V253h-3.9V228.5z
		 M194.8,240.8c0-2.5,0.5-4.7,1.4-6.6c1-1.9,2.4-3.3,4.1-4.4c1.8-1.1,3.8-1.6,6-1.6c2.2,0,4.2,0.5,6,1.4s3.1,2.3,4.1,4
		s1.5,3.8,1.6,6.2c0,0.4,0,0.9-0.1,1.7h-19v0.3c0.1,2.4,0.8,4.3,2.2,5.8s3.2,2.2,5.5,2.2c1.8,0,3.2-0.4,4.5-1.3
		c1.2-0.9,2.1-2.1,2.5-3.7h4c-0.5,2.5-1.7,4.5-3.6,6.1c-1.9,1.6-4.3,2.4-7.1,2.4c-2.4,0-4.6-0.5-6.4-1.5c-1.8-1.1-3.2-2.5-4.3-4.4
		C195.3,245.4,194.8,243.2,194.8,240.8L194.8,240.8z M213.9,238.3c-0.2-2.1-1-3.7-2.4-4.8c-1.3-1.2-3.1-1.7-5.1-1.7
		c-1.9,0-3.5,0.6-4.9,1.8s-2.2,2.8-2.4,4.8H213.9z M225.5,244.9c0.1,1.5,0.7,2.7,1.9,3.6c1.2,0.9,2.8,1.4,4.8,1.4
		c1.7,0,3.1-0.3,4.2-1c1.1-0.7,1.6-1.6,1.6-2.7c0-1-0.3-1.7-0.8-2.2s-1.2-0.9-2-1.1c-0.8-0.2-2-0.4-3.5-0.6c-2.1-0.3-3.8-0.6-5.2-1
		s-2.4-1.1-3.3-2c-0.8-0.9-1.2-2.2-1.2-3.8c0-1.4,0.4-2.7,1.2-3.8c0.8-1.1,2-2,3.4-2.6c1.4-0.6,3-1,4.8-1c2.9,0,5.2,0.7,7,2
		c1.8,1.3,2.8,3.3,3,5.8h-3.9c-0.2-1.3-0.8-2.3-1.9-3.2s-2.4-1.2-4.1-1.2c-1.7,0-3,0.4-4,1.1c-1,0.7-1.5,1.6-1.5,2.7
		c0,0.8,0.2,1.5,0.7,1.9s1.1,0.8,1.8,0.9c0.8,0.2,1.9,0.3,3.5,0.5c2.1,0.3,3.9,0.6,5.3,1.1c1.4,0.4,2.5,1.2,3.4,2.2
		c0.9,1,1.3,2.3,1.3,4c0,1.5-0.4,2.8-1.3,3.9s-2,2-3.5,2.6s-3.1,0.9-4.9,0.9c-3.2,0-5.8-0.7-7.7-2.2c-1.9-1.5-2.9-3.5-2.9-6.1
		L225.5,244.9z M260.5,232.1h-4.4v-3.6h4.4v-6.9h3.9v6.9h6.2v3.6h-6.2v14.4c0,1,0.2,1.8,0.6,2.2c0.4,0.4,1.1,0.6,2.1,0.6h4.3v3.6
		h-4.5c-2.3,0-4-0.5-4.9-1.5c-1-1-1.4-2.6-1.4-4.8V232.1z M284.9,253.3c-2.4,0-4.5-0.5-6.3-1.6c-1.8-1.1-3.2-2.5-4.3-4.4
		s-1.5-4.1-1.5-6.5s0.5-4.6,1.5-6.5s2.4-3.4,4.3-4.4c1.9-1.1,4-1.6,6.3-1.6s4.5,0.5,6.3,1.6c1.9,1.1,3.3,2.5,4.3,4.4
		s1.5,4.1,1.5,6.5s-0.5,4.6-1.5,6.5s-2.5,3.4-4.3,4.4C289.4,252.8,287.3,253.3,284.9,253.3z M284.9,249.8c1.6,0,3-0.4,4.2-1.2
		c1.2-0.8,2.2-1.8,2.9-3.2s1-2.9,1-4.7s-0.3-3.3-1-4.7s-1.6-2.4-2.9-3.2c-1.2-0.8-2.6-1.2-4.2-1.2s-3,0.4-4.3,1.2
		c-1.2,0.8-2.2,1.8-2.8,3.2s-1,2.9-1,4.7s0.3,3.3,1,4.7s1.6,2.4,2.8,3.2C281.9,249.4,283.3,249.8,284.9,249.8z M326.5,228.2
		c2.3,0,4.3,0.5,6,1.5c1.8,1,3.2,2.4,4.2,4.3c1,1.9,1.5,4.1,1.5,6.7c0,2.5-0.5,4.6-1.5,6.5c-1,1.9-2.4,3.4-4.2,4.4s-3.8,1.6-6,1.6
		c-2,0-3.7-0.4-5.1-1.1c-1.4-0.7-2.5-1.7-3.3-3l-0.5,3.7h-3.4v-33.6h3.9v13.1C320.1,229.6,322.9,228.2,326.5,228.2L326.5,228.2z
		 M326.1,249.8c2.4,0,4.4-0.8,5.9-2.5c1.5-1.7,2.3-3.9,2.3-6.5s-0.8-4.8-2.3-6.5c-1.5-1.7-3.4-2.5-5.9-2.5c-1.6,0-3,0.4-4.2,1.2
		c-1.2,0.7-2.2,1.8-2.8,3.2c-0.7,1.3-1,2.9-1,4.6c0,1.8,0.3,3.3,1,4.8c0.7,1.4,1.6,2.4,2.8,3.2C323.1,249.4,324.5,249.8,326.1,249.8
		L326.1,249.8z M341.9,240.8c0-2.5,0.5-4.7,1.4-6.6c1-1.9,2.4-3.3,4.1-4.4c1.8-1.1,3.8-1.6,6-1.6c2.2,0,4.2,0.5,6,1.4s3.1,2.3,4.1,4
		s1.5,3.8,1.6,6.2c0,0.4,0,0.9-0.1,1.7h-19v0.3c0.1,2.4,0.8,4.3,2.2,5.8s3.2,2.2,5.5,2.2c1.8,0,3.2-0.4,4.5-1.3
		c1.2-0.9,2.1-2.1,2.5-3.7h4c-0.5,2.5-1.7,4.5-3.6,6.1c-1.9,1.6-4.3,2.4-7.1,2.4c-2.4,0-4.6-0.5-6.4-1.5c-1.8-1.1-3.2-2.5-4.3-4.4
		C342.4,245.4,341.9,243.2,341.9,240.8L341.9,240.8z M361,238.3c-0.2-2.1-1-3.7-2.4-4.8c-1.3-1.2-3.1-1.7-5.1-1.7
		c-1.9,0-3.5,0.6-4.9,1.8s-2.2,2.8-2.4,4.8H361z M405.4,219.4V253H402l-0.5-3.9c-2,2.8-4.8,4.2-8.4,4.2c-2.3,0-4.3-0.5-6.1-1.5
		c-1.8-1-3.2-2.4-4.2-4.3c-1-1.9-1.5-4.1-1.5-6.7c0-2.5,0.5-4.6,1.5-6.5c1-1.9,2.4-3.4,4.2-4.4s3.8-1.6,6-1.6c2,0,3.7,0.4,5.1,1.1
		c1.4,0.7,2.5,1.7,3.3,2.9v-12.9L405.4,219.4z M393.4,249.8c1.6,0,3-0.4,4.2-1.1c1.2-0.8,2.2-1.8,2.9-3.2c0.7-1.4,1-2.9,1-4.7
		c0-1.8-0.3-3.3-1-4.7c-0.7-1.4-1.6-2.5-2.9-3.3c-1.2-0.8-2.6-1.2-4.2-1.2c-2.4,0-4.4,0.8-5.9,2.5c-1.5,1.7-2.2,3.8-2.2,6.5
		s0.7,4.8,2.2,6.5C389,249,391,249.8,393.4,249.8L393.4,249.8z M412.7,219.1c0.7,0,1.3,0.2,1.8,0.7s0.7,1.1,0.7,1.8
		s-0.2,1.3-0.7,1.8s-1.1,0.7-1.8,0.7s-1.3-0.2-1.8-0.7s-0.7-1.1-0.7-1.8s0.2-1.3,0.7-1.8S412,219.1,412.7,219.1z M410.7,228.5h3.9
		V253h-3.9V228.5z M421.7,228.5v-2.7c0-2.2,0.5-3.8,1.5-4.8c1-1.1,2.7-1.6,4.9-1.6h4.5v3.6h-4.3c-1,0-1.6,0.2-2.1,0.6
		s-0.6,1.1-0.6,2.1v2.8h6.9v3.6h-6.9V253h-3.9v-20.9h-4.4v-3.6H421.7z M435.2,225.8c0-2.2,0.5-3.8,1.5-4.8c1-1.1,2.7-1.6,4.9-1.6
		h4.5v3.6h-4.3c-1,0-1.6,0.2-2.1,0.6s-0.6,1.1-0.6,2.1v2.8h6.9v3.6h-6.9V253h-3.9V225.8z M446.7,240.8c0-2.5,0.5-4.7,1.4-6.6
		c1-1.9,2.4-3.3,4.1-4.4c1.8-1.1,3.8-1.6,6-1.6c2.2,0,4.2,0.5,6,1.4s3.1,2.3,4.1,4s1.5,3.8,1.6,6.2c0,0.4,0,0.9-0.1,1.7h-19v0.3
		c0.1,2.4,0.8,4.3,2.2,5.8s3.2,2.2,5.5,2.2c1.8,0,3.2-0.4,4.5-1.3c1.2-0.9,2.1-2.1,2.5-3.7h4c-0.5,2.5-1.7,4.5-3.6,6.1
		c-1.9,1.6-4.3,2.4-7.1,2.4c-2.4,0-4.6-0.5-6.4-1.5c-1.8-1.1-3.2-2.5-4.3-4.4C447.2,245.4,446.7,243.2,446.7,240.8L446.7,240.8z
		 M465.9,238.3c-0.2-2.1-1-3.7-2.4-4.8c-1.3-1.2-3.1-1.7-5.1-1.7c-1.9,0-3.5,0.6-4.9,1.8s-2.2,2.8-2.4,4.8H465.9z M486.9,228.5v3.8
		h-2c-2.3,0-4,0.8-5,2.4c-1,1.6-1.5,3.5-1.5,5.8V253h-3.9v-24.5h3.4l0.5,3.7c0.7-1.1,1.6-2,2.7-2.7s2.7-1,4.7-1H486.9z M488.2,240.8
		c0-2.5,0.5-4.7,1.4-6.6c1-1.9,2.4-3.3,4.1-4.4c1.8-1.1,3.8-1.6,6-1.6c2.2,0,4.2,0.5,6,1.4s3.1,2.3,4.1,4s1.5,3.8,1.6,6.2
		c0,0.4,0,0.9-0.1,1.7h-19v0.3c0.1,2.4,0.8,4.3,2.2,5.8s3.2,2.2,5.5,2.2c1.8,0,3.2-0.4,4.5-1.3c1.2-0.9,2.1-2.1,2.5-3.7h4
		c-0.5,2.5-1.7,4.5-3.6,6.1c-1.9,1.6-4.3,2.4-7.1,2.4c-2.4,0-4.6-0.5-6.4-1.5c-1.8-1.1-3.2-2.5-4.3-4.4
		C488.7,245.4,488.2,243.2,488.2,240.8L488.2,240.8z M507.4,238.3c-0.2-2.1-1-3.7-2.4-4.8c-1.3-1.2-3.1-1.7-5.1-1.7
		c-1.9,0-3.5,0.6-4.9,1.8s-2.2,2.8-2.4,4.8H507.4z M527.9,228.2c3,0,5.4,0.9,7.2,2.7c1.8,1.8,2.7,4.6,2.7,8.4V253h-3.9v-13.4
		c0-2.5-0.6-4.4-1.7-5.8c-1.1-1.3-2.8-2-4.9-2c-2.3,0-4.1,0.8-5.4,2.4s-2,3.8-2,6.5V253h-3.9v-24.5h3.4l0.5,3.3
		C521.7,229.4,524.4,228.2,527.9,228.2L527.9,228.2z M544.5,232.1H540v-3.6h4.4v-6.9h3.9v6.9h6.2v3.6h-6.2v14.4c0,1,0.2,1.8,0.6,2.2
		c0.4,0.4,1.1,0.6,2.1,0.6h4.3v3.6h-4.5c-2.3,0-4-0.5-4.9-1.5c-1-1-1.4-2.6-1.4-4.8L544.5,232.1z M-247.4,321.4v3.6h-2.2
		c-1.6,0-2.7-0.3-3.4-1s-1-1.6-1.1-2.8c-1.9,2.7-4.6,4.1-8.2,4.1c-2.7,0-4.9-0.6-6.6-1.9c-1.6-1.3-2.4-3-2.4-5.2
		c0-2.5,0.8-4.4,2.5-5.7c1.7-1.3,4.1-2,7.3-2h7.2v-1.7c0-1.6-0.5-2.8-1.6-3.7c-1.1-0.9-2.5-1.3-4.5-1.3c-1.7,0-3.1,0.4-4.2,1.2
		c-1.1,0.7-1.8,1.7-2,3h-3.9c0.3-2.4,1.3-4.3,3.2-5.6c1.9-1.3,4.3-2,7.2-2c3.1,0,5.6,0.8,7.2,2.3c1.7,1.5,2.6,3.7,2.6,6.5v10.6
		c0,1.2,0.5,1.8,1.6,1.8L-247.4,321.4z M-254.2,313.8h-7.6c-3.6,0-5.5,1.4-5.5,4.1c0,1.2,0.5,2.2,1.4,2.9s2.3,1.1,3.9,1.1
		c2.4,0,4.3-0.6,5.7-1.9c1.4-1.3,2.1-3,2.1-5L-254.2,313.8z M-232.4,300.2c3,0,5.4,0.9,7.2,2.7c1.8,1.8,2.7,4.6,2.7,8.4V325h-3.9
		v-13.4c0-2.5-0.6-4.4-1.7-5.8c-1.1-1.3-2.8-2-4.9-2c-2.3,0-4.1,0.8-5.4,2.4s-2,3.8-2,6.5V325h-3.9v-24.5h3.4l0.5,3.3
		C-238.6,301.4-235.9,300.2-232.4,300.2L-232.4,300.2z M-194.3,291.4V325h-3.4l-0.5-3.9c-2,2.8-4.8,4.2-8.4,4.2
		c-2.3,0-4.3-0.5-6.1-1.5c-1.8-1-3.2-2.4-4.2-4.3c-1-1.9-1.5-4.1-1.5-6.7c0-2.5,0.5-4.6,1.5-6.5c1-1.9,2.4-3.4,4.2-4.4
		s3.8-1.6,6-1.6c2,0,3.7,0.4,5.1,1.1c1.4,0.7,2.5,1.7,3.3,2.9v-12.9H-194.3z M-206.2,321.8c1.6,0,3-0.4,4.2-1.1
		c1.2-0.8,2.2-1.8,2.9-3.2c0.7-1.4,1-2.9,1-4.7c0-1.8-0.3-3.3-1-4.7c-0.7-1.4-1.6-2.5-2.9-3.3c-1.2-0.8-2.6-1.2-4.2-1.2
		c-2.4,0-4.4,0.8-5.9,2.5c-1.5,1.7-2.2,3.8-2.2,6.5s0.7,4.8,2.2,6.5C-210.6,321-208.6,321.8-206.2,321.8L-206.2,321.8z
		 M-173.3,316.9c0.1,1.5,0.7,2.7,1.9,3.6c1.2,0.9,2.8,1.4,4.8,1.4c1.7,0,3.1-0.3,4.2-1c1.1-0.7,1.6-1.6,1.6-2.7c0-1-0.3-1.7-0.8-2.2
		s-1.2-0.9-2-1.1c-0.8-0.2-2-0.4-3.5-0.6c-2.1-0.3-3.8-0.6-5.2-1s-2.4-1.1-3.3-2c-0.8-0.9-1.2-2.2-1.2-3.8c0-1.4,0.4-2.7,1.2-3.8
		c0.8-1.1,2-2,3.4-2.6c1.4-0.6,3-1,4.8-1c2.9,0,5.2,0.7,7,2c1.8,1.3,2.8,3.3,3,5.8h-3.9c-0.2-1.3-0.8-2.3-1.9-3.2s-2.4-1.2-4.1-1.2
		c-1.7,0-3,0.4-4,1.1c-1,0.7-1.5,1.6-1.5,2.7c0,0.8,0.2,1.5,0.7,1.9s1.1,0.8,1.8,0.9c0.8,0.2,1.9,0.3,3.5,0.5
		c2.1,0.3,3.9,0.6,5.3,1.1c1.4,0.4,2.5,1.2,3.4,2.2c0.9,1,1.3,2.3,1.3,4c0,1.5-0.4,2.8-1.3,3.9s-2,2-3.5,2.6s-3.1,0.9-4.9,0.9
		c-3.2,0-5.8-0.7-7.7-2.2c-1.9-1.5-2.9-3.5-2.9-6.1L-173.3,316.9z M-150.7,304.1h-4.4v-3.6h4.4v-6.9h3.9v6.9h6.2v3.6h-6.2v14.4
		c0,1,0.2,1.8,0.6,2.2c0.4,0.4,1.1,0.6,2.1,0.6h4.3v3.6h-4.5c-2.3,0-4-0.5-4.9-1.5c-1-1-1.4-2.6-1.4-4.8L-150.7,304.1z
		 M-114.5,321.4v3.6h-2.2c-1.6,0-2.7-0.3-3.4-1s-1-1.6-1.1-2.8c-1.9,2.7-4.6,4.1-8.2,4.1c-2.7,0-4.9-0.6-6.6-1.9
		c-1.6-1.3-2.4-3-2.4-5.2c0-2.5,0.8-4.4,2.5-5.7c1.7-1.3,4.1-2,7.3-2h7.2v-1.7c0-1.6-0.5-2.8-1.6-3.7c-1.1-0.9-2.5-1.3-4.5-1.3
		c-1.7,0-3.1,0.4-4.2,1.2c-1.1,0.7-1.8,1.7-2,3h-3.9c0.3-2.4,1.3-4.3,3.2-5.6c1.9-1.3,4.3-2,7.2-2c3.1,0,5.6,0.8,7.2,2.3
		c1.7,1.5,2.6,3.7,2.6,6.5v10.6c0,1.2,0.5,1.8,1.6,1.8L-114.5,321.4z M-121.3,313.8h-7.6c-3.6,0-5.5,1.4-5.5,4.1
		c0,1.2,0.5,2.2,1.4,2.9s2.3,1.1,3.9,1.1c2.4,0,4.3-0.6,5.7-1.9c1.4-1.3,2.1-3,2.1-5V313.8z M-99.5,300.2c3,0,5.4,0.9,7.2,2.7
		c1.8,1.8,2.7,4.6,2.7,8.4V325h-3.9v-13.4c0-2.5-0.6-4.4-1.7-5.8c-1.1-1.3-2.8-2-4.9-2c-2.3,0-4.1,0.8-5.4,2.4s-2,3.8-2,6.5V325
		h-3.9v-24.5h3.4l0.5,3.3C-105.7,301.4-103,300.2-99.5,300.2L-99.5,300.2z M-61.4,291.4V325h-3.4l-0.5-3.9c-2,2.8-4.8,4.2-8.4,4.2
		c-2.3,0-4.3-0.5-6.1-1.5c-1.8-1-3.2-2.4-4.2-4.3c-1-1.9-1.5-4.1-1.5-6.7c0-2.5,0.5-4.6,1.5-6.5c1-1.9,2.4-3.4,4.2-4.4
		s3.8-1.6,6-1.6c2,0,3.7,0.4,5.1,1.1c1.4,0.7,2.5,1.7,3.3,2.9v-12.9H-61.4z M-73.3,321.8c1.6,0,3-0.4,4.2-1.1
		c1.2-0.8,2.2-1.8,2.9-3.2c0.7-1.4,1-2.9,1-4.7c0-1.8-0.3-3.3-1-4.7c-0.7-1.4-1.6-2.5-2.9-3.3c-1.2-0.8-2.6-1.2-4.2-1.2
		c-2.4,0-4.4,0.8-5.9,2.5c-1.5,1.7-2.2,3.8-2.2,6.5s0.7,4.8,2.2,6.5C-77.7,321-75.7,321.8-73.3,321.8L-73.3,321.8z M-32.2,325.3
		c-2.4,0-4.5-0.5-6.3-1.6c-1.8-1.1-3.2-2.5-4.3-4.4s-1.5-4.1-1.5-6.5s0.5-4.6,1.5-6.5s2.4-3.4,4.3-4.4c1.9-1.1,4-1.6,6.3-1.6
		s4.5,0.5,6.3,1.6c1.9,1.1,3.3,2.5,4.3,4.4s1.5,4.1,1.5,6.5s-0.5,4.6-1.5,6.5s-2.5,3.4-4.3,4.4C-27.7,324.8-29.8,325.3-32.2,325.3
		L-32.2,325.3z M-32.2,321.8c1.6,0,3-0.4,4.2-1.2c1.2-0.8,2.2-1.8,2.9-3.2s1-2.9,1-4.7s-0.3-3.3-1-4.7s-1.6-2.4-2.9-3.2
		c-1.2-0.8-2.6-1.2-4.2-1.2s-3,0.4-4.3,1.2c-1.2,0.8-2.2,1.8-2.8,3.2s-1,2.9-1,4.7s0.3,3.3,1,4.7s1.6,2.4,2.8,3.2
		C-35.2,321.4-33.8,321.8-32.2,321.8z M5.6,300.5V325H2.2l-0.5-3.3c-1.9,2.4-4.5,3.6-7.8,3.6c-2.9,0-5.2-0.9-7-2.7s-2.6-4.6-2.6-8.4
		v-13.6h3.9v13.4c0,2.5,0.5,4.5,1.6,5.8c1.1,1.3,2.7,2,4.8,2c2.2,0,4-0.8,5.2-2.4c1.3-1.6,1.9-3.8,1.9-6.5v-12.2L5.6,300.5z
		 M12.7,304.1H8.2v-3.6h4.4v-6.9h3.9v6.9h6.2v3.6h-6.2v14.4c0,1,0.2,1.8,0.6,2.2c0.4,0.4,1.1,0.6,2.1,0.6h4.3v3.6H19
		c-2.3,0-4-0.5-4.9-1.5c-1-1-1.4-2.6-1.4-4.8L12.7,304.1z M40.9,291.1c0.7,0,1.3,0.2,1.8,0.7s0.7,1.1,0.7,1.8s-0.2,1.3-0.7,1.8
		s-1.1,0.7-1.8,0.7s-1.3-0.2-1.8-0.7s-0.7-1.1-0.7-1.8s0.2-1.3,0.7-1.8S40.2,291.1,40.9,291.1z M38.9,300.5h3.9V325h-3.9V300.5z
		 M60.3,300.2c3,0,5.4,0.9,7.2,2.7c1.8,1.8,2.7,4.6,2.7,8.4V325h-3.9v-13.4c0-2.5-0.6-4.4-1.7-5.8c-1.1-1.3-2.8-2-4.9-2
		c-2.3,0-4.1,0.8-5.4,2.4s-2,3.8-2,6.5V325h-3.9v-24.5h3.4l0.5,3.3C54,301.4,56.7,300.2,60.3,300.2L60.3,300.2z M89.4,304.1h-4.4
		v-3.6h4.4v-6.9h3.9v6.9h6.2v3.6h-6.2v14.4c0,1,0.2,1.8,0.6,2.2c0.4,0.4,1.1,0.6,2.1,0.6h4.3v3.6h-4.5c-2.3,0-4-0.5-4.9-1.5
		c-1-1-1.4-2.6-1.4-4.8L89.4,304.1z M115,300.2c3,0,5.4,0.9,7.2,2.7s2.7,4.6,2.7,8.4V325H121v-13.4c0-2.5-0.6-4.4-1.7-5.8
		c-1.2-1.3-2.8-2-4.9-2c-2.3,0-4.1,0.8-5.4,2.4c-1.3,1.6-2,3.8-2,6.5V325H103v-33.6h3.9v13.2c0.8-1.3,1.9-2.3,3.2-3.1
		C111.5,300.6,113.1,300.2,115,300.2L115,300.2z M129.1,312.8c0-2.5,0.5-4.7,1.4-6.6c1-1.9,2.4-3.3,4.1-4.4c1.8-1.1,3.8-1.6,6-1.6
		c2.2,0,4.2,0.5,6,1.4s3.1,2.3,4.1,4s1.5,3.8,1.6,6.2c0,0.4,0,0.9-0.1,1.7h-19v0.3c0.1,2.4,0.8,4.3,2.2,5.8s3.2,2.2,5.5,2.2
		c1.8,0,3.2-0.4,4.5-1.3c1.2-0.9,2.1-2.1,2.5-3.7h4c-0.5,2.5-1.7,4.5-3.6,6.1c-1.9,1.6-4.3,2.4-7.1,2.4c-2.4,0-4.6-0.5-6.4-1.5
		c-1.8-1.1-3.2-2.5-4.3-4.4C129.6,317.4,129.1,315.2,129.1,312.8z M148.3,310.3c-0.2-2.1-1-3.7-2.4-4.8c-1.3-1.2-3.1-1.7-5.1-1.7
		c-1.9,0-3.5,0.6-4.9,1.8s-2.2,2.8-2.4,4.8L148.3,310.3z M196.7,300.2c2.8,0,5,0.9,6.7,2.6c1.7,1.7,2.6,4.4,2.6,8.1V325h-3.9v-13.9
		c0-2.4-0.5-4.2-1.5-5.4c-1-1.2-2.4-1.9-4.3-1.9c-2,0-3.7,0.7-4.8,2.2c-1.2,1.4-1.7,3.4-1.7,5.9V325h-3.9v-13.9
		c0-2.4-0.5-4.2-1.5-5.4s-2.5-1.9-4.4-1.9c-2,0-3.6,0.8-4.8,2.3c-1.2,1.5-1.7,3.5-1.7,6V325h-3.9v-24.5h3.4l0.5,3.4
		c1.8-2.4,4.1-3.6,7.2-3.6c1.8,0,3.3,0.4,4.7,1.2c1.4,0.8,2.4,1.9,3.1,3.5C190,301.8,192.8,300.2,196.7,300.2L196.7,300.2z
		 M233.9,321.4v3.6h-2.2c-1.6,0-2.7-0.3-3.4-1s-1-1.6-1.1-2.8c-1.9,2.7-4.6,4.1-8.2,4.1c-2.7,0-4.9-0.6-6.6-1.9
		c-1.6-1.3-2.4-3-2.4-5.2c0-2.5,0.8-4.4,2.5-5.7c1.7-1.3,4.1-2,7.3-2h7.2v-1.7c0-1.6-0.5-2.8-1.6-3.7c-1.1-0.9-2.5-1.3-4.5-1.3
		c-1.7,0-3.1,0.4-4.2,1.2c-1.1,0.7-1.8,1.7-2,3h-3.9c0.3-2.4,1.3-4.3,3.2-5.6c1.9-1.3,4.3-2,7.2-2c3.1,0,5.6,0.8,7.2,2.3
		c1.7,1.5,2.6,3.7,2.6,6.5v10.6c0,1.2,0.5,1.8,1.6,1.8L233.9,321.4z M227.2,313.8h-7.6c-3.6,0-5.5,1.4-5.5,4.1
		c0,1.2,0.5,2.2,1.4,2.9s2.3,1.1,3.9,1.1c2.4,0,4.3-0.6,5.7-1.9c1.4-1.3,2.1-3,2.1-5V313.8z M249.4,300.5v3.8h-2c-2.3,0-4,0.8-5,2.4
		c-1,1.6-1.5,3.5-1.5,5.8V325H237v-24.5h3.4l0.5,3.7c0.7-1.1,1.6-2,2.7-2.7s2.7-1,4.7-1L249.4,300.5z M253,291.4h3.9v22.3l12.4-13.2
		h4.7l-9.4,10l10.1,14.4H270l-8.2-11.6l-4.9,5.1v6.5H253V291.4z M275.5,312.8c0-2.5,0.5-4.7,1.4-6.6c1-1.9,2.4-3.3,4.1-4.4
		c1.8-1.1,3.8-1.6,6-1.6c2.2,0,4.2,0.5,6,1.4s3.1,2.3,4.1,4s1.5,3.8,1.6,6.2c0,0.4,0,0.9-0.1,1.7h-19v0.3c0.1,2.4,0.8,4.3,2.2,5.8
		s3.2,2.2,5.5,2.2c1.8,0,3.2-0.4,4.5-1.3c1.2-0.9,2.1-2.1,2.5-3.7h4c-0.5,2.5-1.7,4.5-3.6,6.1c-1.9,1.6-4.3,2.4-7.1,2.4
		c-2.4,0-4.6-0.5-6.4-1.5c-1.8-1.1-3.2-2.5-4.3-4.4C276,317.4,275.5,315.2,275.5,312.8L275.5,312.8z M294.7,310.3
		c-0.2-2.1-1-3.7-2.4-4.8c-1.3-1.2-3.1-1.7-5.1-1.7c-1.9,0-3.5,0.6-4.9,1.8s-2.2,2.8-2.4,4.8L294.7,310.3z M304.6,304.1h-4.4v-3.6
		h4.4v-6.9h3.9v6.9h6.2v3.6h-6.2v14.4c0,1,0.2,1.8,0.6,2.2c0.4,0.4,1.1,0.6,2.1,0.6h4.3v3.6H311c-2.3,0-4-0.5-4.9-1.5
		c-1-1-1.4-2.6-1.4-4.8V304.1z M318.1,322.6c0-0.8,0.3-1.4,0.8-1.9c0.5-0.5,1.2-0.8,2-0.8s1.5,0.3,2,0.8c0.5,0.5,0.8,1.1,0.8,1.9
		s-0.3,1.5-0.8,2c-0.5,0.5-1.2,0.7-2,0.7s-1.5-0.2-2-0.7C318.3,324.1,318.1,323.4,318.1,322.6z"/>
</g>
<text transform="matrix(0.922 0 0 1 2.0244 178.845)" class="st4 st5 st6">greenscape</text>
</svg>
